{
.appVersion = "1352";
DisplayStrings = (

glyphs = (
{
glyphname = .notdef;
lastChange = "2022-03-02 02:51:37 +0000";
layers = (
{
layerId = "2018A826-CC5C-461A-95E5-9D849642E9B7";
paths = (
{
closed = 1;
nodes = (
"438 10 LINE",
"438 677 LINE",
"63 677 LINE",
"63 10 LINE"
);
},
{
closed = 1;
nodes = (
"125 615 LINE",
"375 615 LINE",
"375 73 LINE",
"125 73 LINE"
);
}
);
userData = {
assembly = "NPUSHB[ ]	/* 31 values pushed */\0121 8 8 64 9 2 7 4 4 1 0 6 5 4 3 2 5 4 6 0 7 6 6 1 2 1 3 0 1 0 70 \012SROUND[ ]	/* SuperRound */\012MDAP[1]	/* MoveDirectAbsPt */\012SHZ[1]	/* ShiftZoneByLastPoint */\012RTG[ ]	/* RoundToGrid */\012SVTCA[0]	/* SetFreedomAndProjectionVectorToAxis */\012MDAP[1]	/* MoveDirectAbsPt */\012ALIGNRP[ ]	/* AlignRelativePt */\012MDAP[1]	/* MoveDirectAbsPt */\012ALIGNRP[ ]	/* AlignRelativePt */\012SRP0[ ]	/* SetRefPoint0 */\012MIRP[11101]	/* MoveIndirectRelPt */\012ALIGNRP[ ]	/* AlignRelativePt */\012SRP0[ ]	/* SetRefPoint0 */\012MIRP[11101]	/* MoveIndirectRelPt */\012ALIGNRP[ ]	/* AlignRelativePt */\012SVTCA[1]	/* SetFreedomAndProjectionVectorToAxis */\012MDAP[1]	/* MoveDirectAbsPt */\012ALIGNRP[ ]	/* AlignRelativePt */\012MIRP[11101]	/* MoveIndirectRelPt */\012ALIGNRP[ ]	/* AlignRelativePt */\012MDAP[1]	/* MoveDirectAbsPt */\012ALIGNRP[ ]	/* AlignRelativePt */\012MIRP[11101]	/* MoveIndirectRelPt */\012ALIGNRP[ ]	/* AlignRelativePt */\012SVTCA[0]	/* SetFreedomAndProjectionVectorToAxis */\012IUP[1]	/* InterpolateUntPts */\012IUP[0]	/* InterpolateUntPts */\012SVTCA[1]	/* SetFreedomAndProjectionVectorToAxis */\012MD[0]	/* MeasureDistance */\012ROUND[00]	/* Round */\012PUSHW[ ]	/* 2 values pushed */\0120 8 \012MD[0]	/* MeasureDistance */\012ROUND[00]	/* Round */\012SUB[ ]	/* Subtract */\012PUSHB[ ]	/* 1 value pushed */\01264 \012GT[ ]	/* GreaterThan */\012IF[ ]	/* If */\012SHPIX[ ]	/* ShiftZoneByPixel */\012SRP1[ ]	/* SetRefPoint1 */\012SHZ[1]	/* ShiftZoneByLastPoint */\012PUSHW[ ]	/* 2 values pushed */\0128 -64 \012SHPIX[ ]	/* ShiftZoneByPixel */\012EIF[ ]	/* EndIf */";
};
width = 500;
}
);
note = .notdef;
},
{
glyphname = A;
lastChange = "2022-03-02 02:51:37 +0000";
layers = (
{
layerId = "2018A826-CC5C-461A-95E5-9D849642E9B7";
paths = (
{
closed = 1;
nodes = (
"317 -24 OFFCURVE",
"327 -9 OFFCURVE",
"324 8 CURVE SMOOTH",
"317 52 OFFCURVE",
"310 87 OFFCURVE",
"304 113 CURVE SMOOTH",
"292 162 LINE SMOOTH",
"286 185 OFFCURVE",
"283 198 OFFCURVE",
"282 203 CURVE",
"299 211 LINE SMOOTH",
"302 213 OFFCURVE",
"309 220 OFFCURVE",
"309 233 CURVE SMOOTH",
"309 248 OFFCURVE",
"305 256 OFFCURVE",
"297 256 CURVE SMOOTH",
"295 256 OFFCURVE",
"293 256 OFFCURVE",
"291 255 CURVE SMOOTH",
"277 249 LINE",
"264 370 LINE SMOOTH",
"260 403 OFFCURVE",
"256 429 OFFCURVE",
"250 446 CURVE SMOOTH",
"249 449 LINE",
"240 504 OFFCURVE",
"232 547 OFFCURVE",
"224 578 CURVE",
"225 590 OFFCURVE",
"215 614 OFFCURVE",
"202 614 CURVE SMOOTH",
"199 614 OFFCURVE",
"197 613 OFFCURVE",
"195 612 CURVE SMOOTH",
"189 608 OFFCURVE",
"185 600 OFFCURVE",
"182 589 CURVE SMOOTH",
"180 583 OFFCURVE",
"178 577 OFFCURVE",
"177 570 CURVE",
"167 540 OFFCURVE",
"160 518 OFFCURVE",
"157 505 CURVE",
"131 442 LINE",
"129 439 LINE",
"106 370 OFFCURVE",
"92 320 OFFCURVE",
"82 290 CURVE SMOOTH",
"52 202 LINE SMOOTH",
"34 149 OFFCURVE",
"31 135 OFFCURVE",
"32 135 CURVE SMOOTH",
"34 135 OFFCURVE",
"41 150 OFFCURVE",
"40 150 CURVE",
"38 147 OFFCURVE",
"31 134 OFFCURVE",
"21 111 CURVE",
"10 104 OFFCURVE",
"4 96 OFFCURVE",
"4 87 CURVE SMOOTH",
"4 86 LINE",
"2 84 OFFCURVE",
"1 81 OFFCURVE",
"1 78 CURVE SMOOTH",
"1 74 OFFCURVE",
"3 70 OFFCURVE",
"6 65 CURVE",
"-9 20 LINE SMOOTH",
"-10 16 OFFCURVE",
"-11 12 OFFCURVE",
"-11 8 CURVE SMOOTH",
"-11 -7 OFFCURVE",
"-6 -14 OFFCURVE",
"4 -14 CURVE SMOOTH",
"11 -14 OFFCURVE",
"16 -8 OFFCURVE",
"20 3 CURVE SMOOTH",
"28 28 OFFCURVE",
"36 59 OFFCURVE",
"43 79 CURVE",
"81 103 OFFCURVE",
"90 110 OFFCURVE",
"161 148 CURVE SMOOTH",
"214 178 OFFCURVE",
"236 190 OFFCURVE",
"253 196 CURVE",
"264 153 OFFCURVE",
"271 114 OFFCURVE",
"274 97 CURVE SMOOTH",
"294 -10 LINE SMOOTH",
"296 -19 OFFCURVE",
"300 -24 OFFCURVE",
"306 -24 CURVE SMOOTH"
);
},
{
closed = 1;
nodes = (
"66 140 OFFCURVE",
"69 149 OFFCURVE",
"109 274 CURVE SMOOTH",
"131 343 OFFCURVE",
"146 391 OFFCURVE",
"155 420 CURVE",
"181 488 LINE SMOOTH",
"189 510 OFFCURVE",
"195 527 OFFCURVE",
"199 536 CURVE",
"205 509 LINE SMOOTH",
"213 472 OFFCURVE",
"218 446 OFFCURVE",
"220 430 CURVE SMOOTH",
"231 357 LINE SMOOTH",
"236 326 OFFCURVE",
"241 295 OFFCURVE",
"244 264 CURVE SMOOTH",
"245 251 OFFCURVE",
"246 242 OFFCURVE",
"246 235 CURVE",
"231 228 OFFCURVE",
"69 139 OFFCURVE",
"64 136 CURVE"
);
}
);
userData = {
assembly = "NPUSHB[ ]	/* 49 values pushed */\0121 110 110 64 111 0 103 101 100 98 97 89 72 69 65 63 38 37 35 34 9 103 101 100 79 74 71 70 67 38 37 35 34 30 28 24 0 53 71 2 70 2 22 1 3 1 1 24 70 \012SROUND[ ]	/* SuperRound */\012MDAP[1]	/* MoveDirectAbsPt */\012SHZ[1]	/* ShiftZoneByLastPoint */\012RTG[ ]	/* RoundToGrid */\012SVTCA[0]	/* SetFreedomAndProjectionVectorToAxis */\012MIAP[1]	/* MoveIndirectAbsPt */\012MIAP[1]	/* MoveIndirectAbsPt */\012MIAP[1]	/* MoveIndirectAbsPt */\012MIAP[1]	/* MoveIndirectAbsPt */\012MDAP[1]	/* MoveDirectAbsPt */\012SVTCA[1]	/* SetFreedomAndProjectionVectorToAxis */\012MDAP[0]	/* MoveDirectAbsPt */\012MDAP[0]	/* MoveDirectAbsPt */\012MDAP[0]	/* MoveDirectAbsPt */\012MDAP[0]	/* MoveDirectAbsPt */\012MDAP[0]	/* MoveDirectAbsPt */\012MDAP[0]	/* MoveDirectAbsPt */\012MDAP[0]	/* MoveDirectAbsPt */\012MDAP[0]	/* MoveDirectAbsPt */\012MDAP[0]	/* MoveDirectAbsPt */\012MDAP[0]	/* MoveDirectAbsPt */\012MDAP[0]	/* MoveDirectAbsPt */\012MDAP[0]	/* MoveDirectAbsPt */\012MDAP[0]	/* MoveDirectAbsPt */\012MDAP[0]	/* MoveDirectAbsPt */\012MDAP[0]	/* MoveDirectAbsPt */\012MDAP[0]	/* MoveDirectAbsPt */\012SVTCA[0]	/* SetFreedomAndProjectionVectorToAxis */\012MDAP[0]	/* MoveDirectAbsPt */\012MDAP[0]	/* MoveDirectAbsPt */\012MDAP[0]	/* MoveDirectAbsPt */\012MDAP[0]	/* MoveDirectAbsPt */\012MDAP[0]	/* MoveDirectAbsPt */\012MDAP[0]	/* MoveDirectAbsPt */\012MDAP[0]	/* MoveDirectAbsPt */\012MDAP[0]	/* MoveDirectAbsPt */\012MDAP[0]	/* MoveDirectAbsPt */\012MDAP[0]	/* MoveDirectAbsPt */\012MDAP[0]	/* MoveDirectAbsPt */\012MDAP[0]	/* MoveDirectAbsPt */\012MDAP[0]	/* MoveDirectAbsPt */\012MDAP[0]	/* MoveDirectAbsPt */\012MDAP[0]	/* MoveDirectAbsPt */\012IUP[1]	/* InterpolateUntPts */\012IUP[0]	/* InterpolateUntPts */\012SVTCA[1]	/* SetFreedomAndProjectionVectorToAxis */\012MD[0]	/* MeasureDistance */\012ROUND[00]	/* Round */\012PUSHW[ ]	/* 2 values pushed */\01224 110 \012MD[0]	/* MeasureDistance */\012ROUND[00]	/* Round */\012SUB[ ]	/* Subtract */\012PUSHB[ ]	/* 1 value pushed */\01264 \012GT[ ]	/* GreaterThan */\012IF[ ]	/* If */\012SHPIX[ ]	/* ShiftZoneByPixel */\012SRP1[ ]	/* SetRefPoint1 */\012SHZ[1]	/* ShiftZoneByLastPoint */\012PUSHW[ ]	/* 2 values pushed */\012110 -64 \012SHPIX[ ]	/* ShiftZoneByPixel */\012EIF[ ]	/* EndIf */";
};
width = 326;
}
);
note = A;
unicode = 0041;
},
{
glyphname = AE;
lastChange = "2022-03-02 02:51:37 +0000";
layers = (
{
layerId = "2018A826-CC5C-461A-95E5-9D849642E9B7";
paths = (
{
closed = 1;
nodes = (
"301 -22 LINE",
"305 -25 OFFCURVE",
"309 -25 OFFCURVE",
"314 -21 CURVE",
"334 -19 OFFCURVE",
"347 -17 OFFCURVE",
"354 -16 CURVE",
"354 -15 LINE",
"387 -15 OFFCURVE",
"414 -12 OFFCURVE",
"435 -7 CURVE SMOOTH",
"460 2 OFFCURVE",
"477 8 OFFCURVE",
"486 13 CURVE",
"539 31 LINE",
"563 36 LINE SMOOTH",
"573 38 OFFCURVE",
"582 42 OFFCURVE",
"590 48 CURVE SMOOTH",
"605 62 OFFCURVE",
"616 72 OFFCURVE",
"622 78 CURVE SMOOTH",
"627 84 OFFCURVE",
"630 91 OFFCURVE",
"630 100 CURVE SMOOTH",
"630 115 OFFCURVE",
"626 122 OFFCURVE",
"617 122 CURVE SMOOTH",
"614 122 OFFCURVE",
"612 121 OFFCURVE",
"609 119 CURVE SMOOTH",
"577 91 LINE",
"558 83 OFFCURVE",
"544 78 OFFCURVE",
"534 76 CURVE SMOOTH",
"509 69 OFFCURVE",
"491 63 OFFCURVE",
"481 59 CURVE SMOOTH",
"434 40 LINE",
"416 35 OFFCURVE",
"389 32 OFFCURVE",
"354 31 CURVE",
"337 28 OFFCURVE",
"326 26 OFFCURVE",
"321 24 CURVE",
"316 59 OFFCURVE",
"310 88 OFFCURVE",
"304 113 CURVE SMOOTH",
"303 116 LINE",
"320 210 LINE",
"320 229 OFFCURVE",
"325 260 OFFCURVE",
"336 303 CURVE",
"364 303 LINE SMOOTH",
"375 303 OFFCURVE",
"388 305 OFFCURVE",
"402 308 CURVE SMOOTH",
"420 312 OFFCURVE",
"432 314 OFFCURVE",
"439 315 CURVE SMOOTH",
"469 318 OFFCURVE",
"498 320 OFFCURVE",
"526 320 CURVE SMOOTH",
"537 320 OFFCURVE",
"542 329 OFFCURVE",
"542 346 CURVE SMOOTH",
"542 359 OFFCURVE",
"538 366 OFFCURVE",
"529 366 CURVE SMOOTH",
"500 366 OFFCURVE",
"470 364 OFFCURVE",
"439 361 CURVE SMOOTH",
"432 360 OFFCURVE",
"419 358 OFFCURVE",
"402 354 CURVE SMOOTH",
"387 351 OFFCURVE",
"375 349 OFFCURVE",
"365 349 CURVE SMOOTH",
"352 349 LINE",
"359 371 OFFCURVE",
"363 387 OFFCURVE",
"365 396 CURVE SMOOTH",
"370 415 LINE",
"384 485 LINE",
"394 571 LINE",
"396 574 OFFCURVE",
"398 575 OFFCURVE",
"400 576 CURVE",
"399 576 OFFCURVE",
"470 587 OFFCURVE",
"511 587 CURVE SMOOTH",
"516 587 OFFCURVE",
"522 587 OFFCURVE",
"526 586 CURVE SMOOTH",
"562 582 OFFCURVE",
"601 580 OFFCURVE",
"621 559 CURVE SMOOTH",
"626 554 OFFCURVE",
"628 550 OFFCURVE",
"628 547 CURVE SMOOTH",
"628 546 OFFCURVE",
"628 545 OFFCURVE",
"627 544 CURVE",
"626 537 OFFCURVE",
"624 531 OFFCURVE",
"621 526 CURVE",
"620 521 OFFCURVE",
"619 516 OFFCURVE",
"619 512 CURVE SMOOTH",
"619 508 OFFCURVE",
"619 505 OFFCURVE",
"620 502 CURVE SMOOTH",
"622 493 OFFCURVE",
"625 489 OFFCURVE",
"629 489 CURVE",
"637 493 OFFCURVE",
"643 498 OFFCURVE",
"648 505 CURVE",
"654 520 OFFCURVE",
"658 531 OFFCURVE",
"660 540 CURVE",
"660 559 OFFCURVE",
"658 573 OFFCURVE",
"654 584 CURVE",
"645 595 OFFCURVE",
"637 602 OFFCURVE",
"632 605 CURVE",
"620 614 OFFCURVE",
"604 621 OFFCURVE",
"585 625 CURVE SMOOTH",
"576 628 OFFCURVE",
"558 631 OFFCURVE",
"530 634 CURVE SMOOTH",
"516 636 OFFCURVE",
"503 637 OFFCURVE",
"490 637 CURVE SMOOTH",
"461 637 OFFCURVE",
"434 633 OFFCURVE",
"407 625 CURVE SMOOTH",
"387 619 OFFCURVE",
"365 609 OFFCURVE",
"342 595 CURVE SMOOTH",
"280 557 LINE SMOOTH",
"273 553 OFFCURVE",
"269 545 OFFCURVE",
"269 534 CURVE SMOOTH",
"269 519 OFFCURVE",
"274 512 OFFCURVE",
"284 512 CURVE SMOOTH",
"286 512 OFFCURVE",
"288 512 OFFCURVE",
"290 513 CURVE",
"323 532 OFFCURVE",
"347 546 OFFCURVE",
"360 555 CURVE",
"354 511 OFFCURVE",
"349 479 OFFCURVE",
"345 460 CURVE",
"344 459 OFFCURVE",
"336 424 OFFCURVE",
"336 416 CURVE",
"327 387 OFFCURVE",
"321 365 OFFCURVE",
"317 350 CURVE",
"322 351 OFFCURVE",
"313 351 OFFCURVE",
"290 351 CURVE SMOOTH",
"280 351 OFFCURVE",
"275 343 OFFCURVE",
"275 326 CURVE SMOOTH",
"275 312 OFFCURVE",
"279 305 OFFCURVE",
"288 305 CURVE SMOOTH",
"293 306 OFFCURVE",
"298 305 OFFCURVE",
"305 304 CURVE",
"293 255 LINE",
"291 255 LINE",
"277 249 LINE",
"264 370 LINE SMOOTH",
"259 403 OFFCURVE",
"254 428 OFFCURVE",
"250 446 CURVE SMOOTH",
"249 449 LINE",
"240 504 OFFCURVE",
"232 547 OFFCURVE",
"224 578 CURVE",
"225 590 OFFCURVE",
"215 614 OFFCURVE",
"202 614 CURVE SMOOTH",
"199 614 OFFCURVE",
"197 613 OFFCURVE",
"195 612 CURVE SMOOTH",
"189 608 OFFCURVE",
"185 600 OFFCURVE",
"182 589 CURVE SMOOTH",
"180 583 OFFCURVE",
"178 577 OFFCURVE",
"177 570 CURVE",
"167 540 OFFCURVE",
"160 518 OFFCURVE",
"157 505 CURVE",
"131 442 LINE",
"129 439 LINE",
"106 370 OFFCURVE",
"91 321 OFFCURVE",
"82 290 CURVE SMOOTH",
"52 202 LINE",
"54 204 LINE",
"48 187 OFFCURVE",
"45 175 OFFCURVE",
"44 169 CURVE",
"45 169 LINE",
"34 140 OFFCURVE",
"26 121 OFFCURVE",
"21 111 CURVE",
"10 104 OFFCURVE",
"4 96 OFFCURVE",
"4 87 CURVE SMOOTH",
"4 86 LINE",
"2 84 OFFCURVE",
"1 81 OFFCURVE",
"1 78 CURVE SMOOTH",
"1 74 OFFCURVE",
"3 70 OFFCURVE",
"6 65 CURVE",
"-9 20 LINE SMOOTH",
"-10 16 OFFCURVE",
"-11 12 OFFCURVE",
"-11 8 CURVE SMOOTH",
"-11 -7 OFFCURVE",
"-6 -14 OFFCURVE",
"4 -14 CURVE SMOOTH",
"11 -14 OFFCURVE",
"16 -8 OFFCURVE",
"20 3 CURVE SMOOTH",
"28 28 OFFCURVE",
"36 50 OFFCURVE",
"43 69 CURVE",
"54 76 LINE",
"93 101 LINE",
"161 139 LINE SMOOTH",
"176 147 OFFCURVE",
"185 153 OFFCURVE",
"190 156 CURVE SMOOTH",
"213 169 OFFCURVE",
"234 179 OFFCURVE",
"253 186 CURVE",
"271 112 LINE",
"265 49 LINE SMOOTH",
"264 37 OFFCURVE",
"264 26 OFFCURVE",
"264 18 CURVE SMOOTH",
"264 10 OFFCURVE",
"264 5 OFFCURVE",
"265 1 CURVE",
"274 -13 OFFCURVE",
"281 -20 OFFCURVE",
"285 -21 CURVE",
"288 -23 LINE"
);
},
{
closed = 1;
nodes = (
"68 143 OFFCURVE",
"70 149 OFFCURVE",
"71 156 CURVE SMOOTH",
"71 155 LINE",
"81 193 LINE",
"83 193 LINE",
"109 274 LINE SMOOTH",
"131 343 OFFCURVE",
"146 391 OFFCURVE",
"155 420 CURVE",
"181 488 LINE SMOOTH",
"189 511 OFFCURVE",
"195 527 OFFCURVE",
"199 536 CURVE",
"205 509 LINE SMOOTH",
"212 472 OFFCURVE",
"217 446 OFFCURVE",
"220 430 CURVE SMOOTH",
"231 357 LINE SMOOTH",
"236 326 OFFCURVE",
"241 295 OFFCURVE",
"244 264 CURVE SMOOTH",
"245 251 OFFCURVE",
"246 242 OFFCURVE",
"246 235 CURVE",
"225 225 OFFCURVE",
"203 214 OFFCURVE",
"180 201 CURVE SMOOTH",
"149 182 LINE",
"82 147 LINE SMOOTH",
"75 143 OFFCURVE",
"69 139 OFFCURVE",
"64 136 CURVE"
);
}
);
width = 670;
}
);
unicode = 00C6;
},
{
glyphname = B;
lastChange = "2022-03-02 02:51:37 +0000";
layers = (
{
layerId = "2018A826-CC5C-461A-95E5-9D849642E9B7";
paths = (
{
closed = 1;
nodes = (
"56 -82 OFFCURVE",
"75 -79 OFFCURVE",
"99 -74 CURVE SMOOTH",
"142 -65 OFFCURVE",
"182 -46 OFFCURVE",
"218 -19 CURVE",
"259 19 OFFCURVE",
"289 49 OFFCURVE",
"309 71 CURVE",
"310 74 LINE",
"329 105 LINE SMOOTH",
"337 119 OFFCURVE",
"342 134 OFFCURVE",
"343 150 CURVE SMOOTH",
"345 171 OFFCURVE",
"341 189 OFFCURVE",
"331 203 CURVE",
"306 230 LINE",
"291 255 OFFCURVE",
"266 275 OFFCURVE",
"231 289 CURVE",
"215 293 OFFCURVE",
"203 295 OFFCURVE",
"196 295 CURVE",
"219 311 LINE SMOOTH",
"250 332 OFFCURVE",
"270 345 OFFCURVE",
"279 354 CURVE SMOOTH",
"327 401 OFFCURVE",
"357 452 OFFCURVE",
"357 483 CURVE SMOOTH",
"357 498 OFFCURVE",
"349 510 OFFCURVE",
"333 520 CURVE SMOOTH",
"296 543 LINE",
"289 550 OFFCURVE",
"274 558 OFFCURVE",
"253 567 CURVE SMOOTH",
"224 578 OFFCURVE",
"205 586 OFFCURVE",
"196 591 CURVE SMOOTH",
"187 596 LINE",
"164 612 OFFCURVE",
"148 622 OFFCURVE",
"139 626 CURVE",
"132 637 OFFCURVE",
"124 645 OFFCURVE",
"117 650 CURVE SMOOTH",
"115 651 OFFCURVE",
"113 652 OFFCURVE",
"111 652 CURVE SMOOTH",
"103 652 OFFCURVE",
"93 638 OFFCURVE",
"93 626 CURVE SMOOTH",
"93 619 OFFCURVE",
"95 614 OFFCURVE",
"99 611 CURVE",
"108 600 OFFCURVE",
"116 591 OFFCURVE",
"123 585 CURVE SMOOTH",
"141 570 OFFCURVE",
"166 555 OFFCURVE",
"199 540 CURVE SMOOTH",
"240 521 OFFCURVE",
"267 509 OFFCURVE",
"278 502 CURVE SMOOTH",
"281 500 OFFCURVE",
"290 497 OFFCURVE",
"305 493 CURVE SMOOTH",
"313 490 OFFCURVE",
"317 487 OFFCURVE",
"317 483 CURVE SMOOTH",
"317 482 LINE",
"320 463 LINE SMOOTH",
"320 460 OFFCURVE",
"318 456 OFFCURVE",
"314 449 CURVE SMOOTH",
"309 440 LINE",
"299 425 LINE",
"295 414 OFFCURVE",
"283 408 OFFCURVE",
"282 407 CURVE SMOOTH",
"265 392 LINE SMOOTH",
"241 371 OFFCURVE",
"221 359 OFFCURVE",
"209 352 CURVE SMOOTH",
"185 336 OFFCURVE",
"166 324 OFFCURVE",
"152 315 CURVE",
"145 296 OFFCURVE",
"142 283 OFFCURVE",
"143 275 CURVE",
"144 274 LINE",
"145 267 OFFCURVE",
"149 261 OFFCURVE",
"156 258 CURVE SMOOTH",
"159 257 OFFCURVE",
"162 256 OFFCURVE",
"166 255 CURVE",
"173 252 OFFCURVE",
"181 251 OFFCURVE",
"190 251 CURVE SMOOTH",
"199 250 OFFCURVE",
"205 248 OFFCURVE",
"210 245 CURVE",
"223 246 LINE",
"238 239 LINE SMOOTH",
"251 233 OFFCURVE",
"259 228 OFFCURVE",
"264 224 CURVE SMOOTH",
"266 222 OFFCURVE",
"273 213 OFFCURVE",
"285 197 CURVE SMOOTH",
"302 174 OFFCURVE",
"310 159 OFFCURVE",
"309 151 CURVE",
"300 128 OFFCURVE",
"292 112 OFFCURVE",
"285 101 CURVE",
"238 54 OFFCURVE",
"212 29 OFFCURVE",
"206 25 CURVE SMOOTH",
"170 1 OFFCURVE",
"133 -16 OFFCURVE",
"95 -26 CURVE SMOOTH",
"63 -34 OFFCURVE",
"42 -34 OFFCURVE",
"30 -34 CURVE SMOOTH",
"29 -34 LINE SMOOTH",
"26 -34 OFFCURVE",
"21 -31 OFFCURVE",
"14 -26 CURVE SMOOTH",
"7 -21 OFFCURVE",
"1 -18 OFFCURVE",
"-2 -18 CURVE SMOOTH",
"-13 -18 OFFCURVE",
"-19 -27 OFFCURVE",
"-19 -46 CURVE SMOOTH",
"-19 -54 OFFCURVE",
"-17 -60 OFFCURVE",
"-11 -63 CURVE SMOOTH",
"23 -80 LINE",
"28 -81 OFFCURVE",
"34 -82 OFFCURVE",
"41 -82 CURVE SMOOTH"
);
},
{
closed = 1;
nodes = (
"72 69 OFFCURVE",
"77 77 OFFCURVE",
"77 92 CURVE SMOOTH",
"77 100 LINE",
"74 129 OFFCURVE",
"72 147 OFFCURVE",
"72 154 CURVE SMOOTH",
"71 177 OFFCURVE",
"72 194 OFFCURVE",
"75 205 CURVE SMOOTH",
"78 221 OFFCURVE",
"81 234 OFFCURVE",
"84 243 CURVE SMOOTH",
"110 364 OFFCURVE",
"124 435 OFFCURVE",
"126 456 CURVE",
"134 500 LINE SMOOTH",
"138 522 OFFCURVE",
"140 536 OFFCURVE",
"140 543 CURVE",
"141 547 OFFCURVE",
"141 551 OFFCURVE",
"141 555 CURVE SMOOTH",
"141 565 OFFCURVE",
"138 570 OFFCURVE",
"130 570 CURVE SMOOTH",
"121 570 OFFCURVE",
"114 562 OFFCURVE",
"110 545 CURVE SMOOTH",
"102 504 OFFCURVE",
"97 475 OFFCURVE",
"96 459 CURVE",
"88 412 OFFCURVE",
"82 377 OFFCURVE",
"77 356 CURVE SMOOTH",
"72 325 OFFCURVE",
"65 292 OFFCURVE",
"55 255 CURVE SMOOTH",
"48 228 OFFCURVE",
"44 213 OFFCURVE",
"44 208 CURVE SMOOTH",
"44 203 OFFCURVE",
"43 192 OFFCURVE",
"41 177 CURVE SMOOTH",
"40 170 OFFCURVE",
"39 164 OFFCURVE",
"39 158 CURVE SMOOTH",
"39 154 OFFCURVE",
"39 150 OFFCURVE",
"40 146 CURVE",
"39 137 OFFCURVE",
"41 126 OFFCURVE",
"44 113 CURVE SMOOTH",
"47 100 OFFCURVE",
"48 91 OFFCURVE",
"48 86 CURVE",
"51 75 OFFCURVE",
"55 69 OFFCURVE",
"62 69 CURVE SMOOTH"
);
}
);
userData = {
assembly = "NPUSHB[ ]	/* 30 values pushed */\0121 140 140 64 141 91 138 120 37 36 21 20 17 125 118 116 106 98 91 73 59 45 29 15 0 76 11 1 15 70 \012SROUND[ ]	/* SuperRound */\012MDAP[1]	/* MoveDirectAbsPt */\012SHZ[1]	/* ShiftZoneByLastPoint */\012RTG[ ]	/* RoundToGrid */\012SVTCA[0]	/* SetFreedomAndProjectionVectorToAxis */\012MDAP[1]	/* MoveDirectAbsPt */\012MDAP[1]	/* MoveDirectAbsPt */\012SVTCA[1]	/* SetFreedomAndProjectionVectorToAxis */\012MDAP[0]	/* MoveDirectAbsPt */\012MDAP[0]	/* MoveDirectAbsPt */\012MDAP[0]	/* MoveDirectAbsPt */\012MDAP[0]	/* MoveDirectAbsPt */\012MDAP[0]	/* MoveDirectAbsPt */\012MDAP[0]	/* MoveDirectAbsPt */\012MDAP[0]	/* MoveDirectAbsPt */\012MDAP[0]	/* MoveDirectAbsPt */\012MDAP[0]	/* MoveDirectAbsPt */\012MDAP[0]	/* MoveDirectAbsPt */\012MDAP[0]	/* MoveDirectAbsPt */\012MDAP[0]	/* MoveDirectAbsPt */\012SVTCA[0]	/* SetFreedomAndProjectionVectorToAxis */\012MDAP[0]	/* MoveDirectAbsPt */\012MDAP[0]	/* MoveDirectAbsPt */\012MDAP[0]	/* MoveDirectAbsPt */\012MDAP[0]	/* MoveDirectAbsPt */\012MDAP[0]	/* MoveDirectAbsPt */\012MDAP[0]	/* MoveDirectAbsPt */\012MDAP[0]	/* MoveDirectAbsPt */\012IUP[1]	/* InterpolateUntPts */\012IUP[0]	/* InterpolateUntPts */\012SVTCA[1]	/* SetFreedomAndProjectionVectorToAxis */\012MD[0]	/* MeasureDistance */\012ROUND[00]	/* Round */\012PUSHW[ ]	/* 2 values pushed */\01215 140 \012MD[0]	/* MeasureDistance */\012ROUND[00]	/* Round */\012SUB[ ]	/* Subtract */\012PUSHB[ ]	/* 1 value pushed */\01264 \012GT[ ]	/* GreaterThan */\012IF[ ]	/* If */\012SHPIX[ ]	/* ShiftZoneByPixel */\012SRP1[ ]	/* SetRefPoint1 */\012SHZ[1]	/* ShiftZoneByLastPoint */\012PUSHW[ ]	/* 2 values pushed */\012140 -64 \012SHPIX[ ]	/* ShiftZoneByPixel */\012EIF[ ]	/* EndIf */";
};
width = 353;
}
);
note = B;
unicode = 0042;
},
{
glyphname = C;
lastChange = "2022-03-02 02:51:37 +0000";
layers = (
{
layerId = "2018A826-CC5C-461A-95E5-9D849642E9B7";
paths = (
{
closed = 1;
nodes = (
"194 -38 OFFCURVE",
"219 -36 OFFCURVE",
"249 -31 CURVE SMOOTH",
"293 -24 OFFCURVE",
"362 -8 OFFCURVE",
"399 11 CURVE SMOOTH",
"421 22 OFFCURVE",
"443 36 OFFCURVE",
"466 53 CURVE",
"474 57 OFFCURVE",
"478 64 OFFCURVE",
"478 74 CURVE SMOOTH",
"478 89 OFFCURVE",
"473 96 OFFCURVE",
"464 96 CURVE SMOOTH",
"460 96 OFFCURVE",
"449 90 OFFCURVE",
"431 77 CURVE SMOOTH",
"411 62 OFFCURVE",
"398 54 OFFCURVE",
"392 51 CURVE SMOOTH",
"361 40 OFFCURVE",
"338 33 OFFCURVE",
"325 30 CURVE SMOOTH",
"290 23 OFFCURVE",
"264 18 OFFCURVE",
"249 16 CURVE SMOOTH",
"186 7 LINE",
"177 7 OFFCURVE",
"167 8 OFFCURVE",
"157 11 CURVE",
"157 6 LINE",
"156 11 LINE",
"139 11 OFFCURVE",
"123 19 OFFCURVE",
"107 34 CURVE",
"105 31 LINE",
"108 34 LINE",
"97 45 OFFCURVE",
"88 67 OFFCURVE",
"81 100 CURVE",
"80 112 OFFCURVE",
"82 126 OFFCURVE",
"86 141 CURVE SMOOTH",
"89 162 OFFCURVE",
"96 184 OFFCURVE",
"105 207 CURVE SMOOTH",
"110 218 OFFCURVE",
"120 236 OFFCURVE",
"133 261 CURVE",
"133 264 LINE",
"158 309 OFFCURVE",
"176 341 OFFCURVE",
"188 359 CURVE SMOOTH",
"211 396 OFFCURVE",
"235 427 OFFCURVE",
"260 454 CURVE SMOOTH",
"290 487 OFFCURVE",
"322 515 OFFCURVE",
"355 536 CURVE SMOOTH",
"386 559 OFFCURVE",
"417 585 OFFCURVE",
"444 585 CURVE SMOOTH",
"459 585 OFFCURVE",
"468 584 OFFCURVE",
"470 582 CURVE",
"473 581 LINE",
"475 581 OFFCURVE",
"477 577 OFFCURVE",
"480 570 CURVE",
"480 556 LINE",
"479 537 LINE SMOOTH",
"476 518 OFFCURVE",
"483 509 OFFCURVE",
"498 509 CURVE SMOOTH",
"505 509 OFFCURVE",
"515 526 OFFCURVE",
"515 539 CURVE SMOOTH",
"516 564 OFFCURVE",
"513 586 OFFCURVE",
"506 603 CURVE",
"505 603 LINE",
"490 622 OFFCURVE",
"484 631 OFFCURVE",
"447 631 CURVE SMOOTH",
"430 631 OFFCURVE",
"413 627 OFFCURVE",
"398 620 CURVE SMOOTH",
"393 617 OFFCURVE",
"378 607 OFFCURVE",
"352 590 CURVE SMOOTH",
"321 569 OFFCURVE",
"284 537 OFFCURVE",
"242 492 CURVE SMOOTH",
"219 468 OFFCURVE",
"194 434 OFFCURVE",
"166 389 CURVE SMOOTH",
"146 357 OFFCURVE",
"129 326 OFFCURVE",
"114 296 CURVE",
"112 294 LINE",
"107 281 OFFCURVE",
"103 273 OFFCURVE",
"100 271 CURVE",
"68 203 LINE SMOOTH",
"56 175 OFFCURVE",
"51 145 OFFCURVE",
"51 115 CURVE SMOOTH",
"51 61 OFFCURVE",
"65 19 OFFCURVE",
"93 -10 CURVE SMOOTH",
"101 -19 OFFCURVE",
"110 -25 OFFCURVE",
"121 -29 CURVE",
"151 -36 LINE SMOOTH",
"158 -37 OFFCURVE",
"166 -38 OFFCURVE",
"176 -38 CURVE SMOOTH"
);
}
);
userData = {
assembly = "NPUSHB[ ]	/* 34 values pushed */\0121 90 90 64 91 0 88 87 50 40 38 37 34 33 14 3 67 52 38 37 33 32 30 24 23 9 7 5 0 84 61 1 67 70 \012SROUND[ ]	/* SuperRound */\012MDAP[1]	/* MoveDirectAbsPt */\012SHZ[1]	/* ShiftZoneByLastPoint */\012RTG[ ]	/* RoundToGrid */\012SVTCA[0]	/* SetFreedomAndProjectionVectorToAxis */\012MDAP[1]	/* MoveDirectAbsPt */\012MDAP[1]	/* MoveDirectAbsPt */\012SVTCA[1]	/* SetFreedomAndProjectionVectorToAxis */\012MDAP[0]	/* MoveDirectAbsPt */\012MDAP[0]	/* MoveDirectAbsPt */\012MDAP[0]	/* MoveDirectAbsPt */\012MDAP[0]	/* MoveDirectAbsPt */\012MDAP[0]	/* MoveDirectAbsPt */\012MDAP[0]	/* MoveDirectAbsPt */\012MDAP[0]	/* MoveDirectAbsPt */\012MDAP[0]	/* MoveDirectAbsPt */\012MDAP[0]	/* MoveDirectAbsPt */\012MDAP[0]	/* MoveDirectAbsPt */\012MDAP[0]	/* MoveDirectAbsPt */\012MDAP[0]	/* MoveDirectAbsPt */\012MDAP[0]	/* MoveDirectAbsPt */\012SVTCA[0]	/* SetFreedomAndProjectionVectorToAxis */\012MDAP[0]	/* MoveDirectAbsPt */\012MDAP[0]	/* MoveDirectAbsPt */\012MDAP[0]	/* MoveDirectAbsPt */\012MDAP[0]	/* MoveDirectAbsPt */\012MDAP[0]	/* MoveDirectAbsPt */\012MDAP[0]	/* MoveDirectAbsPt */\012MDAP[0]	/* MoveDirectAbsPt */\012MDAP[0]	/* MoveDirectAbsPt */\012MDAP[0]	/* MoveDirectAbsPt */\012MDAP[0]	/* MoveDirectAbsPt */\012IUP[1]	/* InterpolateUntPts */\012IUP[0]	/* InterpolateUntPts */\012SVTCA[1]	/* SetFreedomAndProjectionVectorToAxis */\012MD[0]	/* MeasureDistance */\012ROUND[00]	/* Round */\012PUSHW[ ]	/* 2 values pushed */\01267 90 \012MD[0]	/* MeasureDistance */\012ROUND[00]	/* Round */\012SUB[ ]	/* Subtract */\012PUSHB[ ]	/* 1 value pushed */\01264 \012GT[ ]	/* GreaterThan */\012IF[ ]	/* If */\012SHPIX[ ]	/* ShiftZoneByPixel */\012SRP1[ ]	/* SetRefPoint1 */\012SHZ[1]	/* ShiftZoneByLastPoint */\012PUSHW[ ]	/* 2 values pushed */\01290 -64 \012SHPIX[ ]	/* ShiftZoneByPixel */\012EIF[ ]	/* EndIf */";
};
width = 518;
}
);
note = C;
unicode = 0043;
},
{
glyphname = D;
lastChange = "2022-03-02 02:51:37 +0000";
layers = (
{
layerId = "2018A826-CC5C-461A-95E5-9D849642E9B7";
paths = (
{
closed = 1;
nodes = (
"130 -26 OFFCURVE",
"132 -25 OFFCURVE",
"134 -24 CURVE SMOOTH",
"142 -21 OFFCURVE",
"155 -18 OFFCURVE",
"172 -15 CURVE SMOOTH",
"186 -13 OFFCURVE",
"199 -9 OFFCURVE",
"211 -2 CURVE SMOOTH",
"234 11 OFFCURVE",
"257 27 OFFCURVE",
"280 46 CURVE SMOOTH",
"313 73 OFFCURVE",
"340 98 OFFCURVE",
"361 123 CURVE SMOOTH",
"395 158 LINE",
"408 173 OFFCURVE",
"417 192 OFFCURVE",
"423 214 CURVE SMOOTH",
"427 229 OFFCURVE",
"429 245 OFFCURVE",
"429 260 CURVE SMOOTH",
"429 267 OFFCURVE",
"426 292 OFFCURVE",
"419 334 CURVE SMOOTH",
"410 385 OFFCURVE",
"390 430 OFFCURVE",
"357 468 CURVE",
"346 485 OFFCURVE",
"333 500 OFFCURVE",
"319 511 CURVE",
"276 539 LINE SMOOTH",
"263 547 OFFCURVE",
"236 559 OFFCURVE",
"193 574 CURVE SMOOTH",
"154 589 OFFCURVE",
"132 598 OFFCURVE",
"129 601 CURVE",
"121 612 OFFCURVE",
"114 621 OFFCURVE",
"109 628 CURVE",
"107 628 LINE",
"105 629 OFFCURVE",
"103 630 OFFCURVE",
"101 630 CURVE SMOOTH",
"88 630 OFFCURVE",
"82 621 OFFCURVE",
"82 602 CURVE SMOOTH",
"82 597 OFFCURVE",
"83 592 OFFCURVE",
"86 589 CURVE",
"91 591 LINE",
"87 587 LINE",
"112 562 LINE SMOOTH",
"117 556 OFFCURVE",
"140 545 OFFCURVE",
"179 529 CURVE SMOOTH",
"221 513 OFFCURVE",
"247 502 OFFCURVE",
"258 495 CURVE SMOOTH",
"298 471 OFFCURVE",
"324 451 OFFCURVE",
"336 434 CURVE SMOOTH",
"354 410 OFFCURVE",
"365 393 OFFCURVE",
"370 382 CURVE SMOOTH",
"379 365 OFFCURVE",
"385 344 OFFCURVE",
"388 319 CURVE SMOOTH",
"390 300 OFFCURVE",
"391 284 OFFCURVE",
"391 269 CURVE SMOOTH",
"391 252 OFFCURVE",
"390 237 OFFCURVE",
"387 225 CURVE SMOOTH",
"384 212 OFFCURVE",
"379 200 OFFCURVE",
"372 191 CURVE",
"344 159 LINE SMOOTH",
"309 124 OFFCURVE",
"283 99 OFFCURVE",
"266 86 CURVE SMOOTH",
"241 65 OFFCURVE",
"220 50 OFFCURVE",
"205 41 CURVE",
"168 26 OFFCURVE",
"141 16 OFFCURVE",
"124 11 CURVE",
"117 8 OFFCURVE",
"114 2 OFFCURVE",
"114 -6 CURVE SMOOTH",
"114 -19 OFFCURVE",
"119 -26 OFFCURVE",
"128 -26 CURVE SMOOTH"
);
},
{
closed = 1;
nodes = (
"68 42 OFFCURVE",
"78 60 OFFCURVE",
"75 75 CURVE",
"78 76 LINE",
"67 91 OFFCURVE",
"62 111 OFFCURVE",
"62 137 CURVE SMOOTH",
"62 203 OFFCURVE",
"92 299 OFFCURVE",
"104 336 CURVE",
"119 397 OFFCURVE",
"126 429 OFFCURVE",
"126 431 CURVE SMOOTH",
"133 514 LINE SMOOTH",
"136 531 OFFCURVE",
"131 540 OFFCURVE",
"120 540 CURVE SMOOTH",
"110 540 OFFCURVE",
"104 532 OFFCURVE",
"102 515 CURVE SMOOTH",
"91 432 LINE",
"83 396 OFFCURVE",
"76 369 OFFCURVE",
"70 350 CURVE",
"51 265 LINE SMOOTH",
"41 207 OFFCURVE",
"34 162 OFFCURVE",
"30 129 CURVE SMOOTH",
"30 126 LINE SMOOTH",
"30 95 OFFCURVE",
"35 72 OFFCURVE",
"44 55 CURVE SMOOTH",
"49 46 OFFCURVE",
"54 42 OFFCURVE",
"57 42 CURVE SMOOTH"
);
}
);
userData = {
assembly = "NPUSHB[ ]	/* 33 values pushed */\0121 98 98 64 99 64 97 96 94 79 43 42 97 96 84 83 75 73 66 64 45 42 41 30 16 50 49 47 14 1 1 83 70 \012SROUND[ ]	/* SuperRound */\012MDAP[1]	/* MoveDirectAbsPt */\012SHZ[1]	/* ShiftZoneByLastPoint */\012RTG[ ]	/* RoundToGrid */\012SVTCA[0]	/* SetFreedomAndProjectionVectorToAxis */\012MIAP[1]	/* MoveIndirectAbsPt */\012MDAP[1]	/* MoveDirectAbsPt */\012ALIGNRP[ ]	/* AlignRelativePt */\012ALIGNRP[ ]	/* AlignRelativePt */\012SVTCA[1]	/* SetFreedomAndProjectionVectorToAxis */\012MDAP[0]	/* MoveDirectAbsPt */\012MDAP[0]	/* MoveDirectAbsPt */\012MDAP[0]	/* MoveDirectAbsPt */\012MDAP[0]	/* MoveDirectAbsPt */\012MDAP[0]	/* MoveDirectAbsPt */\012MDAP[0]	/* MoveDirectAbsPt */\012MDAP[0]	/* MoveDirectAbsPt */\012MDAP[0]	/* MoveDirectAbsPt */\012MDAP[0]	/* MoveDirectAbsPt */\012MDAP[0]	/* MoveDirectAbsPt */\012MDAP[0]	/* MoveDirectAbsPt */\012MDAP[0]	/* MoveDirectAbsPt */\012MDAP[0]	/* MoveDirectAbsPt */\012SVTCA[0]	/* SetFreedomAndProjectionVectorToAxis */\012MDAP[0]	/* MoveDirectAbsPt */\012MDAP[0]	/* MoveDirectAbsPt */\012MDAP[0]	/* MoveDirectAbsPt */\012MDAP[0]	/* MoveDirectAbsPt */\012MDAP[0]	/* MoveDirectAbsPt */\012MDAP[0]	/* MoveDirectAbsPt */\012IUP[1]	/* InterpolateUntPts */\012IUP[0]	/* InterpolateUntPts */\012SVTCA[1]	/* SetFreedomAndProjectionVectorToAxis */\012MD[0]	/* MeasureDistance */\012ROUND[00]	/* Round */\012PUSHW[ ]	/* 2 values pushed */\01283 98 \012MD[0]	/* MeasureDistance */\012ROUND[00]	/* Round */\012SUB[ ]	/* Subtract */\012PUSHB[ ]	/* 1 value pushed */\01264 \012GT[ ]	/* GreaterThan */\012IF[ ]	/* If */\012SHPIX[ ]	/* ShiftZoneByPixel */\012SRP1[ ]	/* SetRefPoint1 */\012SHZ[1]	/* ShiftZoneByLastPoint */\012PUSHW[ ]	/* 2 values pushed */\01298 -64 \012SHPIX[ ]	/* ShiftZoneByPixel */\012EIF[ ]	/* EndIf */";
};
width = 443;
}
);
note = D;
unicode = 0044;
},
{
glyphname = E;
lastChange = "2022-03-02 02:51:37 +0000";
layers = (
{
layerId = "2018A826-CC5C-461A-95E5-9D849642E9B7";
paths = (
{
closed = 1;
nodes = (
"130 -23 OFFCURVE",
"152 -21 OFFCURVE",
"174 -16 CURVE",
"174 -15 LINE",
"206 -15 OFFCURVE",
"233 -12 OFFCURVE",
"255 -7 CURVE",
"280 2 OFFCURVE",
"297 8 OFFCURVE",
"306 13 CURVE",
"330 22 OFFCURVE",
"348 28 OFFCURVE",
"359 31 CURVE SMOOTH",
"383 36 LINE SMOOTH",
"393 38 OFFCURVE",
"402 42 OFFCURVE",
"410 48 CURVE",
"441 78 LINE SMOOTH",
"447 84 OFFCURVE",
"450 91 OFFCURVE",
"450 100 CURVE SMOOTH",
"450 115 OFFCURVE",
"445 122 OFFCURVE",
"436 122 CURVE SMOOTH",
"434 122 OFFCURVE",
"432 121 OFFCURVE",
"429 119 CURVE SMOOTH",
"397 91 LINE",
"378 83 OFFCURVE",
"364 78 OFFCURVE",
"354 76 CURVE SMOOTH",
"329 69 OFFCURVE",
"311 63 OFFCURVE",
"301 59 CURVE SMOOTH",
"278 50 OFFCURVE",
"263 44 OFFCURVE",
"254 40 CURVE",
"236 35 OFFCURVE",
"209 32 OFFCURVE",
"174 31 CURVE",
"152 28 OFFCURVE",
"138 24 OFFCURVE",
"132 21 CURVE",
"125 20 OFFCURVE",
"121 25 OFFCURVE",
"120 36 CURVE SMOOTH",
"119 57 OFFCURVE",
"119 70 OFFCURVE",
"120 73 CURVE SMOOTH",
"121 93 LINE",
"128 145 OFFCURVE",
"134 184 OFFCURVE",
"140 210 CURVE",
"140 229 OFFCURVE",
"145 260 OFFCURVE",
"156 303 CURVE",
"184 303 LINE SMOOTH",
"195 303 OFFCURVE",
"207 305 OFFCURVE",
"222 308 CURVE SMOOTH",
"239 312 OFFCURVE",
"252 314 OFFCURVE",
"259 315 CURVE SMOOTH",
"288 318 OFFCURVE",
"317 320 OFFCURVE",
"346 320 CURVE SMOOTH",
"357 320 OFFCURVE",
"362 329 OFFCURVE",
"362 346 CURVE SMOOTH",
"362 359 OFFCURVE",
"358 366 OFFCURVE",
"349 366 CURVE SMOOTH",
"320 366 OFFCURVE",
"290 364 OFFCURVE",
"259 361 CURVE SMOOTH",
"251 360 OFFCURVE",
"238 358 OFFCURVE",
"221 354 CURVE SMOOTH",
"207 351 OFFCURVE",
"195 349 OFFCURVE",
"185 349 CURVE SMOOTH",
"172 349 LINE",
"179 371 OFFCURVE",
"183 387 OFFCURVE",
"185 396 CURVE SMOOTH",
"190 415 LINE",
"204 485 LINE",
"209 536 OFFCURVE",
"213 564 OFFCURVE",
"214 571 CURVE",
"216 574 OFFCURVE",
"218 575 OFFCURVE",
"220 576 CURVE",
"219 576 OFFCURVE",
"289 587 OFFCURVE",
"330 587 CURVE SMOOTH",
"336 587 OFFCURVE",
"342 587 OFFCURVE",
"346 586 CURVE SMOOTH",
"382 582 OFFCURVE",
"421 580 OFFCURVE",
"441 559 CURVE SMOOTH",
"446 554 OFFCURVE",
"448 550 OFFCURVE",
"448 547 CURVE SMOOTH",
"448 546 OFFCURVE",
"448 545 OFFCURVE",
"447 544 CURVE",
"446 537 OFFCURVE",
"444 531 OFFCURVE",
"441 526 CURVE SMOOTH",
"439 521 OFFCURVE",
"439 517 OFFCURVE",
"439 512 CURVE SMOOTH",
"439 509 OFFCURVE",
"439 505 OFFCURVE",
"440 502 CURVE SMOOTH",
"441 493 OFFCURVE",
"444 489 OFFCURVE",
"449 489 CURVE",
"457 493 OFFCURVE",
"463 498 OFFCURVE",
"468 505 CURVE",
"474 520 OFFCURVE",
"478 531 OFFCURVE",
"480 540 CURVE",
"480 559 OFFCURVE",
"478 573 OFFCURVE",
"474 584 CURVE",
"465 595 OFFCURVE",
"457 602 OFFCURVE",
"452 605 CURVE",
"440 614 OFFCURVE",
"424 621 OFFCURVE",
"405 625 CURVE SMOOTH",
"396 628 OFFCURVE",
"378 631 OFFCURVE",
"350 634 CURVE SMOOTH",
"336 636 OFFCURVE",
"323 637 OFFCURVE",
"310 637 CURVE SMOOTH",
"281 637 OFFCURVE",
"254 633 OFFCURVE",
"227 625 CURVE SMOOTH",
"206 619 OFFCURVE",
"185 609 OFFCURVE",
"164 596 CURVE SMOOTH",
"100 557 LINE SMOOTH",
"93 553 OFFCURVE",
"89 545 OFFCURVE",
"89 534 CURVE SMOOTH",
"89 519 OFFCURVE",
"94 512 OFFCURVE",
"104 512 CURVE SMOOTH",
"106 512 OFFCURVE",
"108 512 OFFCURVE",
"110 513 CURVE",
"143 532 OFFCURVE",
"167 546 OFFCURVE",
"180 555 CURVE",
"174 511 OFFCURVE",
"169 479 OFFCURVE",
"165 460 CURVE",
"164 459 OFFCURVE",
"156 424 OFFCURVE",
"156 416 CURVE",
"147 387 OFFCURVE",
"141 365 OFFCURVE",
"137 350 CURVE",
"142 351 OFFCURVE",
"133 351 OFFCURVE",
"110 351 CURVE SMOOTH",
"100 351 OFFCURVE",
"95 343 OFFCURVE",
"95 326 CURVE SMOOTH",
"95 312 OFFCURVE",
"99 305 OFFCURVE",
"108 305 CURVE SMOOTH",
"113 306 OFFCURVE",
"118 305 OFFCURVE",
"125 304 CURVE",
"101 209 LINE",
"94 147 LINE SMOOTH",
"89 103 OFFCURVE",
"86 70 OFFCURVE",
"85 49 CURVE SMOOTH",
"84 37 OFFCURVE",
"84 26 OFFCURVE",
"84 18 CURVE SMOOTH",
"84 10 OFFCURVE",
"84 5 OFFCURVE",
"85 1 CURVE",
"94 -13 OFFCURVE",
"101 -20 OFFCURVE",
"105 -21 CURVE",
"108 -23 LINE"
);
}
);
userData = {
assembly = "NPUSHB[ ]	/* 41 values pushed */\0121 134 134 64 135 0 117 113 106 104 69 55 46 44 34 28 27 15 4 119 113 102 98 92 90 85 84 71 53 51 36 27 10 6 0 126 87 1 1 90 70 \012SROUND[ ]	/* SuperRound */\012MDAP[1]	/* MoveDirectAbsPt */\012SHZ[1]	/* ShiftZoneByLastPoint */\012RTG[ ]	/* RoundToGrid */\012SVTCA[0]	/* SetFreedomAndProjectionVectorToAxis */\012MIAP[1]	/* MoveIndirectAbsPt */\012MDAP[1]	/* MoveDirectAbsPt */\012SVTCA[1]	/* SetFreedomAndProjectionVectorToAxis */\012MDAP[0]	/* MoveDirectAbsPt */\012MDAP[0]	/* MoveDirectAbsPt */\012MDAP[0]	/* MoveDirectAbsPt */\012MDAP[0]	/* MoveDirectAbsPt */\012MDAP[0]	/* MoveDirectAbsPt */\012MDAP[0]	/* MoveDirectAbsPt */\012MDAP[0]	/* MoveDirectAbsPt */\012MDAP[0]	/* MoveDirectAbsPt */\012MDAP[0]	/* MoveDirectAbsPt */\012MDAP[0]	/* MoveDirectAbsPt */\012MDAP[0]	/* MoveDirectAbsPt */\012MDAP[0]	/* MoveDirectAbsPt */\012MDAP[0]	/* MoveDirectAbsPt */\012MDAP[0]	/* MoveDirectAbsPt */\012MDAP[0]	/* MoveDirectAbsPt */\012MDAP[0]	/* MoveDirectAbsPt */\012SVTCA[0]	/* SetFreedomAndProjectionVectorToAxis */\012MDAP[0]	/* MoveDirectAbsPt */\012MDAP[0]	/* MoveDirectAbsPt */\012MDAP[0]	/* MoveDirectAbsPt */\012MDAP[0]	/* MoveDirectAbsPt */\012MDAP[0]	/* MoveDirectAbsPt */\012MDAP[0]	/* MoveDirectAbsPt */\012MDAP[0]	/* MoveDirectAbsPt */\012MDAP[0]	/* MoveDirectAbsPt */\012MDAP[0]	/* MoveDirectAbsPt */\012MDAP[0]	/* MoveDirectAbsPt */\012MDAP[0]	/* MoveDirectAbsPt */\012MDAP[0]	/* MoveDirectAbsPt */\012MDAP[0]	/* MoveDirectAbsPt */\012IUP[1]	/* InterpolateUntPts */\012IUP[0]	/* InterpolateUntPts */\012SVTCA[1]	/* SetFreedomAndProjectionVectorToAxis */\012MD[0]	/* MeasureDistance */\012ROUND[00]	/* Round */\012PUSHW[ ]	/* 2 values pushed */\01290 134 \012MD[0]	/* MeasureDistance */\012ROUND[00]	/* Round */\012SUB[ ]	/* Subtract */\012PUSHB[ ]	/* 1 value pushed */\01264 \012GT[ ]	/* GreaterThan */\012IF[ ]	/* If */\012SHPIX[ ]	/* ShiftZoneByPixel */\012SRP1[ ]	/* SetRefPoint1 */\012SHZ[1]	/* ShiftZoneByLastPoint */\012PUSHW[ ]	/* 2 values pushed */\012134 -64 \012SHPIX[ ]	/* ShiftZoneByPixel */\012EIF[ ]	/* EndIf */";
};
width = 489;
}
);
note = E;
unicode = 0045;
},
{
glyphname = F;
lastChange = "2022-03-02 02:51:37 +0000";
layers = (
{
layerId = "2018A826-CC5C-461A-95E5-9D849642E9B7";
paths = (
{
closed = 1;
nodes = (
"116 -23 OFFCURVE",
"134 -14 OFFCURVE",
"134 -5 CURVE SMOOTH",
"134 0 OFFCURVE",
"131 4 OFFCURVE",
"125 9 CURVE",
"124 19 LINE",
"121 31 LINE SMOOTH",
"120 35 OFFCURVE",
"120 43 OFFCURVE",
"120 53 CURVE SMOOTH",
"120 63 OFFCURVE",
"120 77 OFFCURVE",
"121 93 CURVE SMOOTH",
"128 162 OFFCURVE",
"132 201 OFFCURVE",
"133 208 CURVE SMOOTH",
"139 244 OFFCURVE",
"146 275 OFFCURVE",
"155 301 CURVE",
"169 301 OFFCURVE",
"186 303 OFFCURVE",
"207 307 CURVE SMOOTH",
"259 315 LINE SMOOTH",
"288 318 OFFCURVE",
"317 320 OFFCURVE",
"346 320 CURVE SMOOTH",
"357 320 OFFCURVE",
"362 329 OFFCURVE",
"362 346 CURVE SMOOTH",
"362 359 OFFCURVE",
"358 366 OFFCURVE",
"349 366 CURVE SMOOTH",
"320 366 OFFCURVE",
"290 364 OFFCURVE",
"259 361 CURVE SMOOTH",
"251 360 OFFCURVE",
"238 358 OFFCURVE",
"221 354 CURVE SMOOTH",
"207 351 OFFCURVE",
"195 349 OFFCURVE",
"185 349 CURVE SMOOTH",
"172 349 LINE",
"179 369 OFFCURVE",
"184 386 OFFCURVE",
"186 399 CURVE",
"190 411 LINE SMOOTH",
"196 429 OFFCURVE",
"201 453 OFFCURVE",
"204 484 CURVE SMOOTH",
"209 535 OFFCURVE",
"213 564 OFFCURVE",
"214 571 CURVE",
"216 574 OFFCURVE",
"218 575 OFFCURVE",
"220 576 CURVE",
"219 576 OFFCURVE",
"289 587 OFFCURVE",
"330 587 CURVE SMOOTH",
"336 587 OFFCURVE",
"342 587 OFFCURVE",
"346 586 CURVE SMOOTH",
"382 582 OFFCURVE",
"421 580 OFFCURVE",
"441 559 CURVE SMOOTH",
"445 555 OFFCURVE",
"447 551 OFFCURVE",
"447 547 CURVE SMOOTH",
"447 545 OFFCURVE",
"447 544 OFFCURVE",
"446 542 CURVE",
"446 536 OFFCURVE",
"444 530 OFFCURVE",
"441 525 CURVE SMOOTH",
"439 521 OFFCURVE",
"439 516 OFFCURVE",
"439 512 CURVE SMOOTH",
"439 508 OFFCURVE",
"439 505 OFFCURVE",
"440 501 CURVE SMOOTH",
"441 493 OFFCURVE",
"444 489 OFFCURVE",
"449 489 CURVE",
"457 493 OFFCURVE",
"463 498 OFFCURVE",
"468 505 CURVE",
"474 520 OFFCURVE",
"478 531 OFFCURVE",
"480 540 CURVE",
"480 559 OFFCURVE",
"478 573 OFFCURVE",
"474 584 CURVE",
"465 595 OFFCURVE",
"457 602 OFFCURVE",
"452 605 CURVE",
"440 614 OFFCURVE",
"424 621 OFFCURVE",
"405 625 CURVE SMOOTH",
"396 628 OFFCURVE",
"378 631 OFFCURVE",
"350 634 CURVE SMOOTH",
"336 636 OFFCURVE",
"323 637 OFFCURVE",
"310 637 CURVE SMOOTH",
"281 637 OFFCURVE",
"254 633 OFFCURVE",
"227 625 CURVE SMOOTH",
"206 619 OFFCURVE",
"185 609 OFFCURVE",
"164 596 CURVE SMOOTH",
"100 557 LINE SMOOTH",
"93 553 OFFCURVE",
"89 545 OFFCURVE",
"89 534 CURVE SMOOTH",
"89 519 OFFCURVE",
"94 512 OFFCURVE",
"104 512 CURVE SMOOTH",
"106 512 OFFCURVE",
"108 512 OFFCURVE",
"110 513 CURVE",
"143 532 OFFCURVE",
"167 546 OFFCURVE",
"180 555 CURVE",
"174 510 OFFCURVE",
"169 478 OFFCURVE",
"165 459 CURVE SMOOTH",
"160 436 OFFCURVE",
"158 421 OFFCURVE",
"159 416 CURVE",
"159 418 LINE",
"150 388 OFFCURVE",
"143 365 OFFCURVE",
"139 350 CURVE",
"145 351 OFFCURVE",
"135 351 OFFCURVE",
"110 351 CURVE SMOOTH",
"100 351 OFFCURVE",
"95 343 OFFCURVE",
"95 326 CURVE SMOOTH",
"95 312 OFFCURVE",
"99 305 OFFCURVE",
"108 305 CURVE SMOOTH",
"113 306 OFFCURVE",
"118 305 OFFCURVE",
"125 304 CURVE",
"111 253 OFFCURVE",
"103 221 OFFCURVE",
"101 209 CURVE SMOOTH",
"94 147 LINE SMOOTH",
"89 103 OFFCURVE",
"86 70 OFFCURVE",
"85 49 CURVE SMOOTH",
"84 37 OFFCURVE",
"84 26 OFFCURVE",
"84 18 CURVE SMOOTH",
"84 10 OFFCURVE",
"84 5 OFFCURVE",
"85 1 CURVE",
"94 -13 OFFCURVE",
"101 -20 OFFCURVE",
"105 -21 CURVE",
"108 -23 LINE"
);
}
);
userData = {
assembly = "NPUSHB[ ]	/* 44 values pushed */\0121 105 105 64 106 0 88 84 80 79 77 75 34 28 27 15 4 90 84 80 79 73 69 67 66 62 60 54 50 48 36 27 10 6 0 97 67 66 2 57 1 1 60 70 \012SROUND[ ]	/* SuperRound */\012MDAP[1]	/* MoveDirectAbsPt */\012SHZ[1]	/* ShiftZoneByLastPoint */\012RTG[ ]	/* RoundToGrid */\012SVTCA[0]	/* SetFreedomAndProjectionVectorToAxis */\012MIAP[1]	/* MoveIndirectAbsPt */\012MIAP[1]	/* MoveIndirectAbsPt */\012ALIGNRP[ ]	/* AlignRelativePt */\012MDAP[1]	/* MoveDirectAbsPt */\012SVTCA[1]	/* SetFreedomAndProjectionVectorToAxis */\012MDAP[0]	/* MoveDirectAbsPt */\012MDAP[0]	/* MoveDirectAbsPt */\012MDAP[0]	/* MoveDirectAbsPt */\012MDAP[0]	/* MoveDirectAbsPt */\012MDAP[0]	/* MoveDirectAbsPt */\012MDAP[0]	/* MoveDirectAbsPt */\012MDAP[0]	/* MoveDirectAbsPt */\012MDAP[0]	/* MoveDirectAbsPt */\012MDAP[0]	/* MoveDirectAbsPt */\012MDAP[0]	/* MoveDirectAbsPt */\012MDAP[0]	/* MoveDirectAbsPt */\012MDAP[0]	/* MoveDirectAbsPt */\012MDAP[0]	/* MoveDirectAbsPt */\012MDAP[0]	/* MoveDirectAbsPt */\012MDAP[0]	/* MoveDirectAbsPt */\012MDAP[0]	/* MoveDirectAbsPt */\012MDAP[0]	/* MoveDirectAbsPt */\012MDAP[0]	/* MoveDirectAbsPt */\012SVTCA[0]	/* SetFreedomAndProjectionVectorToAxis */\012MDAP[0]	/* MoveDirectAbsPt */\012MDAP[0]	/* MoveDirectAbsPt */\012MDAP[0]	/* MoveDirectAbsPt */\012MDAP[0]	/* MoveDirectAbsPt */\012MDAP[0]	/* MoveDirectAbsPt */\012MDAP[0]	/* MoveDirectAbsPt */\012MDAP[0]	/* MoveDirectAbsPt */\012MDAP[0]	/* MoveDirectAbsPt */\012MDAP[0]	/* MoveDirectAbsPt */\012MDAP[0]	/* MoveDirectAbsPt */\012MDAP[0]	/* MoveDirectAbsPt */\012IUP[1]	/* InterpolateUntPts */\012IUP[0]	/* InterpolateUntPts */\012SVTCA[1]	/* SetFreedomAndProjectionVectorToAxis */\012MD[0]	/* MeasureDistance */\012ROUND[00]	/* Round */\012PUSHW[ ]	/* 2 values pushed */\01260 105 \012MD[0]	/* MeasureDistance */\012ROUND[00]	/* Round */\012SUB[ ]	/* Subtract */\012PUSHB[ ]	/* 1 value pushed */\01264 \012GT[ ]	/* GreaterThan */\012IF[ ]	/* If */\012SHPIX[ ]	/* ShiftZoneByPixel */\012SRP1[ ]	/* SetRefPoint1 */\012SHZ[1]	/* ShiftZoneByLastPoint */\012PUSHW[ ]	/* 2 values pushed */\012105 -64 \012SHPIX[ ]	/* ShiftZoneByPixel */\012EIF[ ]	/* EndIf */";
};
width = 376;
}
);
note = F;
unicode = 0046;
},
{
glyphname = G;
lastChange = "2022-03-02 02:51:37 +0000";
layers = (
{
layerId = "2018A826-CC5C-461A-95E5-9D849642E9B7";
paths = (
{
closed = 1;
nodes = (
"197 -38 OFFCURVE",
"238 -30 OFFCURVE",
"301 -14 CURVE",
"300 -14 LINE",
"343 -5 LINE",
"352 -1 OFFCURVE",
"360 6 OFFCURVE",
"367 15 CURVE SMOOTH",
"381 36 LINE SMOOTH",
"411 75 OFFCURVE",
"430 105 OFFCURVE",
"439 125 CURVE SMOOTH",
"456 170 OFFCURVE",
"467 202 OFFCURVE",
"473 221 CURVE",
"478 223 OFFCURVE",
"484 224 OFFCURVE",
"491 224 CURVE SMOOTH",
"502 224 OFFCURVE",
"508 233 OFFCURVE",
"508 250 CURVE SMOOTH",
"508 265 OFFCURVE",
"503 273 OFFCURVE",
"494 273 CURVE SMOOTH",
"488 273 OFFCURVE",
"480 273 OFFCURVE",
"470 272 CURVE SMOOTH",
"460 271 OFFCURVE",
"452 270 OFFCURVE",
"446 270 CURVE SMOOTH",
"431 270 OFFCURVE",
"410 269 OFFCURVE",
"385 266 CURVE SMOOTH",
"360 263 OFFCURVE",
"340 261 OFFCURVE",
"325 261 CURVE SMOOTH",
"290 261 LINE",
"255 260 LINE SMOOTH",
"244 260 OFFCURVE",
"238 250 OFFCURVE",
"238 230 CURVE SMOOTH",
"238 217 OFFCURVE",
"242 210 OFFCURVE",
"250 210 CURVE SMOOTH",
"287 211 LINE",
"323 211 LINE SMOOTH",
"339 211 OFFCURVE",
"358 212 OFFCURVE",
"380 215 CURVE SMOOTH",
"402 218 OFFCURVE",
"419 219 OFFCURVE",
"431 219 CURVE",
"424 183 OFFCURVE",
"418 160 OFFCURVE",
"414 151 CURVE SMOOTH",
"403 126 OFFCURVE",
"386 100 OFFCURVE",
"364 74 CURVE SMOOTH",
"336 41 LINE",
"319 34 OFFCURVE",
"305 30 OFFCURVE",
"292 30 CURVE",
"291 31 LINE",
"288 28 OFFCURVE",
"276 25 OFFCURVE",
"255 20 CURVE SMOOTH",
"230 15 OFFCURVE",
"208 12 OFFCURVE",
"189 12 CURVE SMOOTH",
"177 12 OFFCURVE",
"167 13 OFFCURVE",
"159 16 CURVE SMOOTH",
"130 25 OFFCURVE",
"113 33 OFFCURVE",
"106 38 CURVE",
"87 63 OFFCURVE",
"77 99 OFFCURVE",
"77 146 CURVE SMOOTH",
"77 160 OFFCURVE",
"78 174 OFFCURVE",
"80 189 CURVE SMOOTH",
"85 230 OFFCURVE",
"100 278 OFFCURVE",
"124 333 CURVE SMOOTH",
"141 370 OFFCURVE",
"162 407 OFFCURVE",
"188 443 CURVE SMOOTH",
"197 455 OFFCURVE",
"216 475 OFFCURVE",
"246 503 CURVE SMOOTH",
"279 534 OFFCURVE",
"302 553 OFFCURVE",
"316 560 CURVE",
"324 565 OFFCURVE",
"376 585 OFFCURVE",
"379 585 CURVE",
"403 579 LINE",
"411 561 LINE",
"414 548 OFFCURVE",
"415 538 OFFCURVE",
"415 529 CURVE SMOOTH",
"416 518 OFFCURVE",
"420 513 OFFCURVE",
"427 513 CURVE SMOOTH",
"438 513 OFFCURVE",
"450 527 OFFCURVE",
"447 544 CURVE SMOOTH",
"444 565 OFFCURVE",
"442 580 OFFCURVE",
"440 589 CURVE SMOOTH",
"438 597 OFFCURVE",
"434 604 OFFCURVE",
"428 611 CURVE SMOOTH",
"426 614 OFFCURVE",
"421 618 OFFCURVE",
"414 625 CURVE",
"412 625 LINE",
"397 632 OFFCURVE",
"387 635 OFFCURVE",
"382 635 CURVE",
"379 636 OFFCURVE",
"367 632 OFFCURVE",
"346 624 CURVE SMOOTH",
"309 610 LINE",
"309 607 LINE",
"292 598 OFFCURVE",
"266 576 OFFCURVE",
"231 543 CURVE SMOOTH",
"199 513 OFFCURVE",
"178 492 OFFCURVE",
"169 479 CURVE SMOOTH",
"146 447 OFFCURVE",
"123 406 OFFCURVE",
"100 356 CURVE SMOOTH",
"69 289 OFFCURVE",
"51 234 OFFCURVE",
"46 192 CURVE SMOOTH",
"43 172 OFFCURVE",
"42 153 OFFCURVE",
"42 136 CURVE SMOOTH",
"42 93 OFFCURVE",
"50 55 OFFCURVE",
"65 24 CURVE",
"79 6 OFFCURVE",
"89 -6 OFFCURVE",
"96 -11 CURVE",
"120 -24 OFFCURVE",
"138 -31 OFFCURVE",
"149 -34 CURVE SMOOTH",
"156 -37 OFFCURVE",
"166 -38 OFFCURVE",
"178 -38 CURVE SMOOTH"
);
}
);
userData = {
assembly = "NPUSHB[ ]	/* 39 values pushed */\0121 114 114 64 115 2 108 106 100 98 96 85 84 80 61 53 45 44 0 102 93 74 50 38 37 27 17 16 2 42 19 93 2 17 16 1 1 27 70 \012SROUND[ ]	/* SuperRound */\012MDAP[1]	/* MoveDirectAbsPt */\012SHZ[1]	/* ShiftZoneByLastPoint */\012RTG[ ]	/* RoundToGrid */\012SVTCA[0]	/* SetFreedomAndProjectionVectorToAxis */\012MIAP[1]	/* MoveIndirectAbsPt */\012ALIGNRP[ ]	/* AlignRelativePt */\012MIAP[1]	/* MoveIndirectAbsPt */\012MDAP[1]	/* MoveDirectAbsPt */\012MDAP[1]	/* MoveDirectAbsPt */\012SVTCA[1]	/* SetFreedomAndProjectionVectorToAxis */\012MDAP[0]	/* MoveDirectAbsPt */\012MDAP[0]	/* MoveDirectAbsPt */\012MDAP[0]	/* MoveDirectAbsPt */\012MDAP[0]	/* MoveDirectAbsPt */\012MDAP[0]	/* MoveDirectAbsPt */\012MDAP[0]	/* MoveDirectAbsPt */\012MDAP[0]	/* MoveDirectAbsPt */\012MDAP[0]	/* MoveDirectAbsPt */\012MDAP[0]	/* MoveDirectAbsPt */\012MDAP[0]	/* MoveDirectAbsPt */\012SVTCA[0]	/* SetFreedomAndProjectionVectorToAxis */\012MDAP[0]	/* MoveDirectAbsPt */\012MDAP[0]	/* MoveDirectAbsPt */\012MDAP[0]	/* MoveDirectAbsPt */\012MDAP[0]	/* MoveDirectAbsPt */\012MDAP[0]	/* MoveDirectAbsPt */\012MDAP[0]	/* MoveDirectAbsPt */\012MDAP[0]	/* MoveDirectAbsPt */\012MDAP[0]	/* MoveDirectAbsPt */\012MDAP[0]	/* MoveDirectAbsPt */\012MDAP[0]	/* MoveDirectAbsPt */\012MDAP[0]	/* MoveDirectAbsPt */\012MDAP[0]	/* MoveDirectAbsPt */\012MDAP[0]	/* MoveDirectAbsPt */\012IUP[1]	/* InterpolateUntPts */\012IUP[0]	/* InterpolateUntPts */\012SVTCA[1]	/* SetFreedomAndProjectionVectorToAxis */\012MD[0]	/* MeasureDistance */\012ROUND[00]	/* Round */\012PUSHW[ ]	/* 2 values pushed */\01227 114 \012MD[0]	/* MeasureDistance */\012ROUND[00]	/* Round */\012SUB[ ]	/* Subtract */\012PUSHB[ ]	/* 1 value pushed */\01264 \012GT[ ]	/* GreaterThan */\012IF[ ]	/* If */\012SHPIX[ ]	/* ShiftZoneByPixel */\012SRP1[ ]	/* SetRefPoint1 */\012SHZ[1]	/* ShiftZoneByLastPoint */\012PUSHW[ ]	/* 2 values pushed */\012114 -64 \012SHPIX[ ]	/* ShiftZoneByPixel */\012EIF[ ]	/* EndIf */";
};
width = 506;
}
);
note = G;
unicode = 0047;
},
{
glyphname = H;
lastChange = "2022-03-02 02:51:37 +0000";
layers = (
{
layerId = "2018A826-CC5C-461A-95E5-9D849642E9B7";
paths = (
{
closed = 1;
nodes = (
"64 -25 OFFCURVE",
"71 -15 OFFCURVE",
"73 4 CURVE SMOOTH",
"74 11 OFFCURVE",
"74 28 OFFCURVE",
"74 53 CURVE SMOOTH",
"74 96 OFFCURVE",
"77 137 OFFCURVE",
"83 176 CURVE SMOOTH",
"84 185 OFFCURVE",
"85 188 OFFCURVE",
"85 186 CURVE",
"98 191 OFFCURVE",
"105 193 OFFCURVE",
"108 193 CURVE SMOOTH",
"117 193 OFFCURVE",
"128 192 OFFCURVE",
"141 189 CURVE SMOOTH",
"154 186 OFFCURVE",
"165 184 OFFCURVE",
"173 184 CURVE SMOOTH",
"195 183 LINE",
"220 182 LINE",
"240 183 LINE",
"259 184 LINE",
"249 107 OFFCURVE",
"243 48 OFFCURVE",
"240 9 CURVE SMOOTH",
"237 -9 OFFCURVE",
"241 -18 OFFCURVE",
"252 -18 CURVE SMOOTH",
"261 -18 OFFCURVE",
"267 -9 OFFCURVE",
"270 8 CURVE SMOOTH",
"275 33 OFFCURVE",
"278 52 OFFCURVE",
"281 64 CURVE",
"288 140 OFFCURVE",
"292 180 OFFCURVE",
"293 183 CURVE",
"301 185 OFFCURVE",
"307 185 OFFCURVE",
"309 185 CURVE SMOOTH",
"319 185 OFFCURVE",
"324 194 OFFCURVE",
"324 212 CURVE SMOOTH",
"324 225 OFFCURVE",
"320 231 OFFCURVE",
"312 231 CURVE",
"309 233 OFFCURVE",
"306 234 OFFCURVE",
"302 234 CURVE",
"340 516 LINE",
"351 593 LINE",
"350 594 LINE",
"353 611 OFFCURVE",
"348 620 OFFCURVE",
"337 620 CURVE SMOOTH",
"327 620 OFFCURVE",
"321 612 OFFCURVE",
"319 596 CURVE SMOOTH",
"309 519 LINE SMOOTH",
"301 471 OFFCURVE",
"295 436 OFFCURVE",
"290 414 CURVE",
"283 358 OFFCURVE",
"279 318 OFFCURVE",
"277 295 CURVE",
"265 232 LINE",
"246 231 LINE",
"224 230 LINE",
"112 240 LINE",
"91 237 LINE",
"92 247 LINE",
"93 255 LINE",
"111 369 LINE SMOOTH",
"118 411 OFFCURVE",
"124 442 OFFCURVE",
"129 463 CURVE",
"133 489 OFFCURVE",
"137 508 OFFCURVE",
"140 521 CURVE",
"146 561 OFFCURVE",
"150 589 OFFCURVE",
"150 604 CURVE SMOOTH",
"150 617 OFFCURVE",
"144 623 OFFCURVE",
"134 623 CURVE SMOOTH",
"123 623 OFFCURVE",
"117 615 OFFCURVE",
"114 599 CURVE SMOOTH",
"102 526 LINE",
"95 464 LINE",
"87 423 OFFCURVE",
"80 392 OFFCURVE",
"75 371 CURVE",
"67 319 OFFCURVE",
"62 282 OFFCURVE",
"59 259 CURVE SMOOTH",
"59 256 OFFCURVE",
"58 252 OFFCURVE",
"57 247 CURVE SMOOTH",
"56 241 OFFCURVE",
"55 237 OFFCURVE",
"55 235 CURVE",
"48 232 OFFCURVE",
"43 230 OFFCURVE",
"39 230 CURVE SMOOTH",
"28 230 OFFCURVE",
"23 222 OFFCURVE",
"23 206 CURVE SMOOTH",
"23 191 OFFCURVE",
"28 184 OFFCURVE",
"39 184 CURVE SMOOTH",
"51 184 LINE",
"47 172 LINE",
"44 115 OFFCURVE",
"41 73 OFFCURVE",
"39 47 CURVE SMOOTH",
"39 22 OFFCURVE",
"40 4 OFFCURVE",
"40 -6 CURVE SMOOTH",
"40 -19 OFFCURVE",
"44 -25 OFFCURVE",
"52 -25 CURVE SMOOTH"
);
}
);
userData = {
assembly = "NPUSHB[ ]	/* 33 values pushed */\0121 105 105 64 106 0 102 89 84 82 50 49 31 25 22 82 71 52 49 45 22 20 8 4 0 69 41 1 18 1 1 52 70 \012SROUND[ ]	/* SuperRound */\012MDAP[1]	/* MoveDirectAbsPt */\012SHZ[1]	/* ShiftZoneByLastPoint */\012RTG[ ]	/* RoundToGrid */\012SVTCA[0]	/* SetFreedomAndProjectionVectorToAxis */\012MIAP[1]	/* MoveIndirectAbsPt */\012MIAP[1]	/* MoveIndirectAbsPt */\012MDAP[1]	/* MoveDirectAbsPt */\012SVTCA[1]	/* SetFreedomAndProjectionVectorToAxis */\012MDAP[0]	/* MoveDirectAbsPt */\012MDAP[0]	/* MoveDirectAbsPt */\012MDAP[0]	/* MoveDirectAbsPt */\012MDAP[0]	/* MoveDirectAbsPt */\012MDAP[0]	/* MoveDirectAbsPt */\012MDAP[0]	/* MoveDirectAbsPt */\012MDAP[0]	/* MoveDirectAbsPt */\012MDAP[0]	/* MoveDirectAbsPt */\012MDAP[0]	/* MoveDirectAbsPt */\012MDAP[0]	/* MoveDirectAbsPt */\012SVTCA[0]	/* SetFreedomAndProjectionVectorToAxis */\012MDAP[0]	/* MoveDirectAbsPt */\012MDAP[0]	/* MoveDirectAbsPt */\012MDAP[0]	/* MoveDirectAbsPt */\012MDAP[0]	/* MoveDirectAbsPt */\012MDAP[0]	/* MoveDirectAbsPt */\012MDAP[0]	/* MoveDirectAbsPt */\012MDAP[0]	/* MoveDirectAbsPt */\012MDAP[0]	/* MoveDirectAbsPt */\012MDAP[0]	/* MoveDirectAbsPt */\012IUP[1]	/* InterpolateUntPts */\012IUP[0]	/* InterpolateUntPts */\012SVTCA[1]	/* SetFreedomAndProjectionVectorToAxis */\012MD[0]	/* MeasureDistance */\012ROUND[00]	/* Round */\012PUSHW[ ]	/* 2 values pushed */\01252 105 \012MD[0]	/* MeasureDistance */\012ROUND[00]	/* Round */\012SUB[ ]	/* Subtract */\012PUSHB[ ]	/* 1 value pushed */\01264 \012GT[ ]	/* GreaterThan */\012IF[ ]	/* If */\012SHPIX[ ]	/* ShiftZoneByPixel */\012SRP1[ ]	/* SetRefPoint1 */\012SHZ[1]	/* ShiftZoneByLastPoint */\012PUSHW[ ]	/* 2 values pushed */\012105 -64 \012SHPIX[ ]	/* ShiftZoneByPixel */\012EIF[ ]	/* EndIf */";
};
width = 359;
}
);
note = H;
unicode = 0048;
},
{
glyphname = I;
lastChange = "2022-03-02 02:51:37 +0000";
layers = (
{
layerId = "2018A826-CC5C-461A-95E5-9D849642E9B7";
paths = (
{
closed = 1;
nodes = (
"55 -6 LINE SMOOTH",
"83 0 OFFCURVE",
"99 3 OFFCURVE",
"103 3 CURVE SMOOTH",
"148 2 LINE",
"158 1 LINE",
"169 1 LINE SMOOTH",
"181 1 OFFCURVE",
"187 11 OFFCURVE",
"187 30 CURVE SMOOTH",
"187 43 OFFCURVE",
"183 50 OFFCURVE",
"174 50 CURVE SMOOTH",
"171 50 OFFCURVE",
"168 51 OFFCURVE",
"163 52 CURVE SMOOTH",
"158 53 OFFCURVE",
"153 53 OFFCURVE",
"150 53 CURVE SMOOTH",
"119 50 LINE",
"122 56 OFFCURVE",
"124 64 OFFCURVE",
"126 73 CURVE SMOOTH",
"139 116 OFFCURVE",
"148 165 OFFCURVE",
"153 220 CURVE SMOOTH",
"159 288 OFFCURVE",
"167 359 OFFCURVE",
"176 433 CURVE SMOOTH",
"181 472 OFFCURVE",
"184 513 OFFCURVE",
"186 558 CURVE",
"187 562 LINE",
"188 565 LINE",
"200 566 LINE",
"213 566 LINE SMOOTH",
"217 566 OFFCURVE",
"223 565 OFFCURVE",
"231 563 CURVE SMOOTH",
"238 560 OFFCURVE",
"245 559 OFFCURVE",
"250 559 CURVE SMOOTH",
"260 559 OFFCURVE",
"265 568 OFFCURVE",
"265 587 CURVE SMOOTH",
"265 602 OFFCURVE",
"261 610 OFFCURVE",
"252 610 CURVE SMOOTH",
"249 610 OFFCURVE",
"243 611 OFFCURVE",
"236 613 CURVE SMOOTH",
"229 614 OFFCURVE",
"222 615 OFFCURVE",
"216 615 CURVE SMOOTH",
"199 615 LINE",
"185 614 LINE",
"180 616 OFFCURVE",
"177 616 OFFCURVE",
"174 615 CURVE",
"132 615 LINE SMOOTH",
"127 615 OFFCURVE",
"120 614 OFFCURVE",
"113 613 CURVE SMOOTH",
"106 611 OFFCURVE",
"100 610 OFFCURVE",
"96 610 CURVE SMOOTH",
"85 610 OFFCURVE",
"79 600 OFFCURVE",
"79 580 CURVE SMOOTH",
"79 566 OFFCURVE",
"83 559 OFFCURVE",
"91 559 CURVE SMOOTH",
"98 559 OFFCURVE",
"105 560 OFFCURVE",
"112 563 CURVE SMOOTH",
"119 565 OFFCURVE",
"125 566 OFFCURVE",
"128 566 CURVE SMOOTH",
"135 566 OFFCURVE",
"143 565 OFFCURVE",
"154 564 CURVE",
"155 563 OFFCURVE",
"155 562 OFFCURVE",
"154 559 CURVE",
"153 529 OFFCURVE",
"150 487 OFFCURVE",
"145 434 CURVE SMOOTH",
"136 353 OFFCURVE",
"127 282 OFFCURVE",
"119 221 CURVE SMOOTH",
"111 168 OFFCURVE",
"104 123 OFFCURVE",
"97 87 CURVE",
"91 72 OFFCURVE",
"85 59 OFFCURVE",
"79 50 CURVE",
"76 50 OFFCURVE",
"72 49 OFFCURVE",
"67 47 CURVE SMOOTH",
"62 45 OFFCURVE",
"58 44 OFFCURVE",
"55 44 CURVE",
"7 33 LINE SMOOTH",
"-3 31 OFFCURVE",
"-8 23 OFFCURVE",
"-8 8 CURVE SMOOTH",
"-8 -8 OFFCURVE",
"-3 -16 OFFCURVE",
"6 -16 CURVE"
);
}
);
userData = {
assembly = "NPUSHB[ ]	/* 34 values pushed */\0121 83 83 64 84 2 64 61 37 33 31 24 22 9 7 4 66 59 57 43 29 22 2 79 77 75 73 4 71 41 1 1 43 70 \012SROUND[ ]	/* SuperRound */\012MDAP[1]	/* MoveDirectAbsPt */\012SHZ[1]	/* ShiftZoneByLastPoint */\012RTG[ ]	/* RoundToGrid */\012SVTCA[0]	/* SetFreedomAndProjectionVectorToAxis */\012MIAP[1]	/* MoveIndirectAbsPt */\012MDAP[1]	/* MoveDirectAbsPt */\012SLOOP[ ]	/* SetLoopVariable */\012ALIGNRP[ ]	/* AlignRelativePt */\012SVTCA[1]	/* SetFreedomAndProjectionVectorToAxis */\012MDAP[0]	/* MoveDirectAbsPt */\012MDAP[0]	/* MoveDirectAbsPt */\012MDAP[0]	/* MoveDirectAbsPt */\012MDAP[0]	/* MoveDirectAbsPt */\012MDAP[0]	/* MoveDirectAbsPt */\012MDAP[0]	/* MoveDirectAbsPt */\012MDAP[0]	/* MoveDirectAbsPt */\012SVTCA[0]	/* SetFreedomAndProjectionVectorToAxis */\012MDAP[0]	/* MoveDirectAbsPt */\012MDAP[0]	/* MoveDirectAbsPt */\012MDAP[0]	/* MoveDirectAbsPt */\012MDAP[0]	/* MoveDirectAbsPt */\012MDAP[0]	/* MoveDirectAbsPt */\012MDAP[0]	/* MoveDirectAbsPt */\012MDAP[0]	/* MoveDirectAbsPt */\012MDAP[0]	/* MoveDirectAbsPt */\012MDAP[0]	/* MoveDirectAbsPt */\012MDAP[0]	/* MoveDirectAbsPt */\012IUP[1]	/* InterpolateUntPts */\012IUP[0]	/* InterpolateUntPts */\012SVTCA[1]	/* SetFreedomAndProjectionVectorToAxis */\012MD[0]	/* MeasureDistance */\012ROUND[00]	/* Round */\012PUSHW[ ]	/* 2 values pushed */\01243 83 \012MD[0]	/* MeasureDistance */\012ROUND[00]	/* Round */\012SUB[ ]	/* Subtract */\012PUSHB[ ]	/* 1 value pushed */\01264 \012GT[ ]	/* GreaterThan */\012IF[ ]	/* If */\012SHPIX[ ]	/* ShiftZoneByPixel */\012SRP1[ ]	/* SetRefPoint1 */\012SHZ[1]	/* ShiftZoneByLastPoint */\012PUSHW[ ]	/* 2 values pushed */\01283 -64 \012SHPIX[ ]	/* ShiftZoneByPixel */\012EIF[ ]	/* EndIf */";
};
width = 225;
}
);
note = I;
unicode = 0049;
},
{
glyphname = J;
lastChange = "2022-03-02 02:51:37 +0000";
layers = (
{
layerId = "2018A826-CC5C-461A-95E5-9D849642E9B7";
paths = (
{
closed = 1;
nodes = (
"153 -71 OFFCURVE",
"174 -57 OFFCURVE",
"195 -34 CURVE SMOOTH",
"208 -19 OFFCURVE",
"219 2 OFFCURVE",
"228 28 CURVE SMOOTH",
"235 52 OFFCURVE",
"242 76 OFFCURVE",
"249 100 CURVE SMOOTH",
"259 128 OFFCURVE",
"267 156 OFFCURVE",
"273 185 CURVE SMOOTH",
"288 269 LINE SMOOTH",
"299 326 OFFCURVE",
"307 388 OFFCURVE",
"314 453 CURVE SMOOTH",
"321 528 LINE SMOOTH",
"322 546 OFFCURVE",
"317 555 OFFCURVE",
"305 555 CURVE SMOOTH",
"294 555 OFFCURVE",
"288 546 OFFCURVE",
"287 529 CURVE SMOOTH",
"284 490 OFFCURVE",
"281 465 OFFCURVE",
"280 456 CURVE SMOOTH",
"273 388 OFFCURVE",
"264 328 OFFCURVE",
"255 277 CURVE SMOOTH",
"240 195 OFFCURVE",
"229 142 OFFCURVE",
"221 117 CURVE SMOOTH",
"201 51 LINE SMOOTH",
"194 32 OFFCURVE",
"185 16 OFFCURVE",
"175 5 CURVE SMOOTH",
"156 -16 OFFCURVE",
"140 -26 OFFCURVE",
"127 -26 CURVE SMOOTH",
"114 -26 OFFCURVE",
"100 -18 OFFCURVE",
"84 -2 CURVE SMOOTH",
"61 21 OFFCURVE",
"54 52 OFFCURVE",
"45 83 CURVE SMOOTH",
"43 92 OFFCURVE",
"39 97 OFFCURVE",
"33 97 CURVE SMOOTH",
"23 97 OFFCURVE",
"14 84 OFFCURVE",
"14 68 CURVE SMOOTH",
"14 51 OFFCURVE",
"19 34 OFFCURVE",
"25 17 CURVE SMOOTH",
"33 -6 OFFCURVE",
"45 -26 OFFCURVE",
"60 -41 CURVE SMOOTH",
"63 -44 LINE SMOOTH",
"87 -68 OFFCURVE",
"110 -78 OFFCURVE",
"133 -75 CURVE SMOOTH",
"131 -75 LINE"
);
},
{
closed = 1;
nodes = (
"191 502 OFFCURVE",
"194 503 OFFCURVE",
"196 505 CURVE SMOOTH",
"208 518 LINE",
"225 533 OFFCURVE",
"236 541 OFFCURVE",
"240 543 CURVE SMOOTH",
"260 550 OFFCURVE",
"273 555 OFFCURVE",
"279 556 CURVE SMOOTH",
"297 562 OFFCURVE",
"312 565 OFFCURVE",
"325 565 CURVE",
"325 564 LINE",
"331 568 LINE",
"339 569 OFFCURVE",
"347 571 OFFCURVE",
"355 574 CURVE SMOOTH",
"362 577 OFFCURVE",
"368 578 OFFCURVE",
"373 578 CURVE SMOOTH",
"380 578 OFFCURVE",
"387 575 OFFCURVE",
"394 570 CURVE SMOOTH",
"408 560 OFFCURVE",
"417 554 OFFCURVE",
"422 554 CURVE SMOOTH",
"432 554 OFFCURVE",
"439 569 OFFCURVE",
"439 583 CURVE SMOOTH",
"439 593 OFFCURVE",
"436 600 OFFCURVE",
"429 604 CURVE SMOOTH",
"406 617 LINE SMOOTH",
"396 623 OFFCURVE",
"386 626 OFFCURVE",
"375 626 CURVE SMOOTH",
"368 626 OFFCURVE",
"359 624 OFFCURVE",
"348 619 CURVE SMOOTH",
"337 614 OFFCURVE",
"329 611 OFFCURVE",
"324 611 CURVE SMOOTH",
"300 611 OFFCURVE",
"285 610 OFFCURVE",
"280 609 CURVE SMOOTH",
"263 604 OFFCURVE",
"247 597 OFFCURVE",
"232 587 CURVE",
"190 554 LINE",
"190 555 LINE",
"181 546 OFFCURVE",
"176 536 OFFCURVE",
"176 524 CURVE SMOOTH",
"176 512 OFFCURVE",
"182 502 OFFCURVE",
"189 502 CURVE SMOOTH"
);
}
);
userData = {
assembly = "NPUSHB[ ]	/* 35 values pushed */\0121 90 90 64 91 1 86 72 65 62 61 26 25 20 13 12 8 4 62 61 54 53 39 26 25 23 13 12 1 35 54 53 1 61 70 \012SROUND[ ]	/* SuperRound */\012MDAP[1]	/* MoveDirectAbsPt */\012SHZ[1]	/* ShiftZoneByLastPoint */\012RTG[ ]	/* RoundToGrid */\012SVTCA[0]	/* SetFreedomAndProjectionVectorToAxis */\012MDAP[1]	/* MoveDirectAbsPt */\012ALIGNRP[ ]	/* AlignRelativePt */\012MDAP[1]	/* MoveDirectAbsPt */\012SVTCA[1]	/* SetFreedomAndProjectionVectorToAxis */\012MDAP[0]	/* MoveDirectAbsPt */\012MDAP[0]	/* MoveDirectAbsPt */\012MDAP[0]	/* MoveDirectAbsPt */\012MDAP[0]	/* MoveDirectAbsPt */\012MDAP[0]	/* MoveDirectAbsPt */\012MDAP[0]	/* MoveDirectAbsPt */\012MDAP[0]	/* MoveDirectAbsPt */\012MDAP[0]	/* MoveDirectAbsPt */\012MDAP[0]	/* MoveDirectAbsPt */\012MDAP[0]	/* MoveDirectAbsPt */\012MDAP[0]	/* MoveDirectAbsPt */\012SVTCA[0]	/* SetFreedomAndProjectionVectorToAxis */\012MDAP[0]	/* MoveDirectAbsPt */\012MDAP[0]	/* MoveDirectAbsPt */\012MDAP[0]	/* MoveDirectAbsPt */\012MDAP[0]	/* MoveDirectAbsPt */\012MDAP[0]	/* MoveDirectAbsPt */\012MDAP[0]	/* MoveDirectAbsPt */\012MDAP[0]	/* MoveDirectAbsPt */\012MDAP[0]	/* MoveDirectAbsPt */\012MDAP[0]	/* MoveDirectAbsPt */\012MDAP[0]	/* MoveDirectAbsPt */\012MDAP[0]	/* MoveDirectAbsPt */\012MDAP[0]	/* MoveDirectAbsPt */\012IUP[1]	/* InterpolateUntPts */\012IUP[0]	/* InterpolateUntPts */\012SVTCA[1]	/* SetFreedomAndProjectionVectorToAxis */\012MD[0]	/* MeasureDistance */\012ROUND[00]	/* Round */\012PUSHW[ ]	/* 2 values pushed */\01261 90 \012MD[0]	/* MeasureDistance */\012ROUND[00]	/* Round */\012SUB[ ]	/* Subtract */\012PUSHB[ ]	/* 1 value pushed */\01264 \012GT[ ]	/* GreaterThan */\012IF[ ]	/* If */\012SHPIX[ ]	/* ShiftZoneByPixel */\012SRP1[ ]	/* SetRefPoint1 */\012SHZ[1]	/* ShiftZoneByLastPoint */\012PUSHW[ ]	/* 2 values pushed */\01290 -64 \012SHPIX[ ]	/* ShiftZoneByPixel */\012EIF[ ]	/* EndIf */";
};
width = 379;
}
);
note = J;
unicode = 004A;
},
{
glyphname = K;
lastChange = "2022-03-02 02:51:37 +0000";
layers = (
{
layerId = "2018A826-CC5C-461A-95E5-9D849642E9B7";
paths = (
{
closed = 1;
nodes = (
"343 -27 OFFCURVE",
"349 -18 OFFCURVE",
"349 -1 CURVE SMOOTH",
"349 6 OFFCURVE",
"347 11 OFFCURVE",
"344 15 CURVE",
"345 15 LINE",
"320 44 OFFCURVE",
"301 71 OFFCURVE",
"286 94 CURVE SMOOTH",
"267 124 OFFCURVE",
"255 144 OFFCURVE",
"251 154 CURVE SMOOTH",
"227 214 LINE",
"202 255 LINE SMOOTH",
"196 265 OFFCURVE",
"192 272 OFFCURVE",
"192 275 CURVE",
"193 276 LINE",
"200 288 OFFCURVE",
"204 295 OFFCURVE",
"206 296 CURVE",
"225 318 OFFCURVE",
"261 354 OFFCURVE",
"314 403 CURVE SMOOTH",
"344 431 OFFCURVE",
"363 450 OFFCURVE",
"371 460 CURVE",
"394 483 OFFCURVE",
"408 501 OFFCURVE",
"415 516 CURVE SMOOTH",
"430 549 OFFCURVE",
"438 569 OFFCURVE",
"438 577 CURVE SMOOTH",
"438 592 OFFCURVE",
"433 599 OFFCURVE",
"423 599 CURVE SMOOTH",
"416 599 OFFCURVE",
"411 594 OFFCURVE",
"407 584 CURVE SMOOTH",
"399 566 OFFCURVE",
"393 553 OFFCURVE",
"390 544 CURVE",
"375 523 OFFCURVE",
"363 509 OFFCURVE",
"355 500 CURVE SMOOTH",
"329 473 OFFCURVE",
"310 454 OFFCURVE",
"297 444 CURVE",
"257 404 OFFCURVE",
"223 369 OFFCURVE",
"195 339 CURVE SMOOTH",
"179 319 OFFCURVE",
"163 300 OFFCURVE",
"147 282 CURVE",
"146 275 LINE SMOOTH",
"146 270 OFFCURVE",
"149 266 OFFCURVE",
"155 263 CURVE SMOOTH",
"161 260 OFFCURVE",
"164 257 OFFCURVE",
"165 254 CURVE",
"202 167 OFFCURVE",
"222 122 OFFCURVE",
"225 117 CURVE SMOOTH",
"243 91 OFFCURVE",
"256 72 OFFCURVE",
"263 59 CURVE",
"323 -23 LINE",
"326 -26 OFFCURVE",
"329 -27 OFFCURVE",
"332 -27 CURVE SMOOTH"
);
},
{
closed = 1;
nodes = (
"36 -15 OFFCURVE",
"38 -14 OFFCURVE",
"41 -11 CURVE SMOOTH",
"58 6 LINE SMOOTH",
"64 11 OFFCURVE",
"70 19 OFFCURVE",
"76 28 CURVE SMOOTH",
"85 42 OFFCURVE",
"92 59 OFFCURVE",
"97 79 CURVE SMOOTH",
"109 129 LINE SMOOTH",
"118 180 OFFCURVE",
"124 218 OFFCURVE",
"126 243 CURVE SMOOTH",
"132 311 OFFCURVE",
"136 360 OFFCURVE",
"138 389 CURVE SMOOTH",
"153 508 LINE",
"160 571 LINE",
"159 570 LINE",
"161 589 OFFCURVE",
"156 598 OFFCURVE",
"144 598 CURVE SMOOTH",
"133 598 OFFCURVE",
"126 589 OFFCURVE",
"125 572 CURVE SMOOTH",
"119 510 LINE SMOOTH",
"114 463 OFFCURVE",
"110 424 OFFCURVE",
"106 391 CURVE SMOOTH",
"100 322 OFFCURVE",
"96 273 OFFCURVE",
"95 244 CURVE",
"87 195 OFFCURVE",
"80 161 OFFCURVE",
"75 141 CURVE SMOOTH",
"68 109 OFFCURVE",
"63 77 OFFCURVE",
"51 57 CURVE",
"41 45 OFFCURVE",
"33 36 OFFCURVE",
"27 31 CURVE SMOOTH",
"21 25 OFFCURVE",
"18 18 OFFCURVE",
"18 9 CURVE SMOOTH",
"18 -7 OFFCURVE",
"23 -15 OFFCURVE",
"33 -15 CURVE SMOOTH"
);
}
);
userData = {
assembly = "NPUSHB[ ]	/* 27 values pushed */\0121 89 89 64 90 49 88 51 19 18 70 51 49 33 21 19 18 8 86 47 68 1 23 1 1 70 70 \012SROUND[ ]	/* SuperRound */\012MDAP[1]	/* MoveDirectAbsPt */\012SHZ[1]	/* ShiftZoneByLastPoint */\012RTG[ ]	/* RoundToGrid */\012SVTCA[0]	/* SetFreedomAndProjectionVectorToAxis */\012MIAP[1]	/* MoveIndirectAbsPt */\012MIAP[1]	/* MoveIndirectAbsPt */\012MDAP[1]	/* MoveDirectAbsPt */\012ALIGNRP[ ]	/* AlignRelativePt */\012SVTCA[1]	/* SetFreedomAndProjectionVectorToAxis */\012MDAP[0]	/* MoveDirectAbsPt */\012MDAP[0]	/* MoveDirectAbsPt */\012MDAP[0]	/* MoveDirectAbsPt */\012MDAP[0]	/* MoveDirectAbsPt */\012MDAP[0]	/* MoveDirectAbsPt */\012MDAP[0]	/* MoveDirectAbsPt */\012MDAP[0]	/* MoveDirectAbsPt */\012MDAP[0]	/* MoveDirectAbsPt */\012SVTCA[0]	/* SetFreedomAndProjectionVectorToAxis */\012MDAP[0]	/* MoveDirectAbsPt */\012MDAP[0]	/* MoveDirectAbsPt */\012MDAP[0]	/* MoveDirectAbsPt */\012MDAP[0]	/* MoveDirectAbsPt */\012IUP[1]	/* InterpolateUntPts */\012IUP[0]	/* InterpolateUntPts */\012SVTCA[1]	/* SetFreedomAndProjectionVectorToAxis */\012MD[0]	/* MeasureDistance */\012ROUND[00]	/* Round */\012PUSHW[ ]	/* 2 values pushed */\01270 89 \012MD[0]	/* MeasureDistance */\012ROUND[00]	/* Round */\012SUB[ ]	/* Subtract */\012PUSHB[ ]	/* 1 value pushed */\01264 \012GT[ ]	/* GreaterThan */\012IF[ ]	/* If */\012SHPIX[ ]	/* ShiftZoneByPixel */\012SRP1[ ]	/* SetRefPoint1 */\012SHZ[1]	/* ShiftZoneByLastPoint */\012PUSHW[ ]	/* 2 values pushed */\01289 -64 \012SHPIX[ ]	/* ShiftZoneByPixel */\012EIF[ ]	/* EndIf */";
};
width = 351;
}
);
note = K;
unicode = 004B;
},
{
glyphname = L;
lastChange = "2022-03-02 02:51:37 +0000";
layers = (
{
layerId = "2018A826-CC5C-461A-95E5-9D849642E9B7";
paths = (
{
closed = 1;
nodes = (
"127 -16 OFFCURVE",
"150 -14 OFFCURVE",
"165 -15 CURVE SMOOTH",
"172 -15 OFFCURVE",
"183 -16 OFFCURVE",
"198 -18 CURVE SMOOTH",
"211 -19 OFFCURVE",
"222 -20 OFFCURVE",
"231 -20 CURVE SMOOTH",
"248 -20 OFFCURVE",
"271 -16 OFFCURVE",
"300 -9 CURVE SMOOTH",
"365 5 LINE SMOOTH",
"381 8 OFFCURVE",
"392 13 OFFCURVE",
"399 18 CURVE SMOOTH",
"409 26 OFFCURVE",
"414 40 OFFCURVE",
"414 60 CURVE SMOOTH",
"414 71 OFFCURVE",
"411 77 OFFCURVE",
"404 77 CURVE SMOOTH",
"400 77 OFFCURVE",
"395 75 OFFCURVE",
"389 70 CURVE SMOOTH",
"374 59 OFFCURVE",
"344 50 OFFCURVE",
"297 44 CURVE SMOOTH",
"291 43 OFFCURVE",
"281 41 OFFCURVE",
"268 36 CURVE SMOOTH",
"256 32 OFFCURVE",
"246 30 OFFCURVE",
"238 30 CURVE SMOOTH",
"235 30 LINE SMOOTH",
"229 30 OFFCURVE",
"218 31 OFFCURVE",
"201 33 CURVE SMOOTH",
"167 34 LINE",
"141 30 OFFCURVE",
"123 26 OFFCURVE",
"114 22 CURVE",
"107 35 OFFCURVE",
"104 41 OFFCURVE",
"104 39 CURVE",
"103 43 OFFCURVE",
"102 49 OFFCURVE",
"102 57 CURVE SMOOTH",
"102 74 OFFCURVE",
"105 100 OFFCURVE",
"109 135 CURVE SMOOTH",
"122 207 OFFCURVE",
"132 259 OFFCURVE",
"140 291 CURVE SMOOTH",
"144 310 OFFCURVE",
"152 338 OFFCURVE",
"163 373 CURVE SMOOTH",
"174 406 OFFCURVE",
"181 435 OFFCURVE",
"186 460 CURVE SMOOTH",
"197 526 OFFCURVE",
"205 574 OFFCURVE",
"209 603 CURVE SMOOTH",
"209 604 LINE SMOOTH",
"211 621 OFFCURVE",
"206 629 OFFCURVE",
"194 629 CURVE SMOOTH",
"182 629 OFFCURVE",
"175 621 OFFCURVE",
"172 604 CURVE SMOOTH",
"162 542 OFFCURVE",
"155 498 OFFCURVE",
"152 472 CURVE",
"133 393 OFFCURVE",
"119 336 OFFCURVE",
"110 301 CURVE SMOOTH",
"90 222 LINE SMOOTH",
"83 193 OFFCURVE",
"78 164 OFFCURVE",
"75 137 CURVE SMOOTH",
"67 57 LINE",
"67 43 OFFCURVE",
"68 30 OFFCURVE",
"71 17 CURVE SMOOTH",
"71 18 LINE",
"76 4 OFFCURVE",
"80 -5 OFFCURVE",
"83 -9 CURVE",
"82 -17 OFFCURVE",
"86 -21 OFFCURVE",
"96 -21 CURVE"
);
}
);
userData = {
assembly = "NPUSHB[ ]	/* 28 values pushed */\0121 63 63 64 64 61 59 52 48 46 17 16 61 44 34 33 19 17 16 31 10 1 12 6 1 1 19 70 \012SROUND[ ]	/* SuperRound */\012MDAP[1]	/* MoveDirectAbsPt */\012SHZ[1]	/* ShiftZoneByLastPoint */\012RTG[ ]	/* RoundToGrid */\012SVTCA[0]	/* SetFreedomAndProjectionVectorToAxis */\012MIAP[1]	/* MoveIndirectAbsPt */\012ALIGNRP[ ]	/* AlignRelativePt */\012MIAP[1]	/* MoveIndirectAbsPt */\012MDAP[1]	/* MoveDirectAbsPt */\012SVTCA[1]	/* SetFreedomAndProjectionVectorToAxis */\012MDAP[0]	/* MoveDirectAbsPt */\012MDAP[0]	/* MoveDirectAbsPt */\012MDAP[0]	/* MoveDirectAbsPt */\012MDAP[0]	/* MoveDirectAbsPt */\012MDAP[0]	/* MoveDirectAbsPt */\012MDAP[0]	/* MoveDirectAbsPt */\012MDAP[0]	/* MoveDirectAbsPt */\012SVTCA[0]	/* SetFreedomAndProjectionVectorToAxis */\012MDAP[0]	/* MoveDirectAbsPt */\012MDAP[0]	/* MoveDirectAbsPt */\012MDAP[0]	/* MoveDirectAbsPt */\012MDAP[0]	/* MoveDirectAbsPt */\012MDAP[0]	/* MoveDirectAbsPt */\012MDAP[0]	/* MoveDirectAbsPt */\012IUP[1]	/* InterpolateUntPts */\012IUP[0]	/* InterpolateUntPts */\012SVTCA[1]	/* SetFreedomAndProjectionVectorToAxis */\012MD[0]	/* MeasureDistance */\012ROUND[00]	/* Round */\012PUSHW[ ]	/* 2 values pushed */\01219 63 \012MD[0]	/* MeasureDistance */\012ROUND[00]	/* Round */\012SUB[ ]	/* Subtract */\012PUSHB[ ]	/* 1 value pushed */\01264 \012GT[ ]	/* GreaterThan */\012IF[ ]	/* If */\012SHPIX[ ]	/* ShiftZoneByPixel */\012SRP1[ ]	/* SetRefPoint1 */\012SHZ[1]	/* ShiftZoneByLastPoint */\012PUSHW[ ]	/* 2 values pushed */\01263 -64 \012SHPIX[ ]	/* ShiftZoneByPixel */\012EIF[ ]	/* EndIf */";
};
width = 431;
}
);
note = L;
unicode = 004C;
},
{
glyphname = M;
lastChange = "2022-03-02 02:51:37 +0000";
layers = (
{
layerId = "2018A826-CC5C-461A-95E5-9D849642E9B7";
paths = (
{
closed = 1;
nodes = (
"88 -32 OFFCURVE",
"93 -24 OFFCURVE",
"95 -9 CURVE",
"96 -9 LINE",
"103 30 OFFCURVE",
"108 58 OFFCURVE",
"111 75 CURVE SMOOTH",
"118 112 OFFCURVE",
"124 139 OFFCURVE",
"128 156 CURVE",
"137 227 OFFCURVE",
"143 277 OFFCURVE",
"146 308 CURVE",
"148 308 LINE",
"150 319 OFFCURVE",
"153 334 OFFCURVE",
"157 352 CURVE SMOOTH",
"161 370 OFFCURVE",
"164 385 OFFCURVE",
"166 398 CURVE SMOOTH",
"175 438 OFFCURVE",
"181 467 OFFCURVE",
"186 485 CURVE",
"186 478 OFFCURVE",
"193 429 OFFCURVE",
"198 389 CURVE SMOOTH",
"201 367 OFFCURVE",
"205 348 OFFCURVE",
"211 332 CURVE SMOOTH",
"223 301 OFFCURVE",
"239 273 OFFCURVE",
"260 247 CURVE SMOOTH",
"264 242 LINE",
"277 229 LINE SMOOTH",
"284 222 OFFCURVE",
"292 219 OFFCURVE",
"299 219 CURVE SMOOTH",
"307 219 OFFCURVE",
"322 232 OFFCURVE",
"343 257 CURVE SMOOTH",
"389 314 LINE SMOOTH",
"418 347 OFFCURVE",
"440 376 OFFCURVE",
"456 403 CURVE SMOOTH",
"475 435 OFFCURVE",
"493 468 OFFCURVE",
"510 501 CURVE",
"511 501 LINE",
"516 520 OFFCURVE",
"519 529 OFFCURVE",
"520 529 CURVE",
"521 528 OFFCURVE",
"523 527 OFFCURVE",
"524 524 CURVE",
"516 441 LINE SMOOTH",
"512 384 OFFCURVE",
"510 343 OFFCURVE",
"509 319 CURVE",
"498 231 OFFCURVE",
"495 176 OFFCURVE",
"495 155 CURVE SMOOTH",
"495 132 OFFCURVE",
"496 101 OFFCURVE",
"498 60 CURVE SMOOTH",
"501 37 OFFCURVE",
"503 21 OFFCURVE",
"506 11 CURVE SMOOTH",
"507 7 OFFCURVE",
"510 5 OFFCURVE",
"516 5 CURVE SMOOTH",
"531 5 OFFCURVE",
"538 12 OFFCURVE",
"538 25 CURVE SMOOTH",
"538 27 OFFCURVE",
"538 30 OFFCURVE",
"537 33 CURVE",
"530 75 LINE SMOOTH",
"529 83 OFFCURVE",
"528 95 OFFCURVE",
"528 112 CURVE SMOOTH",
"528 129 OFFCURVE",
"529 150 OFFCURVE",
"530 175 CURVE SMOOTH",
"534 256 OFFCURVE",
"538 303 OFFCURVE",
"541 315 CURVE",
"546 382 OFFCURVE",
"549 424 OFFCURVE",
"549 443 CURVE SMOOTH",
"549 444 LINE SMOOTH",
"549 449 OFFCURVE",
"551 460 OFFCURVE",
"554 476 CURVE SMOOTH",
"557 492 OFFCURVE",
"559 505 OFFCURVE",
"559 515 CURVE SMOOTH",
"559 528 OFFCURVE",
"557 540 OFFCURVE",
"552 551 CURVE SMOOTH",
"542 576 OFFCURVE",
"533 588 OFFCURVE",
"525 588 CURVE SMOOTH",
"520 588 OFFCURVE",
"514 585 OFFCURVE",
"507 580 CURVE",
"510 579 LINE",
"504 573 OFFCURVE",
"499 563 OFFCURVE",
"494 548 CURVE SMOOTH",
"489 536 OFFCURVE",
"486 530 OFFCURVE",
"485 530 CURVE",
"484 529 LINE",
"459 478 OFFCURVE",
"443 447 OFFCURVE",
"435 434 CURVE SMOOTH",
"406 395 OFFCURVE",
"385 368 OFFCURVE",
"371 351 CURVE SMOOTH",
"355 331 OFFCURVE",
"331 303 OFFCURVE",
"299 267 CURVE",
"284 286 LINE SMOOTH",
"263 309 OFFCURVE",
"247 337 OFFCURVE",
"238 370 CURVE SMOOTH",
"233 387 OFFCURVE",
"228 418 OFFCURVE",
"221 465 CURVE SMOOTH",
"220 475 OFFCURVE",
"218 495 OFFCURVE",
"215 526 CURVE SMOOTH",
"213 551 OFFCURVE",
"210 574 OFFCURVE",
"206 593 CURVE SMOOTH",
"201 620 OFFCURVE",
"195 642 OFFCURVE",
"190 659 CURVE SMOOTH",
"187 668 OFFCURVE",
"183 672 OFFCURVE",
"178 672 CURVE SMOOTH",
"167 672 OFFCURVE",
"162 664 OFFCURVE",
"162 648 CURVE SMOOTH",
"162 644 OFFCURVE",
"162 640 OFFCURVE",
"163 637 CURVE SMOOTH",
"165 620 OFFCURVE",
"169 599 OFFCURVE",
"176 575 CURVE",
"181 537 LINE",
"170 543 OFFCURVE",
"163 536 OFFCURVE",
"159 516 CURVE SMOOTH",
"147 466 OFFCURVE",
"138 430 OFFCURVE",
"131 407 CURVE",
"115 312 LINE SMOOTH",
"106 243 OFFCURVE",
"99 194 OFFCURVE",
"96 164 CURVE",
"89 129 OFFCURVE",
"83 103 OFFCURVE",
"79 86 CURVE SMOOTH",
"64 1 LINE SMOOTH",
"61 -21 OFFCURVE",
"66 -32 OFFCURVE",
"79 -32 CURVE SMOOTH"
);
}
);
userData = {
assembly = "NPUSHB[ ]	/* 41 values pushed */\0121 121 121 64 122 2 119 105 71 70 59 58 53 41 33 32 30 16 117 116 89 83 71 70 28 22 14 12 10 6 5 2 91 68 1 66 65 1 1 70 70 \012SROUND[ ]	/* SuperRound */\012MDAP[1]	/* MoveDirectAbsPt */\012SHZ[1]	/* ShiftZoneByLastPoint */\012RTG[ ]	/* RoundToGrid */\012SVTCA[0]	/* SetFreedomAndProjectionVectorToAxis */\012MIAP[1]	/* MoveIndirectAbsPt */\012ALIGNRP[ ]	/* AlignRelativePt */\012MIAP[1]	/* MoveIndirectAbsPt */\012MDAP[1]	/* MoveDirectAbsPt */\012SVTCA[1]	/* SetFreedomAndProjectionVectorToAxis */\012MDAP[0]	/* MoveDirectAbsPt */\012MDAP[0]	/* MoveDirectAbsPt */\012MDAP[0]	/* MoveDirectAbsPt */\012MDAP[0]	/* MoveDirectAbsPt */\012MDAP[0]	/* MoveDirectAbsPt */\012MDAP[0]	/* MoveDirectAbsPt */\012MDAP[0]	/* MoveDirectAbsPt */\012MDAP[0]	/* MoveDirectAbsPt */\012MDAP[0]	/* MoveDirectAbsPt */\012MDAP[0]	/* MoveDirectAbsPt */\012MDAP[0]	/* MoveDirectAbsPt */\012MDAP[0]	/* MoveDirectAbsPt */\012MDAP[0]	/* MoveDirectAbsPt */\012MDAP[0]	/* MoveDirectAbsPt */\012SVTCA[0]	/* SetFreedomAndProjectionVectorToAxis */\012MDAP[0]	/* MoveDirectAbsPt */\012MDAP[0]	/* MoveDirectAbsPt */\012MDAP[0]	/* MoveDirectAbsPt */\012MDAP[0]	/* MoveDirectAbsPt */\012MDAP[0]	/* MoveDirectAbsPt */\012MDAP[0]	/* MoveDirectAbsPt */\012MDAP[0]	/* MoveDirectAbsPt */\012MDAP[0]	/* MoveDirectAbsPt */\012MDAP[0]	/* MoveDirectAbsPt */\012MDAP[0]	/* MoveDirectAbsPt */\012MDAP[0]	/* MoveDirectAbsPt */\012MDAP[0]	/* MoveDirectAbsPt */\012IUP[1]	/* InterpolateUntPts */\012IUP[0]	/* InterpolateUntPts */\012SVTCA[1]	/* SetFreedomAndProjectionVectorToAxis */\012MD[0]	/* MeasureDistance */\012ROUND[00]	/* Round */\012PUSHW[ ]	/* 2 values pushed */\01270 121 \012MD[0]	/* MeasureDistance */\012ROUND[00]	/* Round */\012SUB[ ]	/* Subtract */\012PUSHB[ ]	/* 1 value pushed */\01264 \012GT[ ]	/* GreaterThan */\012IF[ ]	/* If */\012SHPIX[ ]	/* ShiftZoneByPixel */\012SRP1[ ]	/* SetRefPoint1 */\012SHZ[1]	/* ShiftZoneByLastPoint */\012PUSHW[ ]	/* 2 values pushed */\012121 -64 \012SHPIX[ ]	/* ShiftZoneByPixel */\012EIF[ ]	/* EndIf */";
};
width = 593;
}
);
note = M;
unicode = 004D;
},
{
glyphname = N;
lastChange = "2022-03-02 02:51:37 +0000";
layers = (
{
layerId = "2018A826-CC5C-461A-95E5-9D849642E9B7";
paths = (
{
closed = 1;
nodes = (
"351 -25 OFFCURVE",
"358 -17 OFFCURVE",
"359 -2 CURVE SMOOTH",
"362 26 OFFCURVE",
"364 47 OFFCURVE",
"366 60 CURVE SMOOTH",
"371 93 OFFCURVE",
"382 137 OFFCURVE",
"382 155 CURVE SMOOTH",
"382 167 OFFCURVE",
"400 274 OFFCURVE",
"404 305 CURVE SMOOTH",
"416 406 LINE SMOOTH",
"422 457 OFFCURVE",
"429 492 OFFCURVE",
"434 511 CURVE",
"433 511 OFFCURVE",
"435 521 OFFCURVE",
"438 541 CURVE SMOOTH",
"442 565 OFFCURVE",
"444 581 OFFCURVE",
"445 590 CURVE SMOOTH",
"446 609 OFFCURVE",
"441 618 OFFCURVE",
"429 618 CURVE SMOOTH",
"418 618 OFFCURVE",
"411 609 OFFCURVE",
"410 592 CURVE SMOOTH",
"409 580 OFFCURVE",
"406 553 OFFCURVE",
"403 535 CURVE SMOOTH",
"394 478 OFFCURVE",
"388 437 OFFCURVE",
"383 410 CURVE",
"372 306 LINE SMOOTH",
"365 238 OFFCURVE",
"354 189 OFFCURVE",
"348 159 CURVE",
"348 147 OFFCURVE",
"344 120 OFFCURVE",
"336 75 CURVE",
"329 95 OFFCURVE",
"324 108 OFFCURVE",
"321 115 CURVE SMOOTH",
"304 160 OFFCURVE",
"291 192 OFFCURVE",
"283 211 CURVE",
"268 270 OFFCURVE",
"260 304 OFFCURVE",
"248 342 CURVE SMOOTH",
"238 373 OFFCURVE",
"235 385 OFFCURVE",
"228 404 CURVE SMOOTH",
"191 511 LINE SMOOTH",
"173 562 OFFCURVE",
"163 588 OFFCURVE",
"162 590 CURVE SMOOTH",
"146 628 LINE SMOOTH",
"143 635 OFFCURVE",
"138 639 OFFCURVE",
"132 639 CURVE SMOOTH",
"121 639 OFFCURVE",
"115 631 OFFCURVE",
"113 616 CURVE SMOOTH",
"108 574 LINE SMOOTH",
"103 536 OFFCURVE",
"99 508 OFFCURVE",
"96 490 CURVE SMOOTH",
"89 444 OFFCURVE",
"84 411 OFFCURVE",
"82 390 CURVE SMOOTH",
"72 291 LINE SMOOTH",
"68 247 OFFCURVE",
"63 208 OFFCURVE",
"51 86 CURVE SMOOTH",
"48 55 OFFCURVE",
"44 32 OFFCURVE",
"41 17 CURVE SMOOTH",
"38 -3 OFFCURVE",
"43 -13 OFFCURVE",
"56 -13 CURVE SMOOTH",
"67 -13 OFFCURVE",
"73 -4 OFFCURVE",
"74 14 CURVE",
"86 85 LINE",
"94 180 OFFCURVE",
"97 213 OFFCURVE",
"102 242 CURVE SMOOTH",
"104 257 OFFCURVE",
"116 388 OFFCURVE",
"116 389 CURVE SMOOTH",
"121 434 OFFCURVE",
"125 467 OFFCURVE",
"127 488 CURVE SMOOTH",
"129 505 OFFCURVE",
"132 526 OFFCURVE",
"137 549 CURVE",
"162 485 LINE SMOOTH",
"176 449 OFFCURVE",
"211 333 OFFCURVE",
"219 309 CURVE SMOOTH",
"223 297 OFFCURVE",
"229 285 OFFCURVE",
"236 254 CURVE SMOOTH",
"241 225 OFFCURVE",
"248 201 OFFCURVE",
"255 182 CURVE SMOOTH",
"272 138 OFFCURVE",
"284 107 OFFCURVE",
"292 90 CURVE",
"329 -14 LINE",
"330 -21 OFFCURVE",
"334 -25 OFFCURVE",
"340 -25 CURVE SMOOTH"
);
}
);
userData = {
assembly = "NPUSHB[ ]	/* 33 values pushed */\0121 98 98 64 99 0 96 83 39 38 32 11 10 86 85 56 55 51 43 42 39 38 11 10 0 68 49 1 17 1 1 51 70 \012SROUND[ ]	/* SuperRound */\012MDAP[1]	/* MoveDirectAbsPt */\012SHZ[1]	/* ShiftZoneByLastPoint */\012RTG[ ]	/* RoundToGrid */\012SVTCA[0]	/* SetFreedomAndProjectionVectorToAxis */\012MIAP[1]	/* MoveIndirectAbsPt */\012MIAP[1]	/* MoveIndirectAbsPt */\012MDAP[1]	/* MoveDirectAbsPt */\012SVTCA[1]	/* SetFreedomAndProjectionVectorToAxis */\012MDAP[0]	/* MoveDirectAbsPt */\012MDAP[0]	/* MoveDirectAbsPt */\012MDAP[0]	/* MoveDirectAbsPt */\012MDAP[0]	/* MoveDirectAbsPt */\012MDAP[0]	/* MoveDirectAbsPt */\012MDAP[0]	/* MoveDirectAbsPt */\012MDAP[0]	/* MoveDirectAbsPt */\012MDAP[0]	/* MoveDirectAbsPt */\012MDAP[0]	/* MoveDirectAbsPt */\012MDAP[0]	/* MoveDirectAbsPt */\012MDAP[0]	/* MoveDirectAbsPt */\012MDAP[0]	/* MoveDirectAbsPt */\012SVTCA[0]	/* SetFreedomAndProjectionVectorToAxis */\012MDAP[0]	/* MoveDirectAbsPt */\012MDAP[0]	/* MoveDirectAbsPt */\012MDAP[0]	/* MoveDirectAbsPt */\012MDAP[0]	/* MoveDirectAbsPt */\012MDAP[0]	/* MoveDirectAbsPt */\012MDAP[0]	/* MoveDirectAbsPt */\012MDAP[0]	/* MoveDirectAbsPt */\012IUP[1]	/* InterpolateUntPts */\012IUP[0]	/* InterpolateUntPts */\012SVTCA[1]	/* SetFreedomAndProjectionVectorToAxis */\012MD[0]	/* MeasureDistance */\012ROUND[00]	/* Round */\012PUSHW[ ]	/* 2 values pushed */\01251 98 \012MD[0]	/* MeasureDistance */\012ROUND[00]	/* Round */\012SUB[ ]	/* Subtract */\012PUSHB[ ]	/* 1 value pushed */\01264 \012GT[ ]	/* GreaterThan */\012IF[ ]	/* If */\012SHPIX[ ]	/* ShiftZoneByPixel */\012SRP1[ ]	/* SetRefPoint1 */\012SHZ[1]	/* ShiftZoneByLastPoint */\012PUSHW[ ]	/* 2 values pushed */\01298 -64 \012SHPIX[ ]	/* ShiftZoneByPixel */\012EIF[ ]	/* EndIf */";
};
width = 485;
}
);
note = N;
unicode = 004E;
},
{
glyphname = Eng;
lastChange = "2022-03-02 02:51:37 +0000";
layers = (
{
layerId = "2018A826-CC5C-461A-95E5-9D849642E9B7";
paths = (
{
closed = 1;
nodes = (
"345 -25 OFFCURVE",
"352 -17 OFFCURVE",
"353 -2 CURVE SMOOTH",
"356 26 OFFCURVE",
"358 47 OFFCURVE",
"360 60 CURVE SMOOTH",
"363 80 OFFCURVE",
"396 285 OFFCURVE",
"398 305 CURVE SMOOTH",
"410 406 LINE SMOOTH",
"416 457 OFFCURVE",
"423 492 OFFCURVE",
"428 511 CURVE",
"427 511 OFFCURVE",
"429 521 OFFCURVE",
"432 541 CURVE SMOOTH",
"436 565 OFFCURVE",
"438 581 OFFCURVE",
"439 590 CURVE SMOOTH",
"440 609 OFFCURVE",
"435 618 OFFCURVE",
"423 618 CURVE SMOOTH",
"412 618 OFFCURVE",
"405 609 OFFCURVE",
"404 592 CURVE SMOOTH",
"403 580 OFFCURVE",
"400 553 OFFCURVE",
"397 535 CURVE SMOOTH",
"388 478 OFFCURVE",
"382 437 OFFCURVE",
"377 410 CURVE",
"366 306 LINE SMOOTH",
"364 290 OFFCURVE",
"337 113 OFFCURVE",
"330 75 CURVE",
"323 95 OFFCURVE",
"318 108 OFFCURVE",
"315 115 CURVE SMOOTH",
"298 160 OFFCURVE",
"285 192 OFFCURVE",
"277 211 CURVE",
"262 270 OFFCURVE",
"251 314 OFFCURVE",
"246 345 CURVE",
"237 366 OFFCURVE",
"229 385 OFFCURVE",
"222 404 CURVE SMOOTH",
"185 511 LINE SMOOTH",
"167 562 OFFCURVE",
"157 588 OFFCURVE",
"156 590 CURVE SMOOTH",
"140 628 LINE SMOOTH",
"137 635 OFFCURVE",
"132 639 OFFCURVE",
"126 639 CURVE SMOOTH",
"115 639 OFFCURVE",
"109 631 OFFCURVE",
"107 616 CURVE SMOOTH",
"102 574 LINE SMOOTH",
"97 536 OFFCURVE",
"93 508 OFFCURVE",
"90 490 CURVE SMOOTH",
"83 444 OFFCURVE",
"78 411 OFFCURVE",
"76 390 CURVE SMOOTH",
"66 291 LINE SMOOTH",
"62 248 OFFCURVE",
"55 212 OFFCURVE",
"55 185 CURVE SMOOTH",
"55 184 LINE",
"45 86 LINE SMOOTH",
"42 55 OFFCURVE",
"38 32 OFFCURVE",
"35 17 CURVE SMOOTH",
"32 -3 OFFCURVE",
"37 -13 OFFCURVE",
"50 -13 CURVE SMOOTH",
"61 -13 OFFCURVE",
"67 -4 OFFCURVE",
"68 14 CURVE",
"80 85 LINE",
"89 183 LINE",
"89 184 LINE SMOOTH",
"89 193 OFFCURVE",
"91 211 OFFCURVE",
"96 239 CURVE SMOOTH",
"100 267 OFFCURVE",
"102 287 OFFCURVE",
"103 298 CURVE",
"100 298 LINE",
"105 339 OFFCURVE",
"109 370 OFFCURVE",
"110 389 CURVE SMOOTH",
"115 434 OFFCURVE",
"119 467 OFFCURVE",
"121 488 CURVE SMOOTH",
"123 505 OFFCURVE",
"126 526 OFFCURVE",
"131 549 CURVE",
"156 485 LINE SMOOTH",
"175 437 OFFCURVE",
"184 400 OFFCURVE",
"191 377 CURVE SMOOTH",
"213 319 LINE SMOOTH",
"218 307 OFFCURVE",
"223 285 OFFCURVE",
"230 254 CURVE SMOOTH",
"235 225 OFFCURVE",
"242 201 OFFCURVE",
"249 182 CURVE SMOOTH",
"266 138 OFFCURVE",
"278 107 OFFCURVE",
"286 90 CURVE",
"323 -14 LINE",
"324 -21 OFFCURVE",
"328 -25 OFFCURVE",
"334 -25 CURVE SMOOTH"
);
},
{
closed = 1;
nodes = (
"215 -366 OFFCURVE",
"236 -352 OFFCURVE",
"257 -329 CURVE SMOOTH",
"270 -313 OFFCURVE",
"281 -293 OFFCURVE",
"290 -267 CURVE SMOOTH",
"296 -243 OFFCURVE",
"303 -219 OFFCURVE",
"311 -195 CURVE SMOOTH",
"321 -167 OFFCURVE",
"330 -138 OFFCURVE",
"335 -110 CURVE SMOOTH",
"350 -26 LINE SMOOTH",
"352 -14 OFFCURVE",
"351 -14 OFFCURVE",
"353 -2 CURVE",
"324 26 LINE",
"322 11 OFFCURVE",
"319 -4 OFFCURVE",
"317 -18 CURVE SMOOTH",
"302 -100 OFFCURVE",
"291 -153 OFFCURVE",
"283 -178 CURVE SMOOTH",
"263 -244 LINE SMOOTH",
"257 -264 OFFCURVE",
"247 -278 OFFCURVE",
"237 -290 CURVE SMOOTH",
"218 -310 OFFCURVE",
"202 -321 OFFCURVE",
"190 -321 CURVE SMOOTH",
"176 -321 OFFCURVE",
"162 -313 OFFCURVE",
"146 -297 CURVE SMOOTH",
"123 -274 OFFCURVE",
"116 -242 OFFCURVE",
"107 -212 CURVE SMOOTH",
"105 -202 OFFCURVE",
"101 -198 OFFCURVE",
"95 -198 CURVE SMOOTH",
"84 -198 OFFCURVE",
"73 -214 OFFCURVE",
"76 -233 CURVE SMOOTH",
"78 -247 OFFCURVE",
"81 -262 OFFCURVE",
"87 -278 CURVE SMOOTH",
"95 -301 OFFCURVE",
"106 -320 OFFCURVE",
"122 -336 CURVE SMOOTH",
"125 -339 LINE SMOOTH",
"149 -363 OFFCURVE",
"218 -370 OFFCURVE",
"195 -370 CURVE SMOOTH",
"193 -370 LINE"
);
}
);
width = 400;
}
);
unicode = 014A;
},
{
glyphname = O;
lastChange = "2022-03-02 02:51:37 +0000";
layers = (
{
layerId = "2018A826-CC5C-461A-95E5-9D849642E9B7";
paths = (
{
closed = 1;
nodes = (
"213 11 OFFCURVE",
"256 27 OFFCURVE",
"319 64 CURVE SMOOTH",
"380 99 OFFCURVE",
"423 131 OFFCURVE",
"449 160 CURVE SMOOTH",
"471 185 OFFCURVE",
"486 204 OFFCURVE",
"494 217 CURVE SMOOTH",
"512 249 OFFCURVE",
"521 285 OFFCURVE",
"521 324 CURVE SMOOTH",
"521 346 OFFCURVE",
"518 370 OFFCURVE",
"512 395 CURVE",
"511 395 LINE",
"501 438 OFFCURVE",
"491 469 OFFCURVE",
"482 488 CURVE SMOOTH",
"464 525 OFFCURVE",
"442 554 OFFCURVE",
"417 574 CURVE SMOOTH",
"401 587 OFFCURVE",
"389 595 OFFCURVE",
"380 599 CURVE SMOOTH",
"359 608 OFFCURVE",
"344 612 OFFCURVE",
"335 612 CURVE SMOOTH",
"330 612 OFFCURVE",
"326 612 OFFCURVE",
"321 611 CURVE",
"323 615 OFFCURVE",
"324 619 OFFCURVE",
"324 624 CURVE SMOOTH",
"324 640 OFFCURVE",
"319 648 OFFCURVE",
"309 648 CURVE SMOOTH",
"295 648 OFFCURVE",
"272 638 OFFCURVE",
"241 617 CURVE SMOOTH",
"230 610 OFFCURVE",
"219 599 OFFCURVE",
"206 586 CURVE SMOOTH",
"175 550 LINE SMOOTH",
"150 522 OFFCURVE",
"132 497 OFFCURVE",
"121 475 CURVE SMOOTH",
"72 383 OFFCURVE",
"48 298 OFFCURVE",
"48 220 CURVE SMOOTH",
"48 163 OFFCURVE",
"65 111 OFFCURVE",
"100 64 CURVE SMOOTH",
"121 36 OFFCURVE",
"151 19 OFFCURVE",
"189 14 CURVE SMOOTH"
);
},
{
closed = 1;
nodes = (
"164 68 OFFCURVE",
"139 81 OFFCURVE",
"122 103 CURVE SMOOTH",
"97 134 OFFCURVE",
"83 171 OFFCURVE",
"80 213 CURVE",
"81 239 OFFCURVE",
"87 276 OFFCURVE",
"100 323 CURVE SMOOTH",
"114 375 OFFCURVE",
"129 416 OFFCURVE",
"146 446 CURVE",
"167 477 OFFCURVE",
"183 498 OFFCURVE",
"194 510 CURVE SMOOTH",
"229 549 OFFCURVE",
"248 570 OFFCURVE",
"253 573 CURVE SMOOTH",
"262 579 OFFCURVE",
"273 584 OFFCURVE",
"288 589 CURVE",
"286 589 LINE",
"284 587 OFFCURVE",
"282 586 OFFCURVE",
"281 585 CURVE",
"276 580 OFFCURVE",
"273 573 OFFCURVE",
"273 562 CURVE SMOOTH",
"273 546 OFFCURVE",
"277 538 OFFCURVE",
"285 538 CURVE SMOOTH",
"287 538 OFFCURVE",
"289 538 OFFCURVE",
"290 539 CURVE SMOOTH",
"293 540 LINE",
"308 553 OFFCURVE",
"323 559 OFFCURVE",
"338 559 CURVE SMOOTH",
"346 559 OFFCURVE",
"357 556 OFFCURVE",
"370 550 CURVE SMOOTH",
"385 542 OFFCURVE",
"396 535 OFFCURVE",
"401 530 CURVE SMOOTH",
"422 513 OFFCURVE",
"440 488 OFFCURVE",
"455 457 CURVE SMOOTH",
"464 438 OFFCURVE",
"474 411 OFFCURVE",
"483 376 CURVE SMOOTH",
"488 359 OFFCURVE",
"490 343 OFFCURVE",
"490 328 CURVE SMOOTH",
"490 301 OFFCURVE",
"483 276 OFFCURVE",
"469 251 CURVE SMOOTH",
"465 244 OFFCURVE",
"452 226 OFFCURVE",
"430 196 CURVE SMOOTH",
"391 144 OFFCURVE",
"236 56 OFFCURVE",
"195 63 CURVE SMOOTH"
);
}
);
userData = {
assembly = "NPUSHB[ ]	/* 28 values pushed */\0121 82 82 64 83 2 73 59 58 52 47 38 30 28 0 80 69 59 54 28 26 14 2 24 10 1 14 70 \012SROUND[ ]	/* SuperRound */\012MDAP[1]	/* MoveDirectAbsPt */\012SHZ[1]	/* ShiftZoneByLastPoint */\012RTG[ ]	/* RoundToGrid */\012SVTCA[0]	/* SetFreedomAndProjectionVectorToAxis */\012MDAP[1]	/* MoveDirectAbsPt */\012MDAP[1]	/* MoveDirectAbsPt */\012SVTCA[1]	/* SetFreedomAndProjectionVectorToAxis */\012MDAP[0]	/* MoveDirectAbsPt */\012MDAP[0]	/* MoveDirectAbsPt */\012MDAP[0]	/* MoveDirectAbsPt */\012MDAP[0]	/* MoveDirectAbsPt */\012MDAP[0]	/* MoveDirectAbsPt */\012MDAP[0]	/* MoveDirectAbsPt */\012MDAP[0]	/* MoveDirectAbsPt */\012MDAP[0]	/* MoveDirectAbsPt */\012SVTCA[0]	/* SetFreedomAndProjectionVectorToAxis */\012MDAP[0]	/* MoveDirectAbsPt */\012MDAP[0]	/* MoveDirectAbsPt */\012MDAP[0]	/* MoveDirectAbsPt */\012MDAP[0]	/* MoveDirectAbsPt */\012MDAP[0]	/* MoveDirectAbsPt */\012MDAP[0]	/* MoveDirectAbsPt */\012MDAP[0]	/* MoveDirectAbsPt */\012MDAP[0]	/* MoveDirectAbsPt */\012MDAP[0]	/* MoveDirectAbsPt */\012IUP[1]	/* InterpolateUntPts */\012IUP[0]	/* InterpolateUntPts */\012SVTCA[1]	/* SetFreedomAndProjectionVectorToAxis */\012MD[0]	/* MeasureDistance */\012ROUND[00]	/* Round */\012PUSHW[ ]	/* 2 values pushed */\01214 82 \012MD[0]	/* MeasureDistance */\012ROUND[00]	/* Round */\012SUB[ ]	/* Subtract */\012PUSHB[ ]	/* 1 value pushed */\01264 \012GT[ ]	/* GreaterThan */\012IF[ ]	/* If */\012SHPIX[ ]	/* ShiftZoneByPixel */\012SRP1[ ]	/* SetRefPoint1 */\012SHZ[1]	/* ShiftZoneByLastPoint */\012PUSHW[ ]	/* 2 values pushed */\01282 -64 \012SHPIX[ ]	/* ShiftZoneByPixel */\012EIF[ ]	/* EndIf */";
};
width = 494;
}
);
note = O;
unicode = 004F;
},
{
glyphname = OE;
lastChange = "2022-03-02 02:51:37 +0000";
layers = (
{
background = {
paths = (
{
closed = 1;
nodes = (
"813 549 OFFCURVE",
"811 563 OFFCURVE",
"807 574 CURVE",
"798 585 OFFCURVE",
"790 592 OFFCURVE",
"785 595 CURVE",
"773 604 OFFCURVE",
"757 611 OFFCURVE",
"738 615 CURVE SMOOTH",
"729 618 OFFCURVE",
"711 621 OFFCURVE",
"683 624 CURVE SMOOTH",
"640 629 OFFCURVE",
"599 626 OFFCURVE",
"560 615 CURVE SMOOTH",
"539 609 OFFCURVE",
"518 599 OFFCURVE",
"497 586 CURVE SMOOTH",
"433 547 LINE SMOOTH",
"426 543 OFFCURVE",
"422 535 OFFCURVE",
"422 524 CURVE SMOOTH",
"422 509 OFFCURVE",
"427 502 OFFCURVE",
"437 502 CURVE SMOOTH",
"439 502 OFFCURVE",
"441 502 OFFCURVE",
"443 503 CURVE",
"476 522 OFFCURVE",
"500 536 OFFCURVE",
"513 545 CURVE",
"507 501 OFFCURVE",
"502 469 OFFCURVE",
"498 450 CURVE",
"497 449 OFFCURVE",
"489 414 OFFCURVE",
"489 406 CURVE",
"480 377 OFFCURVE",
"474 355 OFFCURVE",
"470 340 CURVE",
"475 341 OFFCURVE",
"466 341 OFFCURVE",
"443 341 CURVE SMOOTH",
"433 341 OFFCURVE",
"428 333 OFFCURVE",
"428 316 CURVE SMOOTH",
"428 302 OFFCURVE",
"432 295 OFFCURVE",
"441 295 CURVE SMOOTH",
"446 296 OFFCURVE",
"451 295 OFFCURVE",
"458 294 CURVE",
"447 251 OFFCURVE",
"439 220 OFFCURVE",
"434 199 CURVE",
"427 137 LINE SMOOTH",
"422 93 OFFCURVE",
"419 60 OFFCURVE",
"418 39 CURVE SMOOTH",
"417 14 OFFCURVE",
"417 -2 OFFCURVE",
"418 -9 CURVE",
"427 -23 OFFCURVE",
"434 -30 OFFCURVE",
"438 -31 CURVE",
"441 -33 LINE",
"463 -33 OFFCURVE",
"485 -31 OFFCURVE",
"507 -26 CURVE",
"507 -25 LINE",
"539 -25 OFFCURVE",
"566 -22 OFFCURVE",
"588 -17 CURVE",
"613 -8 OFFCURVE",
"630 -2 OFFCURVE",
"639 3 CURVE",
"663 12 OFFCURVE",
"681 18 OFFCURVE",
"692 21 CURVE SMOOTH",
"716 26 LINE SMOOTH",
"726 28 OFFCURVE",
"735 32 OFFCURVE",
"743 38 CURVE",
"774 68 LINE SMOOTH",
"780 74 OFFCURVE",
"783 81 OFFCURVE",
"783 90 CURVE SMOOTH",
"783 105 OFFCURVE",
"778 112 OFFCURVE",
"769 112 CURVE SMOOTH",
"767 112 OFFCURVE",
"765 111 OFFCURVE",
"762 109 CURVE SMOOTH",
"730 81 LINE",
"711 73 OFFCURVE",
"697 68 OFFCURVE",
"687 66 CURVE SMOOTH",
"662 59 OFFCURVE",
"644 53 OFFCURVE",
"634 49 CURVE SMOOTH",
"611 40 OFFCURVE",
"596 34 OFFCURVE",
"587 30 CURVE",
"569 25 OFFCURVE",
"542 22 OFFCURVE",
"507 21 CURVE",
"485 18 OFFCURVE",
"471 14 OFFCURVE",
"465 11 CURVE",
"458 10 OFFCURVE",
"454 15 OFFCURVE",
"453 26 CURVE SMOOTH",
"452 47 OFFCURVE",
"452 60 OFFCURVE",
"453 63 CURVE SMOOTH",
"454 83 LINE",
"461 135 OFFCURVE",
"467 174 OFFCURVE",
"473 200 CURVE",
"473 219 OFFCURVE",
"478 250 OFFCURVE",
"489 293 CURVE",
"517 293 LINE SMOOTH",
"528 293 OFFCURVE",
"540 295 OFFCURVE",
"555 298 CURVE SMOOTH",
"572 302 OFFCURVE",
"585 304 OFFCURVE",
"592 305 CURVE SMOOTH",
"621 308 OFFCURVE",
"650 310 OFFCURVE",
"679 310 CURVE SMOOTH",
"690 310 OFFCURVE",
"695 319 OFFCURVE",
"695 336 CURVE SMOOTH",
"695 349 OFFCURVE",
"691 356 OFFCURVE",
"682 356 CURVE SMOOTH",
"653 356 OFFCURVE",
"623 354 OFFCURVE",
"592 351 CURVE SMOOTH",
"584 350 OFFCURVE",
"571 348 OFFCURVE",
"554 344 CURVE SMOOTH",
"540 341 OFFCURVE",
"528 339 OFFCURVE",
"518 339 CURVE SMOOTH",
"505 339 LINE",
"512 361 OFFCURVE",
"516 377 OFFCURVE",
"518 386 CURVE SMOOTH",
"523 405 LINE",
"537 475 LINE",
"542 526 OFFCURVE",
"546 554 OFFCURVE",
"547 561 CURVE",
"549 564 OFFCURVE",
"551 565 OFFCURVE",
"553 566 CURVE",
"552 566 OFFCURVE",
"643 580 OFFCURVE",
"679 576 CURVE SMOOTH",
"715 572 OFFCURVE",
"754 570 OFFCURVE",
"774 549 CURVE SMOOTH",
"780 542 OFFCURVE",
"782 537 OFFCURVE",
"780 534 CURVE",
"779 527 OFFCURVE",
"777 521 OFFCURVE",
"774 516 CURVE",
"771 508 OFFCURVE",
"771 500 OFFCURVE",
"773 492 CURVE SMOOTH",
"774 483 OFFCURVE",
"777 479 OFFCURVE",
"782 479 CURVE",
"790 483 OFFCURVE",
"796 488 OFFCURVE",
"801 495 CURVE",
"807 510 OFFCURVE",
"811 521 OFFCURVE",
"813 530 CURVE"
);
}
);
};
layerId = "2018A826-CC5C-461A-95E5-9D849642E9B7";
paths = (
{
closed = 1;
nodes = (
"463 -23 OFFCURVE",
"485 -21 OFFCURVE",
"507 -16 CURVE",
"507 -15 LINE",
"539 -15 OFFCURVE",
"566 -12 OFFCURVE",
"588 -7 CURVE",
"613 2 OFFCURVE",
"630 8 OFFCURVE",
"639 13 CURVE",
"663 22 OFFCURVE",
"681 28 OFFCURVE",
"692 31 CURVE SMOOTH",
"716 36 LINE SMOOTH",
"726 38 OFFCURVE",
"735 42 OFFCURVE",
"743 48 CURVE",
"774 78 LINE SMOOTH",
"780 84 OFFCURVE",
"783 91 OFFCURVE",
"783 100 CURVE SMOOTH",
"783 115 OFFCURVE",
"778 122 OFFCURVE",
"769 122 CURVE SMOOTH",
"767 122 OFFCURVE",
"765 121 OFFCURVE",
"762 119 CURVE SMOOTH",
"730 91 LINE",
"711 83 OFFCURVE",
"697 78 OFFCURVE",
"687 76 CURVE SMOOTH",
"662 69 OFFCURVE",
"644 63 OFFCURVE",
"634 59 CURVE SMOOTH",
"611 50 OFFCURVE",
"596 44 OFFCURVE",
"587 40 CURVE",
"569 35 OFFCURVE",
"542 32 OFFCURVE",
"507 31 CURVE",
"485 28 OFFCURVE",
"471 24 OFFCURVE",
"465 21 CURVE",
"458 20 OFFCURVE",
"454 25 OFFCURVE",
"453 36 CURVE SMOOTH",
"452 57 OFFCURVE",
"452 70 OFFCURVE",
"453 73 CURVE",
"454 93 LINE",
"461 145 OFFCURVE",
"467 184 OFFCURVE",
"473 210 CURVE",
"473 229 OFFCURVE",
"478 260 OFFCURVE",
"489 303 CURVE",
"517 303 LINE SMOOTH",
"528 303 OFFCURVE",
"540 305 OFFCURVE",
"555 308 CURVE SMOOTH",
"572 312 OFFCURVE",
"585 314 OFFCURVE",
"592 315 CURVE SMOOTH",
"621 318 OFFCURVE",
"650 320 OFFCURVE",
"679 320 CURVE SMOOTH",
"690 320 OFFCURVE",
"695 329 OFFCURVE",
"695 346 CURVE SMOOTH",
"695 359 OFFCURVE",
"691 366 OFFCURVE",
"682 366 CURVE SMOOTH",
"653 366 OFFCURVE",
"623 364 OFFCURVE",
"592 361 CURVE SMOOTH",
"584 360 OFFCURVE",
"571 358 OFFCURVE",
"554 354 CURVE SMOOTH",
"540 351 OFFCURVE",
"528 349 OFFCURVE",
"518 349 CURVE SMOOTH",
"505 349 LINE",
"512 371 OFFCURVE",
"516 387 OFFCURVE",
"518 396 CURVE SMOOTH",
"523 415 LINE",
"537 485 LINE",
"542 536 OFFCURVE",
"546 564 OFFCURVE",
"547 571 CURVE",
"549 574 OFFCURVE",
"551 575 OFFCURVE",
"553 576 CURVE",
"552 576 OFFCURVE",
"622 587 OFFCURVE",
"663 587 CURVE SMOOTH",
"669 587 OFFCURVE",
"675 587 OFFCURVE",
"679 586 CURVE SMOOTH",
"715 582 OFFCURVE",
"754 580 OFFCURVE",
"774 559 CURVE SMOOTH",
"779 554 OFFCURVE",
"781 550 OFFCURVE",
"781 547 CURVE SMOOTH",
"781 546 OFFCURVE",
"781 545 OFFCURVE",
"780 544 CURVE",
"779 537 OFFCURVE",
"777 531 OFFCURVE",
"774 526 CURVE SMOOTH",
"772 522 OFFCURVE",
"772 517 OFFCURVE",
"772 513 CURVE SMOOTH",
"772 509 OFFCURVE",
"772 506 OFFCURVE",
"773 502 CURVE SMOOTH",
"774 493 OFFCURVE",
"777 489 OFFCURVE",
"782 489 CURVE",
"790 493 OFFCURVE",
"796 498 OFFCURVE",
"801 505 CURVE",
"807 520 OFFCURVE",
"811 531 OFFCURVE",
"813 540 CURVE",
"813 559 OFFCURVE",
"811 573 OFFCURVE",
"807 584 CURVE",
"798 595 OFFCURVE",
"790 602 OFFCURVE",
"785 605 CURVE SMOOTH",
"773 614 OFFCURVE",
"757 621 OFFCURVE",
"738 625 CURVE SMOOTH",
"729 628 OFFCURVE",
"711 631 OFFCURVE",
"683 634 CURVE SMOOTH",
"670 636 OFFCURVE",
"656 636 OFFCURVE",
"643 636 CURVE SMOOTH",
"615 636 OFFCURVE",
"587 633 OFFCURVE",
"560 625 CURVE SMOOTH",
"539 619 OFFCURVE",
"518 609 OFFCURVE",
"497 596 CURVE SMOOTH",
"435 558 LINE",
"429 564 OFFCURVE",
"423 569 OFFCURVE",
"417 574 CURVE SMOOTH",
"401 587 OFFCURVE",
"389 595 OFFCURVE",
"380 599 CURVE SMOOTH",
"359 608 OFFCURVE",
"344 612 OFFCURVE",
"335 612 CURVE SMOOTH",
"330 612 OFFCURVE",
"326 612 OFFCURVE",
"321 611 CURVE",
"323 615 OFFCURVE",
"324 619 OFFCURVE",
"324 624 CURVE SMOOTH",
"324 640 OFFCURVE",
"319 648 OFFCURVE",
"309 648 CURVE SMOOTH",
"295 648 OFFCURVE",
"272 638 OFFCURVE",
"241 617 CURVE SMOOTH",
"230 610 OFFCURVE",
"218 600 OFFCURVE",
"206 586 CURVE SMOOTH",
"175 550 LINE SMOOTH",
"151 522 OFFCURVE",
"132 497 OFFCURVE",
"121 475 CURVE SMOOTH",
"72 383 OFFCURVE",
"48 298 OFFCURVE",
"48 220 CURVE SMOOTH",
"48 163 OFFCURVE",
"65 111 OFFCURVE",
"100 64 CURVE SMOOTH",
"121 36 OFFCURVE",
"151 19 OFFCURVE",
"189 14 CURVE SMOOTH",
"213 11 OFFCURVE",
"256 27 OFFCURVE",
"319 64 CURVE SMOOTH",
"365 90 OFFCURVE",
"400 115 OFFCURVE",
"426 137 CURVE",
"422 98 OFFCURVE",
"419 68 OFFCURVE",
"418 49 CURVE SMOOTH",
"418 37 OFFCURVE",
"417 26 OFFCURVE",
"417 18 CURVE SMOOTH",
"417 10 OFFCURVE",
"418 5 OFFCURVE",
"418 1 CURVE",
"427 -13 OFFCURVE",
"434 -20 OFFCURVE",
"438 -21 CURVE",
"441 -23 LINE"
);
},
{
closed = 1;
nodes = (
"164 68 OFFCURVE",
"139 81 OFFCURVE",
"122 103 CURVE SMOOTH",
"97 134 OFFCURVE",
"83 171 OFFCURVE",
"80 213 CURVE",
"81 239 OFFCURVE",
"87 276 OFFCURVE",
"100 323 CURVE SMOOTH",
"114 375 OFFCURVE",
"129 416 OFFCURVE",
"146 446 CURVE SMOOTH",
"167 477 OFFCURVE",
"183 498 OFFCURVE",
"194 510 CURVE SMOOTH",
"229 549 OFFCURVE",
"248 570 OFFCURVE",
"253 573 CURVE SMOOTH",
"261 579 OFFCURVE",
"271 583 OFFCURVE",
"285 588 CURVE SMOOTH",
"283 587 OFFCURVE",
"282 586 OFFCURVE",
"281 585 CURVE SMOOTH",
"276 580 OFFCURVE",
"273 573 OFFCURVE",
"273 562 CURVE SMOOTH",
"273 546 OFFCURVE",
"277 538 OFFCURVE",
"285 538 CURVE SMOOTH",
"287 538 OFFCURVE",
"289 539 OFFCURVE",
"290 539 CURVE SMOOTH",
"293 540 LINE",
"308 553 OFFCURVE",
"323 559 OFFCURVE",
"338 559 CURVE SMOOTH",
"346 559 OFFCURVE",
"357 556 OFFCURVE",
"370 550 CURVE SMOOTH",
"385 542 OFFCURVE",
"396 535 OFFCURVE",
"401 530 CURVE SMOOTH",
"422 513 OFFCURVE",
"440 488 OFFCURVE",
"455 457 CURVE SMOOTH",
"463 440 OFFCURVE",
"472 417 OFFCURVE",
"480 387 CURVE",
"476 372 OFFCURVE",
"473 360 OFFCURVE",
"470 351 CURVE",
"443 351 LINE SMOOTH",
"433 351 OFFCURVE",
"428 343 OFFCURVE",
"428 326 CURVE SMOOTH",
"428 312 OFFCURVE",
"432 305 OFFCURVE",
"441 305 CURVE",
"446 306 OFFCURVE",
"451 305 OFFCURVE",
"458 304 CURVE",
"434 209 LINE",
"433 200 LINE",
"430 196 LINE SMOOTH",
"391 144 OFFCURVE",
"236 56 OFFCURVE",
"195 63 CURVE SMOOTH"
);
},
{
closed = 1;
nodes = (
"491 467 OFFCURVE",
"486 479 OFFCURVE",
"482 488 CURVE SMOOTH",
"476 501 OFFCURVE",
"469 513 OFFCURVE",
"462 524 CURVE",
"485 537 OFFCURVE",
"503 548 OFFCURVE",
"513 555 CURVE",
"507 511 OFFCURVE",
"502 479 OFFCURVE",
"498 460 CURVE SMOOTH",
"496 452 LINE"
);
}
);
width = 822;
}
);
unicode = 0152;
},
{
glyphname = P;
lastChange = "2022-03-02 02:51:37 +0000";
layers = (
{
layerId = "2018A826-CC5C-461A-95E5-9D849642E9B7";
paths = (
{
closed = 1;
nodes = (
"113 223 OFFCURVE",
"118 223 OFFCURVE",
"124 228 CURVE SMOOTH",
"167 268 OFFCURVE",
"163 265 OFFCURVE",
"208 294 CURVE SMOOTH",
"225 305 OFFCURVE",
"240 317 OFFCURVE",
"253 330 CURVE SMOOTH",
"282 357 OFFCURVE",
"302 380 OFFCURVE",
"313 399 CURVE SMOOTH",
"326 421 OFFCURVE",
"332 442 OFFCURVE",
"332 463 CURVE SMOOTH",
"332 488 OFFCURVE",
"324 509 OFFCURVE",
"309 528 CURVE",
"302 540 OFFCURVE",
"291 547 OFFCURVE",
"279 551 CURVE SMOOTH",
"254 559 LINE",
"233 572 OFFCURVE",
"217 581 OFFCURVE",
"207 586 CURVE SMOOTH",
"185 598 OFFCURVE",
"169 606 OFFCURVE",
"159 611 CURVE SMOOTH",
"142 618 OFFCURVE",
"127 625 OFFCURVE",
"115 633 CURVE SMOOTH",
"102 644 OFFCURVE",
"93 652 OFFCURVE",
"87 658 CURVE SMOOTH",
"86 659 LINE SMOOTH",
"84 661 OFFCURVE",
"82 662 OFFCURVE",
"79 662 CURVE SMOOTH",
"70 662 OFFCURVE",
"60 645 OFFCURVE",
"60 630 CURVE SMOOTH",
"60 625 OFFCURVE",
"61 620 OFFCURVE",
"64 617 CURVE",
"80 604 OFFCURVE",
"92 594 OFFCURVE",
"99 586 CURVE",
"140 564 OFFCURVE",
"173 549 OFFCURVE",
"196 540 CURVE",
"216 528 OFFCURVE",
"231 519 OFFCURVE",
"241 514 CURVE SMOOTH",
"245 512 OFFCURVE",
"254 509 OFFCURVE",
"267 505 CURVE SMOOTH",
"275 502 OFFCURVE",
"281 498 OFFCURVE",
"286 492 CURVE",
"289 484 OFFCURVE",
"298 471 OFFCURVE",
"298 463 CURVE SMOOTH",
"298 457 OFFCURVE",
"296 448 OFFCURVE",
"287 429 CURVE SMOOTH",
"275 404 OFFCURVE",
"255 387 OFFCURVE",
"235 370 CURVE SMOOTH",
"198 340 OFFCURVE",
"170 319 OFFCURVE",
"152 307 CURVE",
"115 275 LINE SMOOTH",
"106 267 OFFCURVE",
"101 258 OFFCURVE",
"101 246 CURVE SMOOTH",
"101 237 OFFCURVE",
"103 231 OFFCURVE",
"108 227 CURVE SMOOTH"
);
},
{
closed = 1;
nodes = (
"60 -67 OFFCURVE",
"72 -52 OFFCURVE",
"72 -37 CURVE SMOOTH",
"72 -34 OFFCURVE",
"71 -30 OFFCURVE",
"70 -27 CURVE SMOOTH",
"63 -13 OFFCURVE",
"59 4 OFFCURVE",
"59 24 CURVE SMOOTH",
"59 31 OFFCURVE",
"60 44 OFFCURVE",
"61 63 CURVE SMOOTH",
"64 114 LINE SMOOTH",
"69 192 OFFCURVE",
"77 248 OFFCURVE",
"81 284 CURVE SMOOTH",
"100 465 LINE",
"105 494 OFFCURVE",
"110 515 OFFCURVE",
"113 528 CURVE",
"113 547 OFFCURVE",
"105 555 OFFCURVE",
"94 555 CURVE SMOOTH",
"83 555 OFFCURVE",
"77 547 OFFCURVE",
"76 530 CURVE SMOOTH",
"75 513 OFFCURVE",
"73 492 OFFCURVE",
"70 469 CURVE SMOOTH",
"60 385 OFFCURVE",
"52 324 OFFCURVE",
"47 287 CURVE SMOOTH",
"36 200 LINE SMOOTH",
"32 168 OFFCURVE",
"29 138 OFFCURVE",
"29 109 CURVE SMOOTH",
"29 100 OFFCURVE",
"28 85 OFFCURVE",
"27 65 CURVE SMOOTH",
"25 44 OFFCURVE",
"24 29 OFFCURVE",
"24 18 CURVE SMOOTH",
"24 -12 OFFCURVE",
"29 -38 OFFCURVE",
"39 -60 CURVE SMOOTH",
"42 -65 OFFCURVE",
"45 -67 OFFCURVE",
"49 -67 CURVE SMOOTH"
);
}
);
userData = {
assembly = "NPUSHB[ ]	/* 27 values pushed */\0121 94 94 64 95 57 93 91 59 51 50 9 79 72 68 59 57 51 50 36 22 11 39 75 1 79 70 \012SROUND[ ]	/* SuperRound */\012MDAP[1]	/* MoveDirectAbsPt */\012SHZ[1]	/* ShiftZoneByLastPoint */\012RTG[ ]	/* RoundToGrid */\012SVTCA[0]	/* SetFreedomAndProjectionVectorToAxis */\012MDAP[1]	/* MoveDirectAbsPt */\012MDAP[1]	/* MoveDirectAbsPt */\012SVTCA[1]	/* SetFreedomAndProjectionVectorToAxis */\012MDAP[0]	/* MoveDirectAbsPt */\012MDAP[0]	/* MoveDirectAbsPt */\012MDAP[0]	/* MoveDirectAbsPt */\012MDAP[0]	/* MoveDirectAbsPt */\012MDAP[0]	/* MoveDirectAbsPt */\012MDAP[0]	/* MoveDirectAbsPt */\012MDAP[0]	/* MoveDirectAbsPt */\012MDAP[0]	/* MoveDirectAbsPt */\012MDAP[0]	/* MoveDirectAbsPt */\012MDAP[0]	/* MoveDirectAbsPt */\012SVTCA[0]	/* SetFreedomAndProjectionVectorToAxis */\012MDAP[0]	/* MoveDirectAbsPt */\012MDAP[0]	/* MoveDirectAbsPt */\012MDAP[0]	/* MoveDirectAbsPt */\012MDAP[0]	/* MoveDirectAbsPt */\012MDAP[0]	/* MoveDirectAbsPt */\012MDAP[0]	/* MoveDirectAbsPt */\012IUP[1]	/* InterpolateUntPts */\012IUP[0]	/* InterpolateUntPts */\012SVTCA[1]	/* SetFreedomAndProjectionVectorToAxis */\012MD[0]	/* MeasureDistance */\012ROUND[00]	/* Round */\012PUSHW[ ]	/* 2 values pushed */\01279 94 \012MD[0]	/* MeasureDistance */\012ROUND[00]	/* Round */\012SUB[ ]	/* Subtract */\012PUSHB[ ]	/* 1 value pushed */\01264 \012GT[ ]	/* GreaterThan */\012IF[ ]	/* If */\012SHPIX[ ]	/* ShiftZoneByPixel */\012SRP1[ ]	/* SetRefPoint1 */\012SHZ[1]	/* ShiftZoneByLastPoint */\012PUSHW[ ]	/* 2 values pushed */\01294 -64 \012SHPIX[ ]	/* ShiftZoneByPixel */\012EIF[ ]	/* EndIf */";
};
width = 288;
}
);
note = P;
unicode = 0050;
},
{
glyphname = Thorn;
lastChange = "2022-03-02 02:51:37 +0000";
layers = (
{
layerId = "2018A826-CC5C-461A-95E5-9D849642E9B7";
paths = (
{
closed = 1;
nodes = (
"91 125 OFFCURVE",
"96 125 OFFCURVE",
"102 130 CURVE SMOOTH",
"145 170 OFFCURVE",
"141 167 OFFCURVE",
"186 196 CURVE SMOOTH",
"203 207 OFFCURVE",
"218 219 OFFCURVE",
"231 232 CURVE SMOOTH",
"260 259 OFFCURVE",
"280 282 OFFCURVE",
"291 301 CURVE SMOOTH",
"304 323 OFFCURVE",
"310 344 OFFCURVE",
"310 365 CURVE SMOOTH",
"310 390 OFFCURVE",
"302 411 OFFCURVE",
"287 430 CURVE",
"280 442 OFFCURVE",
"269 449 OFFCURVE",
"257 453 CURVE SMOOTH",
"232 461 LINE",
"211 474 OFFCURVE",
"195 483 OFFCURVE",
"185 488 CURVE SMOOTH",
"163 500 OFFCURVE",
"147 508 OFFCURVE",
"137 513 CURVE SMOOTH",
"120 520 OFFCURVE",
"105 527 OFFCURVE",
"93 535 CURVE SMOOTH",
"80 546 OFFCURVE",
"71 554 OFFCURVE",
"65 560 CURVE SMOOTH",
"64 561 LINE SMOOTH",
"62 563 OFFCURVE",
"60 564 OFFCURVE",
"57 564 CURVE SMOOTH",
"48 564 OFFCURVE",
"38 547 OFFCURVE",
"38 532 CURVE SMOOTH",
"38 527 OFFCURVE",
"39 522 OFFCURVE",
"42 519 CURVE SMOOTH",
"58 506 OFFCURVE",
"70 496 OFFCURVE",
"77 488 CURVE",
"118 466 OFFCURVE",
"151 451 OFFCURVE",
"174 442 CURVE",
"194 430 OFFCURVE",
"209 421 OFFCURVE",
"219 416 CURVE SMOOTH",
"223 414 OFFCURVE",
"232 411 OFFCURVE",
"245 407 CURVE SMOOTH",
"253 404 OFFCURVE",
"259 400 OFFCURVE",
"264 394 CURVE",
"267 386 OFFCURVE",
"276 373 OFFCURVE",
"276 365 CURVE SMOOTH",
"276 359 OFFCURVE",
"274 350 OFFCURVE",
"265 331 CURVE SMOOTH",
"253 306 OFFCURVE",
"233 289 OFFCURVE",
"213 272 CURVE SMOOTH",
"176 242 OFFCURVE",
"148 221 OFFCURVE",
"130 209 CURVE",
"93 177 LINE SMOOTH",
"84 169 OFFCURVE",
"79 160 OFFCURVE",
"79 148 CURVE SMOOTH",
"79 139 OFFCURVE",
"81 133 OFFCURVE",
"86 129 CURVE SMOOTH"
);
},
{
closed = 1;
nodes = (
"57 -46 OFFCURVE",
"69 -30 OFFCURVE",
"69 -14 CURVE SMOOTH",
"69 -10 OFFCURVE",
"68 -6 OFFCURVE",
"67 -3 CURVE SMOOTH",
"60 12 OFFCURVE",
"56 31 OFFCURVE",
"56 53 CURVE SMOOTH",
"56 60 OFFCURVE",
"57 74 OFFCURVE",
"58 95 CURVE SMOOTH",
"61 150 LINE SMOOTH",
"69 290 OFFCURVE",
"77 350 OFFCURVE",
"81 389 CURVE SMOOTH",
"100 585 LINE",
"105 617 OFFCURVE",
"110 639 OFFCURVE",
"113 654 CURVE",
"113 674 OFFCURVE",
"105 683 OFFCURVE",
"94 683 CURVE SMOOTH",
"83 683 OFFCURVE",
"77 674 OFFCURVE",
"76 656 CURVE SMOOTH",
"75 637 OFFCURVE",
"73 615 OFFCURVE",
"70 590 CURVE SMOOTH",
"60 499 OFFCURVE",
"52 433 OFFCURVE",
"47 392 CURVE SMOOTH",
"36 298 LINE SMOOTH",
"32 264 OFFCURVE",
"26 176 OFFCURVE",
"26 145 CURVE SMOOTH",
"26 135 OFFCURVE",
"25 119 OFFCURVE",
"24 97 CURVE SMOOTH",
"22 74 OFFCURVE",
"21 58 OFFCURVE",
"21 46 CURVE SMOOTH",
"21 14 OFFCURVE",
"26 -15 OFFCURVE",
"36 -38 CURVE SMOOTH",
"39 -44 OFFCURVE",
"42 -46 OFFCURVE",
"46 -46 CURVE SMOOTH"
);
}
);
width = 288;
}
);
unicode = 00DE;
},
{
glyphname = Q;
lastChange = "2022-03-02 02:51:37 +0000";
layers = (
{
layerId = "2018A826-CC5C-461A-95E5-9D849642E9B7";
paths = (
{
closed = 1;
nodes = (
"391 -78 OFFCURVE",
"400 -63 OFFCURVE",
"400 -48 CURVE SMOOTH",
"400 -43 OFFCURVE",
"399 -38 OFFCURVE",
"396 -35 CURVE SMOOTH",
"351 25 LINE SMOOTH",
"334 48 OFFCURVE",
"324 61 OFFCURVE",
"320 65 CURVE",
"380 100 OFFCURVE",
"423 132 OFFCURVE",
"449 161 CURVE SMOOTH",
"472 188 OFFCURVE",
"488 207 OFFCURVE",
"495 218 CURVE SMOOTH",
"514 250 OFFCURVE",
"523 286 OFFCURVE",
"523 325 CURVE SMOOTH",
"523 347 OFFCURVE",
"520 370 OFFCURVE",
"514 395 CURVE SMOOTH",
"504 436 OFFCURVE",
"494 467 OFFCURVE",
"484 488 CURVE SMOOTH",
"467 524 OFFCURVE",
"445 553 OFFCURVE",
"419 574 CURVE SMOOTH",
"404 587 OFFCURVE",
"391 595 OFFCURVE",
"381 599 CURVE SMOOTH",
"360 608 OFFCURVE",
"345 612 OFFCURVE",
"336 612 CURVE SMOOTH",
"331 612 OFFCURVE",
"327 612 OFFCURVE",
"322 611 CURVE",
"324 615 OFFCURVE",
"325 619 OFFCURVE",
"325 624 CURVE SMOOTH",
"325 640 OFFCURVE",
"320 648 OFFCURVE",
"310 648 CURVE SMOOTH",
"296 648 OFFCURVE",
"273 638 OFFCURVE",
"242 617 CURVE SMOOTH",
"231 610 OFFCURVE",
"220 599 OFFCURVE",
"207 586 CURVE SMOOTH",
"176 550 LINE SMOOTH",
"151 522 OFFCURVE",
"133 497 OFFCURVE",
"122 475 CURVE SMOOTH",
"73 382 OFFCURVE",
"49 296 OFFCURVE",
"49 217 CURVE SMOOTH",
"49 161 OFFCURVE",
"66 110 OFFCURVE",
"101 64 CURVE SMOOTH",
"126 31 OFFCURVE",
"157 14 OFFCURVE",
"194 14 CURVE SMOOTH",
"215 14 OFFCURVE",
"247 24 OFFCURVE",
"288 44 CURVE",
"308 12 OFFCURVE",
"320 -7 OFFCURVE",
"325 -14 CURVE",
"326 -13 LINE",
"349 -44 OFFCURVE",
"364 -64 OFFCURVE",
"371 -73 CURVE SMOOTH",
"374 -76 OFFCURVE",
"377 -78 OFFCURVE",
"380 -78 CURVE SMOOTH"
);
},
{
closed = 1;
nodes = (
"160 69 OFFCURVE",
"136 82 OFFCURVE",
"121 101 CURVE SMOOTH",
"93 138 OFFCURVE",
"79 177 OFFCURVE",
"79 217 CURVE SMOOTH",
"79 241 OFFCURVE",
"85 277 OFFCURVE",
"98 323 CURVE SMOOTH",
"112 375 OFFCURVE",
"128 416 OFFCURVE",
"145 446 CURVE SMOOTH",
"157 467 OFFCURVE",
"173 488 OFFCURVE",
"193 510 CURVE SMOOTH",
"251 573 LINE",
"261 579 OFFCURVE",
"273 584 OFFCURVE",
"286 589 CURVE",
"285 589 LINE",
"283 587 OFFCURVE",
"281 586 OFFCURVE",
"280 585 CURVE SMOOTH",
"274 580 OFFCURVE",
"271 573 OFFCURVE",
"271 562 CURVE SMOOTH",
"271 546 OFFCURVE",
"275 538 OFFCURVE",
"284 538 CURVE",
"289 539 LINE",
"291 540 LINE",
"306 553 OFFCURVE",
"321 559 OFFCURVE",
"336 559 CURVE SMOOTH",
"345 559 OFFCURVE",
"356 556 OFFCURVE",
"369 550 CURVE SMOOTH",
"384 542 OFFCURVE",
"395 535 OFFCURVE",
"400 530 CURVE SMOOTH",
"421 513 OFFCURVE",
"439 488 OFFCURVE",
"454 457 CURVE",
"481 385 OFFCURVE",
"488 358 OFFCURVE",
"488 327 CURVE SMOOTH",
"488 301 OFFCURVE",
"481 276 OFFCURVE",
"468 251 CURVE SMOOTH",
"463 243 OFFCURVE",
"450 225 OFFCURVE",
"429 197 CURVE SMOOTH",
"406 166 OFFCURVE",
"362 134 OFFCURVE",
"297 101 CURVE",
"294 107 OFFCURVE",
"292 111 OFFCURVE",
"290 114 CURVE",
"275 143 OFFCURVE",
"265 165 OFFCURVE",
"259 180 CURVE",
"255 187 OFFCURVE",
"252 192 OFFCURVE",
"249 195 CURVE SMOOTH",
"221 236 LINE SMOOTH",
"218 239 OFFCURVE",
"216 241 OFFCURVE",
"213 241 CURVE SMOOTH",
"202 241 OFFCURVE",
"193 226 OFFCURVE",
"193 210 CURVE SMOOTH",
"193 205 OFFCURVE",
"194 201 OFFCURVE",
"196 197 CURVE",
"211 179 OFFCURVE",
"221 165 OFFCURVE",
"226 156 CURVE SMOOTH",
"244 124 OFFCURVE",
"257 99 OFFCURVE",
"264 82 CURVE",
"232 69 OFFCURVE",
"209 62 OFFCURVE",
"194 62 CURVE"
);
}
);
userData = {
assembly = "NPUSHB[ ]	/* 42 values pushed */\0121 119 119 64 120 2 117 116 108 98 87 73 72 66 61 46 44 26 24 118 117 116 114 95 89 83 73 68 44 42 30 14 8 2 40 17 22 21 1 1 30 70 \012SROUND[ ]	/* SuperRound */\012MDAP[1]	/* MoveDirectAbsPt */\012SHZ[1]	/* ShiftZoneByLastPoint */\012RTG[ ]	/* RoundToGrid */\012SVTCA[0]	/* SetFreedomAndProjectionVectorToAxis */\012MIAP[1]	/* MoveIndirectAbsPt */\012ALIGNRP[ ]	/* AlignRelativePt */\012MDAP[1]	/* MoveDirectAbsPt */\012MDAP[1]	/* MoveDirectAbsPt */\012SVTCA[1]	/* SetFreedomAndProjectionVectorToAxis */\012MDAP[0]	/* MoveDirectAbsPt */\012MDAP[0]	/* MoveDirectAbsPt */\012MDAP[0]	/* MoveDirectAbsPt */\012MDAP[0]	/* MoveDirectAbsPt */\012MDAP[0]	/* MoveDirectAbsPt */\012MDAP[0]	/* MoveDirectAbsPt */\012MDAP[0]	/* MoveDirectAbsPt */\012MDAP[0]	/* MoveDirectAbsPt */\012MDAP[0]	/* MoveDirectAbsPt */\012MDAP[0]	/* MoveDirectAbsPt */\012MDAP[0]	/* MoveDirectAbsPt */\012MDAP[0]	/* MoveDirectAbsPt */\012MDAP[0]	/* MoveDirectAbsPt */\012MDAP[0]	/* MoveDirectAbsPt */\012MDAP[0]	/* MoveDirectAbsPt */\012SVTCA[0]	/* SetFreedomAndProjectionVectorToAxis */\012MDAP[0]	/* MoveDirectAbsPt */\012MDAP[0]	/* MoveDirectAbsPt */\012MDAP[0]	/* MoveDirectAbsPt */\012MDAP[0]	/* MoveDirectAbsPt */\012MDAP[0]	/* MoveDirectAbsPt */\012MDAP[0]	/* MoveDirectAbsPt */\012MDAP[0]	/* MoveDirectAbsPt */\012MDAP[0]	/* MoveDirectAbsPt */\012MDAP[0]	/* MoveDirectAbsPt */\012MDAP[0]	/* MoveDirectAbsPt */\012MDAP[0]	/* MoveDirectAbsPt */\012MDAP[0]	/* MoveDirectAbsPt */\012MDAP[0]	/* MoveDirectAbsPt */\012IUP[1]	/* InterpolateUntPts */\012IUP[0]	/* InterpolateUntPts */\012SVTCA[1]	/* SetFreedomAndProjectionVectorToAxis */\012MD[0]	/* MeasureDistance */\012ROUND[00]	/* Round */\012PUSHW[ ]	/* 2 values pushed */\01230 119 \012MD[0]	/* MeasureDistance */\012ROUND[00]	/* Round */\012SUB[ ]	/* Subtract */\012PUSHB[ ]	/* 1 value pushed */\01264 \012GT[ ]	/* GreaterThan */\012IF[ ]	/* If */\012SHPIX[ ]	/* ShiftZoneByPixel */\012SRP1[ ]	/* SetRefPoint1 */\012SHZ[1]	/* ShiftZoneByLastPoint */\012PUSHW[ ]	/* 2 values pushed */\012119 -64 \012SHPIX[ ]	/* ShiftZoneByPixel */\012EIF[ ]	/* EndIf */";
};
width = 494;
}
);
note = Q;
unicode = 0051;
},
{
glyphname = R;
lastChange = "2022-03-02 02:51:37 +0000";
layers = (
{
layerId = "2018A826-CC5C-461A-95E5-9D849642E9B7";
paths = (
{
closed = 1;
nodes = (
"312 -36 OFFCURVE",
"321 -21 OFFCURVE",
"321 -8 CURVE SMOOTH",
"321 -2 OFFCURVE",
"319 3 OFFCURVE",
"316 6 CURVE SMOOTH",
"307 15 OFFCURVE",
"301 23 OFFCURVE",
"296 30 CURVE",
"284 44 OFFCURVE",
"271 65 OFFCURVE",
"256 94 CURVE",
"241 112 OFFCURVE",
"231 125 OFFCURVE",
"226 133 CURVE",
"211 162 OFFCURVE",
"201 185 OFFCURVE",
"194 200 CURVE",
"171 241 LINE",
"170 243 OFFCURVE",
"169 244 OFFCURVE",
"167 245 CURVE",
"206 271 LINE SMOOTH",
"237 292 OFFCURVE",
"259 309 OFFCURVE",
"273 320 CURVE SMOOTH",
"308 346 OFFCURVE",
"332 366 OFFCURVE",
"345 379 CURVE SMOOTH",
"362 396 OFFCURVE",
"370 421 OFFCURVE",
"370 452 CURVE SMOOTH",
"370 465 OFFCURVE",
"368 480 OFFCURVE",
"365 495 CURVE SMOOTH",
"362 513 OFFCURVE",
"355 526 OFFCURVE",
"344 535 CURVE SMOOTH",
"321 554 LINE",
"300 575 OFFCURVE",
"286 588 OFFCURVE",
"280 593 CURVE SMOOTH",
"249 616 OFFCURVE",
"211 636 OFFCURVE",
"165 636 CURVE SMOOTH",
"164 636 LINE SMOOTH",
"152 636 OFFCURVE",
"140 637 OFFCURVE",
"128 637 CURVE SMOOTH",
"99 637 OFFCURVE",
"74 633 OFFCURVE",
"74 604 CURVE SMOOTH",
"74 591 OFFCURVE",
"78 584 OFFCURVE",
"86 584 CURVE SMOOTH",
"95 584 OFFCURVE",
"108 585 OFFCURVE",
"125 586 CURVE SMOOTH",
"139 587 OFFCURVE",
"151 587 OFFCURVE",
"161 586 CURVE SMOOTH",
"196 584 OFFCURVE",
"230 571 OFFCURVE",
"261 546 CURVE SMOOTH",
"280 532 OFFCURVE",
"293 522 OFFCURVE",
"299 514 CURVE SMOOTH",
"330 475 LINE",
"335 461 OFFCURVE",
"337 449 OFFCURVE",
"337 440 CURVE SMOOTH",
"337 437 OFFCURVE",
"337 435 OFFCURVE",
"336 432 CURVE",
"326 420 LINE",
"298 395 OFFCURVE",
"275 376 OFFCURVE",
"257 364 CURVE SMOOTH",
"228 341 OFFCURVE",
"207 325 OFFCURVE",
"195 314 CURVE",
"163 297 OFFCURVE",
"126 275 OFFCURVE",
"122 251 CURVE SMOOTH",
"121 247 OFFCURVE",
"120 242 OFFCURVE",
"120 237 CURVE",
"121 239 LINE",
"134 222 OFFCURVE",
"143 210 OFFCURVE",
"146 204 CURVE SMOOTH",
"157 187 OFFCURVE",
"165 174 OFFCURVE",
"169 165 CURVE SMOOTH",
"200 97 LINE",
"213 78 OFFCURVE",
"224 64 OFFCURVE",
"231 56 CURVE",
"250 27 OFFCURVE",
"264 5 OFFCURVE",
"273 -9 CURVE SMOOTH",
"278 -16 OFFCURVE",
"284 -24 OFFCURVE",
"293 -33 CURVE SMOOTH",
"296 -35 OFFCURVE",
"298 -36 OFFCURVE",
"301 -36 CURVE SMOOTH"
);
},
{
closed = 1;
nodes = (
"27 -14 OFFCURVE",
"29 -13 OFFCURVE",
"31 -12 CURVE",
"58 9 LINE",
"65 17 OFFCURVE",
"72 27 OFFCURVE",
"76 39 CURVE SMOOTH",
"86 68 LINE",
"99 119 OFFCURVE",
"108 155 OFFCURVE",
"108 176 CURVE SMOOTH",
"108 179 LINE SMOOTH",
"108 192 OFFCURVE",
"110 209 OFFCURVE",
"114 228 CURVE SMOOTH",
"119 251 OFFCURVE",
"122 268 OFFCURVE",
"123 279 CURVE SMOOTH",
"128 323 OFFCURVE",
"130 353 OFFCURVE",
"131 368 CURVE SMOOTH",
"133 402 OFFCURVE",
"134 428 OFFCURVE",
"134 445 CURVE",
"143 515 LINE SMOOTH",
"145 534 OFFCURVE",
"142 543 OFFCURVE",
"131 543 CURVE SMOOTH",
"120 543 OFFCURVE",
"115 534 OFFCURVE",
"112 516 CURVE SMOOTH",
"106 485 LINE SMOOTH",
"103 472 OFFCURVE",
"101 459 OFFCURVE",
"101 447 CURVE SMOOTH",
"100 428 OFFCURVE",
"100 414 OFFCURVE",
"100 401 CURVE SMOOTH",
"100 389 OFFCURVE",
"100 380 OFFCURVE",
"99 370 CURVE SMOOTH",
"97 348 OFFCURVE",
"93 300 OFFCURVE",
"90 281 CURVE SMOOTH",
"81 197 OFFCURVE",
"74 160 OFFCURVE",
"66 112 CURVE SMOOTH",
"60 79 OFFCURVE",
"52 58 OFFCURVE",
"41 47 CURVE",
"40 44 LINE",
"18 30 LINE SMOOTH",
"12 27 OFFCURVE",
"9 21 OFFCURVE",
"9 12 CURVE SMOOTH",
"9 -5 OFFCURVE",
"14 -14 OFFCURVE",
"25 -14 CURVE SMOOTH"
);
}
);
userData = {
assembly = "NPUSHB[ ]	/* 34 values pushed */\0121 126 126 64 127 2 123 65 63 61 43 42 7 6 103 91 90 80 67 54 43 25 11 7 6 2 72 71 28 101 1 1 103 70 \012SROUND[ ]	/* SuperRound */\012MDAP[1]	/* MoveDirectAbsPt */\012SHZ[1]	/* ShiftZoneByLastPoint */\012RTG[ ]	/* RoundToGrid */\012SVTCA[0]	/* SetFreedomAndProjectionVectorToAxis */\012MIAP[1]	/* MoveIndirectAbsPt */\012MDAP[1]	/* MoveDirectAbsPt */\012MDAP[1]	/* MoveDirectAbsPt */\012ALIGNRP[ ]	/* AlignRelativePt */\012SVTCA[1]	/* SetFreedomAndProjectionVectorToAxis */\012MDAP[0]	/* MoveDirectAbsPt */\012MDAP[0]	/* MoveDirectAbsPt */\012MDAP[0]	/* MoveDirectAbsPt */\012MDAP[0]	/* MoveDirectAbsPt */\012MDAP[0]	/* MoveDirectAbsPt */\012MDAP[0]	/* MoveDirectAbsPt */\012MDAP[0]	/* MoveDirectAbsPt */\012MDAP[0]	/* MoveDirectAbsPt */\012MDAP[0]	/* MoveDirectAbsPt */\012MDAP[0]	/* MoveDirectAbsPt */\012MDAP[0]	/* MoveDirectAbsPt */\012MDAP[0]	/* MoveDirectAbsPt */\012SVTCA[0]	/* SetFreedomAndProjectionVectorToAxis */\012MDAP[0]	/* MoveDirectAbsPt */\012MDAP[0]	/* MoveDirectAbsPt */\012MDAP[0]	/* MoveDirectAbsPt */\012MDAP[0]	/* MoveDirectAbsPt */\012MDAP[0]	/* MoveDirectAbsPt */\012MDAP[0]	/* MoveDirectAbsPt */\012MDAP[0]	/* MoveDirectAbsPt */\012MDAP[0]	/* MoveDirectAbsPt */\012IUP[1]	/* InterpolateUntPts */\012IUP[0]	/* InterpolateUntPts */\012SVTCA[1]	/* SetFreedomAndProjectionVectorToAxis */\012MD[0]	/* MeasureDistance */\012ROUND[00]	/* Round */\012PUSHW[ ]	/* 2 values pushed */\012103 126 \012MD[0]	/* MeasureDistance */\012ROUND[00]	/* Round */\012SUB[ ]	/* Subtract */\012PUSHB[ ]	/* 1 value pushed */\01264 \012GT[ ]	/* GreaterThan */\012IF[ ]	/* If */\012SHPIX[ ]	/* ShiftZoneByPixel */\012SRP1[ ]	/* SetRefPoint1 */\012SHZ[1]	/* ShiftZoneByLastPoint */\012PUSHW[ ]	/* 2 values pushed */\012126 -64 \012SHPIX[ ]	/* ShiftZoneByPixel */\012EIF[ ]	/* EndIf */";
};
width = 316;
}
);
note = R;
unicode = 0052;
},
{
glyphname = S;
lastChange = "2022-03-02 02:51:37 +0000";
layers = (
{
layerId = "2018A826-CC5C-461A-95E5-9D849642E9B7";
paths = (
{
closed = 1;
nodes = (
"85 -42 LINE",
"150 -9 LINE",
"200 6 LINE",
"230 19 OFFCURVE",
"260 38 OFFCURVE",
"290 65 CURVE SMOOTH",
"314 86 OFFCURVE",
"330 104 OFFCURVE",
"338 118 CURVE SMOOTH",
"350 139 OFFCURVE",
"356 162 OFFCURVE",
"356 188 CURVE SMOOTH",
"356 214 OFFCURVE",
"350 235 OFFCURVE",
"339 250 CURVE SMOOTH",
"320 274 OFFCURVE",
"300 286 OFFCURVE",
"280 299 CURVE SMOOTH",
"264 312 OFFCURVE",
"250 324 OFFCURVE",
"237 335 CURVE",
"207 353 LINE",
"196 364 OFFCURVE",
"185 380 OFFCURVE",
"175 401 CURVE SMOOTH",
"163 426 OFFCURVE",
"156 453 OFFCURVE",
"156 465 CURVE SMOOTH",
"156 470 OFFCURVE",
"161 482 OFFCURVE",
"170 499 CURVE",
"193 526 OFFCURVE",
"209 545 OFFCURVE",
"219 556 CURVE SMOOTH",
"251 593 OFFCURVE",
"285 616 OFFCURVE",
"320 625 CURVE SMOOTH",
"336 629 OFFCURVE",
"351 631 OFFCURVE",
"365 631 CURVE SMOOTH",
"376 631 OFFCURVE",
"381 641 OFFCURVE",
"381 661 CURVE SMOOTH",
"381 674 OFFCURVE",
"377 681 OFFCURVE",
"370 681 CURVE SMOOTH",
"353 681 OFFCURVE",
"335 679 OFFCURVE",
"316 674 CURVE SMOOTH",
"287 667 OFFCURVE",
"260 653 OFFCURVE",
"235 632 CURVE",
"202 596 OFFCURVE",
"173 564 OFFCURVE",
"149 535 CURVE SMOOTH",
"131 514 OFFCURVE",
"122 488 OFFCURVE",
"122 457 CURVE SMOOTH",
"122 429 OFFCURVE",
"131 404 OFFCURVE",
"150 365 CURVE SMOOTH",
"163 338 OFFCURVE",
"175 321 OFFCURVE",
"188 312 CURVE SMOOTH",
"201 301 OFFCURVE",
"212 293 OFFCURVE",
"221 289 CURVE",
"240 274 OFFCURVE",
"255 262 OFFCURVE",
"264 254 CURVE",
"292 236 LINE SMOOTH",
"311 224 OFFCURVE",
"325 208 OFFCURVE",
"325 177 CURVE SMOOTH",
"325 165 OFFCURVE",
"322 155 OFFCURVE",
"317 147 CURVE",
"300 127 OFFCURVE",
"286 113 OFFCURVE",
"276 106 CURVE SMOOTH",
"252 85 OFFCURVE",
"224 68 OFFCURVE",
"192 55 CURVE SMOOTH",
"171 48 OFFCURVE",
"155 43 OFFCURVE",
"144 40 CURVE",
"111 25 OFFCURVE",
"87 13 OFFCURVE",
"74 4 CURVE SMOOTH",
"68 1 OFFCURVE",
"65 -6 OFFCURVE",
"65 -17 CURVE SMOOTH",
"65 -34 OFFCURVE",
"70 -43 OFFCURVE",
"80 -43 CURVE"
);
}
);
userData = {
assembly = "NPUSHB[ ]	/* 21 values pushed */\0121 75 75 64 76 2 64 63 67 64 63 52 40 26 12 2 0 38 1 40 70 \012SROUND[ ]	/* SuperRound */\012MDAP[1]	/* MoveDirectAbsPt */\012SHZ[1]	/* ShiftZoneByLastPoint */\012RTG[ ]	/* RoundToGrid */\012SVTCA[0]	/* SetFreedomAndProjectionVectorToAxis */\012MDAP[1]	/* MoveDirectAbsPt */\012MDAP[1]	/* MoveDirectAbsPt */\012SVTCA[1]	/* SetFreedomAndProjectionVectorToAxis */\012MDAP[0]	/* MoveDirectAbsPt */\012MDAP[0]	/* MoveDirectAbsPt */\012MDAP[0]	/* MoveDirectAbsPt */\012MDAP[0]	/* MoveDirectAbsPt */\012MDAP[0]	/* MoveDirectAbsPt */\012MDAP[0]	/* MoveDirectAbsPt */\012MDAP[0]	/* MoveDirectAbsPt */\012MDAP[0]	/* MoveDirectAbsPt */\012SVTCA[0]	/* SetFreedomAndProjectionVectorToAxis */\012MDAP[0]	/* MoveDirectAbsPt */\012MDAP[0]	/* MoveDirectAbsPt */\012IUP[1]	/* InterpolateUntPts */\012IUP[0]	/* InterpolateUntPts */\012SVTCA[1]	/* SetFreedomAndProjectionVectorToAxis */\012MD[0]	/* MeasureDistance */\012ROUND[00]	/* Round */\012PUSHW[ ]	/* 2 values pushed */\01240 75 \012MD[0]	/* MeasureDistance */\012ROUND[00]	/* Round */\012SUB[ ]	/* Subtract */\012PUSHB[ ]	/* 1 value pushed */\01264 \012GT[ ]	/* GreaterThan */\012IF[ ]	/* If */\012SHPIX[ ]	/* ShiftZoneByPixel */\012SRP1[ ]	/* SetRefPoint1 */\012SHZ[1]	/* ShiftZoneByLastPoint */\012PUSHW[ ]	/* 2 values pushed */\01275 -64 \012SHPIX[ ]	/* ShiftZoneByPixel */\012EIF[ ]	/* EndIf */";
};
width = 356;
}
);
note = S;
unicode = 0053;
},
{
glyphname = Germandbls;
lastChange = "2022-03-02 02:51:37 +0000";
layers = (
{
layerId = "2018A826-CC5C-461A-95E5-9D849642E9B7";
paths = (
{
closed = 1;
nodes = (
"-103 -179 OFFCURVE",
"-100 -178 OFFCURVE",
"-97 -177 CURVE",
"-33 -135 OFFCURVE",
"24 -8 OFFCURVE",
"75 205 CURVE SMOOTH",
"78 221 OFFCURVE",
"81 234 OFFCURVE",
"84 243 CURVE",
"110 364 OFFCURVE",
"124 435 OFFCURVE",
"126 456 CURVE SMOOTH",
"127 465 OFFCURVE",
"130 483 OFFCURVE",
"135 512 CURVE",
"150 544 OFFCURVE",
"150 545 OFFCURVE",
"186 545 CURVE SMOOTH",
"219 545 OFFCURVE",
"251 537 OFFCURVE",
"283 522 CURVE SMOOTH",
"310 507 OFFCURVE",
"321 493 OFFCURVE",
"317 482 CURVE",
"320 455 OFFCURVE",
"303 425 OFFCURVE",
"265 392 CURVE SMOOTH",
"240 373 OFFCURVE",
"221 359 OFFCURVE",
"209 352 CURVE SMOOTH",
"185 336 OFFCURVE",
"166 324 OFFCURVE",
"152 315 CURVE",
"145 296 OFFCURVE",
"142 283 OFFCURVE",
"143 275 CURVE",
"144 274 LINE",
"145 267 OFFCURVE",
"149 261 OFFCURVE",
"156 258 CURVE SMOOTH",
"166 255 LINE SMOOTH",
"173 252 OFFCURVE",
"181 251 OFFCURVE",
"190 251 CURVE SMOOTH",
"199 250 OFFCURVE",
"205 248 OFFCURVE",
"210 245 CURVE",
"223 246 LINE",
"238 239 LINE SMOOTH",
"251 233 OFFCURVE",
"259 228 OFFCURVE",
"264 224 CURVE SMOOTH",
"266 222 OFFCURVE",
"273 213 OFFCURVE",
"285 197 CURVE SMOOTH",
"302 174 OFFCURVE",
"310 159 OFFCURVE",
"309 151 CURVE",
"300 128 OFFCURVE",
"292 112 OFFCURVE",
"285 101 CURVE",
"221 23 LINE",
"200 2 OFFCURVE",
"166 -9 OFFCURVE",
"121 -9 CURVE",
"107 -11 LINE SMOOTH",
"101 -12 OFFCURVE",
"96 -12 OFFCURVE",
"92 -12 CURVE SMOOTH",
"89 -12 LINE",
"76 -8 OFFCURVE",
"70 -13 OFFCURVE",
"70 -26 CURVE SMOOTH",
"70 -33 OFFCURVE",
"74 -38 OFFCURVE",
"81 -40 CURVE SMOOTH",
"102 -46 OFFCURVE",
"113 -49 OFFCURVE",
"116 -49 CURVE SMOOTH",
"169 -49 OFFCURVE",
"218 -26 OFFCURVE",
"263 20 CURVE SMOOTH",
"318 77 OFFCURVE",
"344 123 OFFCURVE",
"344 160 CURVE SMOOTH",
"343 177 OFFCURVE",
"339 191 OFFCURVE",
"331 203 CURVE",
"306 230 LINE",
"291 255 OFFCURVE",
"266 275 OFFCURVE",
"231 289 CURVE",
"215 293 OFFCURVE",
"203 295 OFFCURVE",
"196 295 CURVE",
"219 311 LINE SMOOTH",
"250 331 OFFCURVE",
"270 345 OFFCURVE",
"279 354 CURVE SMOOTH",
"327 401 OFFCURVE",
"356 452 OFFCURVE",
"356 485 CURVE SMOOTH",
"356 507 OFFCURVE",
"342 525 OFFCURVE",
"315 539 CURVE",
"279 563 OFFCURVE",
"236 575 OFFCURVE",
"186 575 CURVE SMOOTH",
"148 575 OFFCURVE",
"123 564 OFFCURVE",
"112 541 CURVE SMOOTH",
"107 532 OFFCURVE",
"102 504 OFFCURVE",
"96 459 CURVE SMOOTH",
"88 411 OFFCURVE",
"82 377 OFFCURVE",
"77 356 CURVE SMOOTH",
"72 325 OFFCURVE",
"65 292 OFFCURVE",
"55 255 CURVE SMOOTH",
"48 231 OFFCURVE",
"45 216 OFFCURVE",
"44 209 CURVE SMOOTH",
"33 166 OFFCURVE",
"26 138 OFFCURVE",
"21 127 CURVE",
"-25 -25 LINE",
"-46 -84 OFFCURVE",
"-75 -127 OFFCURVE",
"-114 -152 CURVE SMOOTH",
"-119 -155 OFFCURVE",
"-121 -159 OFFCURVE",
"-121 -164 CURVE SMOOTH",
"-121 -174 OFFCURVE",
"-116 -179 OFFCURVE",
"-106 -179 CURVE SMOOTH"
);
}
);
width = 353;
}
);
unicode = 1E9E;
},
{
glyphname = Schwa;
lastChange = "2022-03-02 02:51:37 +0000";
layers = (
{
layerId = "2018A826-CC5C-461A-95E5-9D849642E9B7";
paths = (
{
closed = 1;
nodes = (
"136 -38 OFFCURVE",
"153 -34 OFFCURVE",
"168 -27 CURVE",
"214 3 LINE SMOOTH",
"245 24 OFFCURVE",
"282 56 OFFCURVE",
"324 101 CURVE SMOOTH",
"347 125 OFFCURVE",
"372 159 OFFCURVE",
"400 204 CURVE SMOOTH",
"420 236 OFFCURVE",
"437 267 OFFCURVE",
"452 297 CURVE",
"454 299 LINE",
"459 312 OFFCURVE",
"463 320 OFFCURVE",
"466 322 CURVE",
"498 390 LINE SMOOTH",
"511 418 OFFCURVE",
"515 449 OFFCURVE",
"515 480 CURVE SMOOTH",
"515 533 OFFCURVE",
"501 574 OFFCURVE",
"473 603 CURVE SMOOTH",
"465 612 OFFCURVE",
"456 618 OFFCURVE",
"445 622 CURVE",
"415 629 LINE SMOOTH",
"408 630 OFFCURVE",
"400 631 OFFCURVE",
"391 631 CURVE SMOOTH",
"372 631 OFFCURVE",
"348 629 OFFCURVE",
"317 624 CURVE SMOOTH",
"273 617 OFFCURVE",
"204 601 OFFCURVE",
"167 582 CURVE SMOOTH",
"145 571 OFFCURVE",
"123 557 OFFCURVE",
"100 540 CURVE",
"92 536 OFFCURVE",
"88 529 OFFCURVE",
"88 519 CURVE SMOOTH",
"88 504 OFFCURVE",
"93 497 OFFCURVE",
"102 497 CURVE SMOOTH",
"106 497 OFFCURVE",
"117 503 OFFCURVE",
"135 516 CURVE SMOOTH",
"155 531 OFFCURVE",
"168 539 OFFCURVE",
"174 542 CURVE",
"205 553 OFFCURVE",
"228 560 OFFCURVE",
"241 563 CURVE SMOOTH",
"276 570 OFFCURVE",
"302 575 OFFCURVE",
"317 577 CURVE SMOOTH",
"380 586 LINE",
"389 586 OFFCURVE",
"399 585 OFFCURVE",
"409 582 CURVE",
"409 587 LINE",
"410 582 LINE",
"427 582 OFFCURVE",
"443 574 OFFCURVE",
"458 559 CURVE SMOOTH",
"469 548 OFFCURVE",
"478 526 OFFCURVE",
"485 493 CURVE",
"486 481 OFFCURVE",
"484 467 OFFCURVE",
"480 452 CURVE",
"477 431 OFFCURVE",
"470 409 OFFCURVE",
"461 386 CURVE SMOOTH",
"458 380 OFFCURVE",
"455 373 OFFCURVE",
"450 364 CURVE",
"425 366 OFFCURVE",
"348 362 OFFCURVE",
"318 362 CURVE SMOOTH",
"263 362 OFFCURVE",
"224 344 OFFCURVE",
"190 328 CURVE SMOOTH",
"105 287 OFFCURVE",
"66 205 OFFCURVE",
"51 140 CURVE SMOOTH",
"47 121 OFFCURVE",
"45 103 OFFCURVE",
"45 85 CURVE SMOOTH",
"45 40 OFFCURVE",
"55 2 OFFCURVE",
"60 -10 CURVE",
"61 -10 LINE",
"76 -29 OFFCURVE",
"82 -38 OFFCURVE",
"119 -38 CURVE SMOOTH"
);
},
{
closed = 1;
nodes = (
"98 8 OFFCURVE",
"86 35 OFFCURVE",
"86 59 CURVE SMOOTH",
"86 139 OFFCURVE",
"108 189 OFFCURVE",
"133 234 CURVE SMOOTH",
"140 247 OFFCURVE",
"179 283 OFFCURVE",
"233 307 CURVE SMOOTH",
"251 315 OFFCURVE",
"271 317 OFFCURVE",
"292 323 CURVE SMOOTH",
"308 328 OFFCURVE",
"327 330 OFFCURVE",
"345 330 CURVE SMOOTH",
"377 330 OFFCURVE",
"408 324 OFFCURVE",
"427 318 CURVE",
"405 279 OFFCURVE",
"389 250 OFFCURVE",
"378 234 CURVE SMOOTH",
"355 197 OFFCURVE",
"331 166 OFFCURVE",
"306 139 CURVE SMOOTH",
"276 106 OFFCURVE",
"244 78 OFFCURVE",
"211 57 CURVE SMOOTH",
"180 34 OFFCURVE",
"149 8 OFFCURVE",
"122 8 CURVE SMOOTH"
);
}
);
width = 518;
}
);
unicode = 018F;
},
{
glyphname = T;
lastChange = "2022-03-02 02:51:37 +0000";
layers = (
{
layerId = "2018A826-CC5C-461A-95E5-9D849642E9B7";
paths = (
{
closed = 1;
nodes = (
"124 -70 OFFCURVE",
"131 -61 OFFCURVE",
"134 -42 CURVE SMOOTH",
"138 -17 OFFCURVE",
"141 2 OFFCURVE",
"144 15 CURVE SMOOTH",
"145 22 OFFCURVE",
"144 44 OFFCURVE",
"144 78 CURVE SMOOTH",
"144 95 OFFCURVE",
"145 109 OFFCURVE",
"148 120 CURVE SMOOTH",
"153 150 OFFCURVE",
"157 172 OFFCURVE",
"159 186 CURVE",
"168 225 OFFCURVE",
"175 253 OFFCURVE",
"180 270 CURVE SMOOTH",
"193 333 OFFCURVE",
"204 379 OFFCURVE",
"211 408 CURVE SMOOTH",
"220 450 OFFCURVE",
"228 491 OFFCURVE",
"234 531 CURVE",
"261 531 OFFCURVE",
"288 532 OFFCURVE",
"315 535 CURVE SMOOTH",
"308 534 OFFCURVE",
"344 534 OFFCURVE",
"423 534 CURVE SMOOTH",
"436 534 OFFCURVE",
"442 544 OFFCURVE",
"442 565 CURVE SMOOTH",
"442 578 OFFCURVE",
"438 584 OFFCURVE",
"430 584 CURVE SMOOTH",
"419 584 OFFCURVE",
"400 583 OFFCURVE",
"372 581 CURVE SMOOTH",
"344 578 OFFCURVE",
"326 577 OFFCURVE",
"319 577 CURVE SMOOTH",
"205 580 LINE SMOOTH",
"182 581 OFFCURVE",
"158 581 OFFCURVE",
"132 581 CURVE SMOOTH",
"107 580 LINE",
"84 579 LINE SMOOTH",
"75 579 OFFCURVE",
"62 578 OFFCURVE",
"45 577 CURVE SMOOTH",
"28 575 OFFCURVE",
"15 574 OFFCURVE",
"5 574 CURVE SMOOTH",
"-8 574 OFFCURVE",
"-14 564 OFFCURVE",
"-14 544 CURVE SMOOTH",
"-14 524 OFFCURVE",
"12 521 OFFCURVE",
"40 521 CURVE SMOOTH",
"53 521 OFFCURVE",
"67 522 OFFCURVE",
"78 522 CURVE SMOOTH",
"84 522 OFFCURVE",
"92 524 OFFCURVE",
"102 527 CURVE SMOOTH",
"112 530 OFFCURVE",
"120 531 OFFCURVE",
"126 531 CURVE SMOOTH",
"200 531 LINE",
"193 482 OFFCURVE",
"186 442 OFFCURVE",
"181 410 CURVE",
"147 274 LINE SMOOTH",
"140 245 OFFCURVE",
"134 218 OFFCURVE",
"129 191 CURVE SMOOTH",
"114 103 OFFCURVE",
"106 41 OFFCURVE",
"105 5 CURVE SMOOTH",
"103 -21 OFFCURVE",
"99 -40 OFFCURVE",
"99 -51 CURVE SMOOTH",
"99 -64 OFFCURVE",
"103 -70 OFFCURVE",
"112 -70 CURVE SMOOTH"
);
}
);
userData = {
assembly = "NPUSHB[ ]	/* 24 values pushed */\0121 57 57 64 58 2 54 51 39 36 35 6 4 43 35 26 20 18 2 0 24 1 43 70 \012SROUND[ ]	/* SuperRound */\012MDAP[1]	/* MoveDirectAbsPt */\012SHZ[1]	/* ShiftZoneByLastPoint */\012RTG[ ]	/* RoundToGrid */\012SVTCA[0]	/* SetFreedomAndProjectionVectorToAxis */\012MDAP[1]	/* MoveDirectAbsPt */\012MDAP[1]	/* MoveDirectAbsPt */\012SVTCA[1]	/* SetFreedomAndProjectionVectorToAxis */\012MDAP[0]	/* MoveDirectAbsPt */\012MDAP[0]	/* MoveDirectAbsPt */\012MDAP[0]	/* MoveDirectAbsPt */\012MDAP[0]	/* MoveDirectAbsPt */\012MDAP[0]	/* MoveDirectAbsPt */\012MDAP[0]	/* MoveDirectAbsPt */\012SVTCA[0]	/* SetFreedomAndProjectionVectorToAxis */\012MDAP[0]	/* MoveDirectAbsPt */\012MDAP[0]	/* MoveDirectAbsPt */\012MDAP[0]	/* MoveDirectAbsPt */\012MDAP[0]	/* MoveDirectAbsPt */\012MDAP[0]	/* MoveDirectAbsPt */\012MDAP[0]	/* MoveDirectAbsPt */\012MDAP[0]	/* MoveDirectAbsPt */\012IUP[1]	/* InterpolateUntPts */\012IUP[0]	/* InterpolateUntPts */\012SVTCA[1]	/* SetFreedomAndProjectionVectorToAxis */\012MD[0]	/* MeasureDistance */\012ROUND[00]	/* Round */\012PUSHW[ ]	/* 2 values pushed */\01243 57 \012MD[0]	/* MeasureDistance */\012ROUND[00]	/* Round */\012SUB[ ]	/* Subtract */\012PUSHB[ ]	/* 1 value pushed */\01264 \012GT[ ]	/* GreaterThan */\012IF[ ]	/* If */\012SHPIX[ ]	/* ShiftZoneByPixel */\012SRP1[ ]	/* SetRefPoint1 */\012SHZ[1]	/* ShiftZoneByLastPoint */\012PUSHW[ ]	/* 2 values pushed */\01257 -64 \012SHPIX[ ]	/* ShiftZoneByPixel */\012EIF[ ]	/* EndIf */";
};
width = 316;
}
);
note = T;
unicode = 0054;
},
{
glyphname = U;
lastChange = "2022-03-02 02:51:37 +0000";
layers = (
{
layerId = "2018A826-CC5C-461A-95E5-9D849642E9B7";
paths = (
{
closed = 1;
nodes = (
"225 -17 OFFCURVE",
"253 -6 OFFCURVE",
"281 19 CURVE SMOOTH",
"310 46 OFFCURVE",
"334 84 OFFCURVE",
"351 135 CURVE SMOOTH",
"364 174 OFFCURVE",
"375 211 OFFCURVE",
"384 245 CURVE SMOOTH",
"401 314 OFFCURVE",
"415 389 OFFCURVE",
"424 468 CURVE SMOOTH",
"433 540 LINE SMOOTH",
"436 559 OFFCURVE",
"431 569 OFFCURVE",
"418 569 CURVE SMOOTH",
"407 569 OFFCURVE",
"400 560 OFFCURVE",
"399 542 CURVE SMOOTH",
"391 469 LINE SMOOTH",
"380 384 OFFCURVE",
"367 313 OFFCURVE",
"352 257 CURVE SMOOTH",
"322 152 LINE SMOOTH",
"309 95 OFFCURVE",
"247 33 OFFCURVE",
"210 32 CURVE SMOOTH",
"145 29 OFFCURVE",
"123 66 OFFCURVE",
"110 163 CURVE SMOOTH",
"108 178 OFFCURVE",
"107 194 OFFCURVE",
"107 211 CURVE SMOOTH",
"107 221 OFFCURVE",
"107 231 OFFCURVE",
"108 242 CURVE SMOOTH",
"114 329 LINE SMOOTH",
"118 404 OFFCURVE",
"121 453 OFFCURVE",
"124 478 CURVE SMOOTH",
"133 549 LINE SMOOTH",
"136 569 OFFCURVE",
"131 579 OFFCURVE",
"118 579 CURVE SMOOTH",
"107 579 OFFCURVE",
"101 571 OFFCURVE",
"99 554 CURVE SMOOTH",
"91 480 LINE SMOOTH",
"86 408 OFFCURVE",
"82 357 OFFCURVE",
"81 327 CURVE SMOOTH",
"79 288 OFFCURVE",
"76 251 OFFCURVE",
"76 215 CURVE SMOOTH",
"76 192 OFFCURVE",
"77 171 OFFCURVE",
"80 150 CURVE SMOOTH",
"89 87 OFFCURVE",
"100 46 OFFCURVE",
"114 25 CURVE SMOOTH",
"133 -3 OFFCURVE",
"161 -17 OFFCURVE",
"196 -17 CURVE SMOOTH"
);
}
);
userData = {
assembly = "NPUSHB[ ]	/* 18 values pushed */\0121 48 48 64 49 0 46 35 30 24 15 0 22 9 1 1 15 70 \012SROUND[ ]	/* SuperRound */\012MDAP[1]	/* MoveDirectAbsPt */\012SHZ[1]	/* ShiftZoneByLastPoint */\012RTG[ ]	/* RoundToGrid */\012SVTCA[0]	/* SetFreedomAndProjectionVectorToAxis */\012MIAP[1]	/* MoveIndirectAbsPt */\012MDAP[1]	/* MoveDirectAbsPt */\012SVTCA[1]	/* SetFreedomAndProjectionVectorToAxis */\012MDAP[0]	/* MoveDirectAbsPt */\012MDAP[0]	/* MoveDirectAbsPt */\012MDAP[0]	/* MoveDirectAbsPt */\012MDAP[0]	/* MoveDirectAbsPt */\012SVTCA[0]	/* SetFreedomAndProjectionVectorToAxis */\012MDAP[0]	/* MoveDirectAbsPt */\012MDAP[0]	/* MoveDirectAbsPt */\012IUP[1]	/* InterpolateUntPts */\012IUP[0]	/* InterpolateUntPts */\012SVTCA[1]	/* SetFreedomAndProjectionVectorToAxis */\012MD[0]	/* MeasureDistance */\012ROUND[00]	/* Round */\012PUSHW[ ]	/* 2 values pushed */\01215 48 \012MD[0]	/* MeasureDistance */\012ROUND[00]	/* Round */\012SUB[ ]	/* Subtract */\012PUSHB[ ]	/* 1 value pushed */\01264 \012GT[ ]	/* GreaterThan */\012IF[ ]	/* If */\012SHPIX[ ]	/* ShiftZoneByPixel */\012SRP1[ ]	/* SetRefPoint1 */\012SHZ[1]	/* ShiftZoneByLastPoint */\012PUSHW[ ]	/* 2 values pushed */\01248 -64 \012SHPIX[ ]	/* ShiftZoneByPixel */\012EIF[ ]	/* EndIf */";
};
width = 454;
}
);
note = U;
unicode = 0055;
},
{
glyphname = V;
lastChange = "2022-03-02 02:51:37 +0000";
layers = (
{
layerId = "2018A826-CC5C-461A-95E5-9D849642E9B7";
paths = (
{
closed = 1;
nodes = (
"196 -37 OFFCURVE",
"201 -33 OFFCURVE",
"205 -25 CURVE SMOOTH",
"235 30 OFFCURVE",
"258 71 OFFCURVE",
"274 98 CURVE SMOOTH",
"302 154 OFFCURVE",
"320 191 OFFCURVE",
"328 210 CURVE SMOOTH",
"348 261 OFFCURVE",
"364 304 OFFCURVE",
"376 339 CURVE SMOOTH",
"391 376 OFFCURVE",
"406 410 OFFCURVE",
"423 443 CURVE SMOOTH",
"445 486 OFFCURVE",
"461 518 OFFCURVE",
"471 540 CURVE SMOOTH",
"496 594 LINE SMOOTH",
"499 600 OFFCURVE",
"500 606 OFFCURVE",
"500 611 CURVE SMOOTH",
"500 626 OFFCURVE",
"495 633 OFFCURVE",
"486 633 CURVE SMOOTH",
"480 633 OFFCURVE",
"475 628 OFFCURVE",
"471 619 CURVE SMOOTH",
"438 552 OFFCURVE",
"414 503 OFFCURVE",
"397 470 CURVE SMOOTH",
"344 360 LINE",
"323 302 OFFCURVE",
"308 259 OFFCURVE",
"299 232 CURVE",
"270 159 OFFCURVE",
"228 89 OFFCURVE",
"212 64 CURVE",
"209 53 OFFCURVE",
"205 45 OFFCURVE",
"201 40 CURVE",
"201 49 LINE",
"191 96 OFFCURVE",
"184 134 OFFCURVE",
"180 165 CURVE SMOOTH",
"167 247 OFFCURVE",
"158 306 OFFCURVE",
"151 341 CURVE SMOOTH",
"127 486 LINE SMOOTH",
"113 553 OFFCURVE",
"105 594 OFFCURVE",
"102 610 CURVE",
"101 610 LINE",
"100 619 OFFCURVE",
"96 624 OFFCURVE",
"89 624 CURVE SMOOTH",
"80 624 OFFCURVE",
"70 612 OFFCURVE",
"70 595 CURVE SMOOTH",
"70 592 OFFCURVE",
"70 589 OFFCURVE",
"71 586 CURVE",
"73 586 LINE",
"77 554 OFFCURVE",
"80 530 OFFCURVE",
"81 514 CURVE",
"96 467 LINE",
"107 401 OFFCURVE",
"115 353 OFFCURVE",
"119 324 CURVE SMOOTH",
"141 196 OFFCURVE",
"158 100 OFFCURVE",
"170 36 CURVE",
"169 35 LINE",
"173 8 OFFCURVE",
"176 -9 OFFCURVE",
"178 -18 CURVE SMOOTH",
"181 -31 OFFCURVE",
"185 -37 OFFCURVE",
"191 -37 CURVE SMOOTH"
);
}
);
userData = {
assembly = "NPUSHB[ ]	/* 23 values pushed */\0121 62 62 64 63 59 44 34 33 31 28 27 59 44 42 28 19 18 57 14 1 28 70 \012SROUND[ ]	/* SuperRound */\012MDAP[1]	/* MoveDirectAbsPt */\012SHZ[1]	/* ShiftZoneByLastPoint */\012RTG[ ]	/* RoundToGrid */\012SVTCA[0]	/* SetFreedomAndProjectionVectorToAxis */\012MDAP[1]	/* MoveDirectAbsPt */\012MDAP[1]	/* MoveDirectAbsPt */\012SVTCA[1]	/* SetFreedomAndProjectionVectorToAxis */\012MDAP[0]	/* MoveDirectAbsPt */\012MDAP[0]	/* MoveDirectAbsPt */\012MDAP[0]	/* MoveDirectAbsPt */\012MDAP[0]	/* MoveDirectAbsPt */\012MDAP[0]	/* MoveDirectAbsPt */\012MDAP[0]	/* MoveDirectAbsPt */\012SVTCA[0]	/* SetFreedomAndProjectionVectorToAxis */\012MDAP[0]	/* MoveDirectAbsPt */\012MDAP[0]	/* MoveDirectAbsPt */\012MDAP[0]	/* MoveDirectAbsPt */\012MDAP[0]	/* MoveDirectAbsPt */\012MDAP[0]	/* MoveDirectAbsPt */\012MDAP[0]	/* MoveDirectAbsPt */\012IUP[1]	/* InterpolateUntPts */\012IUP[0]	/* InterpolateUntPts */\012SVTCA[1]	/* SetFreedomAndProjectionVectorToAxis */\012MD[0]	/* MeasureDistance */\012ROUND[00]	/* Round */\012PUSHW[ ]	/* 2 values pushed */\01228 62 \012MD[0]	/* MeasureDistance */\012ROUND[00]	/* Round */\012SUB[ ]	/* Subtract */\012PUSHB[ ]	/* 1 value pushed */\01264 \012GT[ ]	/* GreaterThan */\012IF[ ]	/* If */\012SHPIX[ ]	/* ShiftZoneByPixel */\012SRP1[ ]	/* SetRefPoint1 */\012SHZ[1]	/* ShiftZoneByLastPoint */\012PUSHW[ ]	/* 2 values pushed */\01262 -64 \012SHPIX[ ]	/* ShiftZoneByPixel */\012EIF[ ]	/* EndIf */";
};
width = 439;
}
);
note = V;
unicode = 0056;
},
{
glyphname = W;
lastChange = "2022-03-02 02:51:37 +0000";
layers = (
{
layerId = "2018A826-CC5C-461A-95E5-9D849642E9B7";
paths = (
{
closed = 1;
nodes = (
"196 -37 OFFCURVE",
"201 -33 OFFCURVE",
"205 -25 CURVE SMOOTH",
"235 30 OFFCURVE",
"258 71 OFFCURVE",
"274 98 CURVE SMOOTH",
"293 135 OFFCURVE",
"310 173 OFFCURVE",
"326 210 CURVE SMOOTH",
"349 263 LINE",
"368 149 LINE",
"387 32 LINE SMOOTH",
"390 8 OFFCURVE",
"393 -9 OFFCURVE",
"395 -18 CURVE",
"396 -18 LINE",
"398 -30 OFFCURVE",
"403 -36 OFFCURVE",
"410 -36 CURVE SMOOTH",
"415 -36 OFFCURVE",
"420 -32 OFFCURVE",
"424 -25 CURVE SMOOTH",
"453 30 OFFCURVE",
"476 71 OFFCURVE",
"491 98 CURVE SMOOTH",
"515 145 OFFCURVE",
"533 182 OFFCURVE",
"545 210 CURVE SMOOTH",
"585 305 OFFCURVE",
"617 383 OFFCURVE",
"641 443 CURVE",
"689 541 LINE SMOOTH",
"700 562 OFFCURVE",
"708 579 OFFCURVE",
"714 594 CURVE SMOOTH",
"717 600 OFFCURVE",
"718 606 OFFCURVE",
"718 611 CURVE SMOOTH",
"718 626 OFFCURVE",
"713 633 OFFCURVE",
"704 633 CURVE SMOOTH",
"698 633 OFFCURVE",
"693 628 OFFCURVE",
"689 619 CURVE SMOOTH",
"664 566 LINE SMOOTH",
"642 522 OFFCURVE",
"626 490 OFFCURVE",
"615 470 CURVE SMOOTH",
"587 415 OFFCURVE",
"569 378 OFFCURVE",
"562 361 CURVE SMOOTH",
"541 303 OFFCURVE",
"527 260 OFFCURVE",
"519 232 CURVE",
"496 183 OFFCURVE",
"478 148 OFFCURVE",
"467 127 CURVE SMOOTH",
"450 97 OFFCURVE",
"438 75 OFFCURVE",
"430 62 CURVE SMOOTH",
"420 42 LINE",
"420 49 LINE",
"400 165 LINE",
"372 324 LINE",
"424 443 LINE",
"447 488 OFFCURVE",
"462 521 OFFCURVE",
"471 540 CURVE SMOOTH",
"496 594 LINE SMOOTH",
"499 600 OFFCURVE",
"500 606 OFFCURVE",
"500 611 CURVE SMOOTH",
"500 626 OFFCURVE",
"495 633 OFFCURVE",
"486 633 CURVE SMOOTH",
"480 633 OFFCURVE",
"475 628 OFFCURVE",
"471 619 CURVE SMOOTH",
"434 545 LINE",
"397 470 LINE",
"360 396 LINE",
"344 485 LINE SMOOTH",
"336 522 OFFCURVE",
"328 564 OFFCURVE",
"320 610 CURVE SMOOTH",
"318 619 OFFCURVE",
"314 624 OFFCURVE",
"308 624 CURVE SMOOTH",
"296 624 OFFCURVE",
"285 608 OFFCURVE",
"288 591 CURVE SMOOTH",
"298 514 LINE",
"314 467 LINE",
"325 406 OFFCURVE",
"332 363 OFFCURVE",
"336 336 CURVE",
"319 288 OFFCURVE",
"306 253 OFFCURVE",
"299 231 CURVE SMOOTH",
"280 185 OFFCURVE",
"264 150 OFFCURVE",
"251 127 CURVE SMOOTH",
"212 64 LINE",
"209 53 OFFCURVE",
"205 45 OFFCURVE",
"201 40 CURVE",
"201 49 LINE",
"191 96 OFFCURVE",
"184 134 OFFCURVE",
"180 165 CURVE SMOOTH",
"167 247 OFFCURVE",
"158 306 OFFCURVE",
"151 341 CURVE SMOOTH",
"127 486 LINE",
"102 610 LINE SMOOTH",
"100 619 OFFCURVE",
"96 624 OFFCURVE",
"90 624 CURVE SMOOTH",
"80 624 OFFCURVE",
"70 612 OFFCURVE",
"70 595 CURVE SMOOTH",
"70 592 OFFCURVE",
"70 589 OFFCURVE",
"71 586 CURVE",
"73 586 LINE",
"77 554 OFFCURVE",
"80 530 OFFCURVE",
"81 514 CURVE",
"96 467 LINE",
"107 401 OFFCURVE",
"115 353 OFFCURVE",
"119 324 CURVE SMOOTH",
"141 196 OFFCURVE",
"158 100 OFFCURVE",
"170 36 CURVE",
"169 35 LINE",
"173 8 OFFCURVE",
"176 -9 OFFCURVE",
"178 -18 CURVE SMOOTH",
"181 -31 OFFCURVE",
"185 -37 OFFCURVE",
"191 -37 CURVE SMOOTH"
);
}
);
userData = {
assembly = "NPUSHB[ ]	/* 36 values pushed */\0121 119 119 64 120 117 99 78 72 55 43 40 39 18 117 99 98 95 87 69 63 55 53 40 31 30 115 85 11 26 14 13 1 1 40 70 \012SROUND[ ]	/* SuperRound */\012MDAP[1]	/* MoveDirectAbsPt */\012SHZ[1]	/* ShiftZoneByLastPoint */\012RTG[ ]	/* RoundToGrid */\012SVTCA[0]	/* SetFreedomAndProjectionVectorToAxis */\012MIAP[1]	/* MoveIndirectAbsPt */\012ALIGNRP[ ]	/* AlignRelativePt */\012MDAP[1]	/* MoveDirectAbsPt */\012ALIGNRP[ ]	/* AlignRelativePt */\012MDAP[1]	/* MoveDirectAbsPt */\012ALIGNRP[ ]	/* AlignRelativePt */\012SVTCA[1]	/* SetFreedomAndProjectionVectorToAxis */\012MDAP[0]	/* MoveDirectAbsPt */\012MDAP[0]	/* MoveDirectAbsPt */\012MDAP[0]	/* MoveDirectAbsPt */\012MDAP[0]	/* MoveDirectAbsPt */\012MDAP[0]	/* MoveDirectAbsPt */\012MDAP[0]	/* MoveDirectAbsPt */\012MDAP[0]	/* MoveDirectAbsPt */\012MDAP[0]	/* MoveDirectAbsPt */\012MDAP[0]	/* MoveDirectAbsPt */\012MDAP[0]	/* MoveDirectAbsPt */\012MDAP[0]	/* MoveDirectAbsPt */\012MDAP[0]	/* MoveDirectAbsPt */\012SVTCA[0]	/* SetFreedomAndProjectionVectorToAxis */\012MDAP[0]	/* MoveDirectAbsPt */\012MDAP[0]	/* MoveDirectAbsPt */\012MDAP[0]	/* MoveDirectAbsPt */\012MDAP[0]	/* MoveDirectAbsPt */\012MDAP[0]	/* MoveDirectAbsPt */\012MDAP[0]	/* MoveDirectAbsPt */\012MDAP[0]	/* MoveDirectAbsPt */\012MDAP[0]	/* MoveDirectAbsPt */\012IUP[1]	/* InterpolateUntPts */\012IUP[0]	/* InterpolateUntPts */\012SVTCA[1]	/* SetFreedomAndProjectionVectorToAxis */\012MD[0]	/* MeasureDistance */\012ROUND[00]	/* Round */\012PUSHW[ ]	/* 2 values pushed */\01240 119 \012MD[0]	/* MeasureDistance */\012ROUND[00]	/* Round */\012SUB[ ]	/* Subtract */\012PUSHB[ ]	/* 1 value pushed */\01264 \012GT[ ]	/* GreaterThan */\012IF[ ]	/* If */\012SHPIX[ ]	/* ShiftZoneByPixel */\012SRP1[ ]	/* SetRefPoint1 */\012SHZ[1]	/* ShiftZoneByLastPoint */\012PUSHW[ ]	/* 2 values pushed */\012119 -64 \012SHPIX[ ]	/* ShiftZoneByPixel */\012EIF[ ]	/* EndIf */";
};
width = 668;
}
);
note = W;
unicode = 0057;
},
{
glyphname = X;
lastChange = "2022-03-02 02:51:37 +0000";
layers = (
{
layerId = "2018A826-CC5C-461A-95E5-9D849642E9B7";
paths = (
{
closed = 1;
nodes = (
"44 -33 OFFCURVE",
"49 -29 OFFCURVE",
"53 -21 CURVE SMOOTH",
"90 58 LINE",
"121 110 OFFCURVE",
"145 147 OFFCURVE",
"161 169 CURVE SMOOTH",
"190 213 OFFCURVE",
"218 253 OFFCURVE",
"245 288 CURVE SMOOTH",
"265 314 LINE",
"270 303 OFFCURVE",
"272 297 OFFCURVE",
"273 296 CURVE",
"313 197 LINE SMOOTH",
"315 191 OFFCURVE",
"319 176 OFFCURVE",
"324 153 CURVE SMOOTH",
"328 134 OFFCURVE",
"333 119 OFFCURVE",
"338 106 CURVE SMOOTH",
"358 58 OFFCURVE",
"370 31 OFFCURVE",
"373 26 CURVE SMOOTH",
"399 -9 LINE SMOOTH",
"403 -14 OFFCURVE",
"407 -16 OFFCURVE",
"412 -16 CURVE SMOOTH",
"426 -16 OFFCURVE",
"433 -7 OFFCURVE",
"433 11 CURVE SMOOTH",
"433 14 OFFCURVE",
"432 18 OFFCURVE",
"431 21 CURVE SMOOTH",
"406 67 OFFCURVE",
"385 106 OFFCURVE",
"366 138 CURVE",
"354 173 OFFCURVE",
"346 201 OFFCURVE",
"342 221 CURVE",
"324 270 OFFCURVE",
"311 304 OFFCURVE",
"302 324 CURVE SMOOTH",
"299 333 OFFCURVE",
"296 341 OFFCURVE",
"294 348 CURVE",
"298 354 OFFCURVE",
"301 358 OFFCURVE",
"304 361 CURVE",
"304 363 LINE",
"368 455 LINE SMOOTH",
"438 554 OFFCURVE",
"475 607 OFFCURVE",
"479 614 CURVE SMOOTH",
"482 620 OFFCURVE",
"484 627 OFFCURVE",
"484 634 CURVE SMOOTH",
"484 654 OFFCURVE",
"479 664 OFFCURVE",
"468 664 CURVE SMOOTH",
"464 664 OFFCURVE",
"460 661 OFFCURVE",
"457 656 CURVE SMOOTH",
"439 629 OFFCURVE",
"424 606 OFFCURVE",
"412 587 CURVE SMOOTH",
"383 544 OFFCURVE",
"361 512 OFFCURVE",
"346 491 CURVE SMOOTH",
"315 449 OFFCURVE",
"294 419 OFFCURVE",
"281 400 CURVE",
"280 395 OFFCURVE",
"278 392 OFFCURVE",
"277 391 CURVE",
"264 416 OFFCURVE",
"255 436 OFFCURVE",
"249 449 CURVE SMOOTH",
"226 496 OFFCURVE",
"202 534 OFFCURVE",
"179 561 CURVE",
"177 561 LINE",
"154 582 OFFCURVE",
"137 597 OFFCURVE",
"126 605 CURVE SMOOTH",
"124 607 OFFCURVE",
"122 608 OFFCURVE",
"119 608 CURVE SMOOTH",
"110 608 OFFCURVE",
"101 592 OFFCURVE",
"101 577 CURVE SMOOTH",
"101 553 OFFCURVE",
"138 544 OFFCURVE",
"158 520 CURVE SMOOTH",
"170 506 OFFCURVE",
"181 490 OFFCURVE",
"191 473 CURVE SMOOTH",
"196 464 OFFCURVE",
"206 444 OFFCURVE",
"220 415 CURVE SMOOTH",
"249 354 LINE",
"227 324 LINE",
"137 202 LINE",
"90 130 OFFCURVE",
"54 65 OFFCURVE",
"29 7 CURVE SMOOTH",
"26 1 OFFCURVE",
"25 -5 OFFCURVE",
"25 -11 CURVE SMOOTH",
"25 -26 OFFCURVE",
"30 -33 OFFCURVE",
"39 -33 CURVE SMOOTH"
);
}
);
userData = {
assembly = "NPUSHB[ ]	/* 27 values pushed */\0121 87 87 64 88 85 73 69 68 64 31 85 61 51 43 16 6 4 3 83 41 1 18 1 1 43 70 \012SROUND[ ]	/* SuperRound */\012MDAP[1]	/* MoveDirectAbsPt */\012SHZ[1]	/* ShiftZoneByLastPoint */\012RTG[ ]	/* RoundToGrid */\012SVTCA[0]	/* SetFreedomAndProjectionVectorToAxis */\012MIAP[1]	/* MoveIndirectAbsPt */\012MIAP[1]	/* MoveIndirectAbsPt */\012MDAP[1]	/* MoveDirectAbsPt */\012SVTCA[1]	/* SetFreedomAndProjectionVectorToAxis */\012MDAP[0]	/* MoveDirectAbsPt */\012MDAP[0]	/* MoveDirectAbsPt */\012MDAP[0]	/* MoveDirectAbsPt */\012MDAP[0]	/* MoveDirectAbsPt */\012MDAP[0]	/* MoveDirectAbsPt */\012MDAP[0]	/* MoveDirectAbsPt */\012MDAP[0]	/* MoveDirectAbsPt */\012MDAP[0]	/* MoveDirectAbsPt */\012SVTCA[0]	/* SetFreedomAndProjectionVectorToAxis */\012MDAP[0]	/* MoveDirectAbsPt */\012MDAP[0]	/* MoveDirectAbsPt */\012MDAP[0]	/* MoveDirectAbsPt */\012MDAP[0]	/* MoveDirectAbsPt */\012MDAP[0]	/* MoveDirectAbsPt */\012IUP[1]	/* InterpolateUntPts */\012IUP[0]	/* InterpolateUntPts */\012SVTCA[1]	/* SetFreedomAndProjectionVectorToAxis */\012MD[0]	/* MeasureDistance */\012ROUND[00]	/* Round */\012PUSHW[ ]	/* 2 values pushed */\01243 87 \012MD[0]	/* MeasureDistance */\012ROUND[00]	/* Round */\012SUB[ ]	/* Subtract */\012PUSHB[ ]	/* 1 value pushed */\01264 \012GT[ ]	/* GreaterThan */\012IF[ ]	/* If */\012SHPIX[ ]	/* ShiftZoneByPixel */\012SRP1[ ]	/* SetRefPoint1 */\012SHZ[1]	/* ShiftZoneByLastPoint */\012PUSHW[ ]	/* 2 values pushed */\01287 -64 \012SHPIX[ ]	/* ShiftZoneByPixel */\012EIF[ ]	/* EndIf */";
};
width = 468;
}
);
note = X;
unicode = 0058;
},
{
glyphname = Y;
lastChange = "2022-03-02 02:51:37 +0000";
layers = (
{
layerId = "2018A826-CC5C-461A-95E5-9D849642E9B7";
paths = (
{
closed = 1;
nodes = (
"46 -140 OFFCURVE",
"51 -132 OFFCURVE",
"53 -116 CURVE",
"70 -42 OFFCURVE",
"102 39 OFFCURVE",
"148 126 CURVE",
"160 125 OFFCURVE",
"174 142 OFFCURVE",
"169 159 CURVE",
"169 161 LINE",
"178 177 OFFCURVE",
"187 190 OFFCURVE",
"194 199 CURVE",
"216 237 OFFCURVE",
"239 278 OFFCURVE",
"264 323 CURVE SMOOTH",
"327 439 OFFCURVE",
"394 540 OFFCURVE",
"464 626 CURVE SMOOTH",
"467 630 OFFCURVE",
"469 634 OFFCURVE",
"469 639 CURVE SMOOTH",
"469 655 OFFCURVE",
"453 671 OFFCURVE",
"441 671 CURVE SMOOTH",
"436 671 OFFCURVE",
"433 669 OFFCURVE",
"430 666 CURVE SMOOTH",
"392 623 OFFCURVE",
"357 573 OFFCURVE",
"325 516 CURVE SMOOTH",
"242 354 LINE SMOOTH",
"209 296 OFFCURVE",
"186 255 OFFCURVE",
"171 230 CURVE",
"169 228 OFFCURVE",
"167 227 OFFCURVE",
"166 227 CURVE SMOOTH",
"153 227 OFFCURVE",
"137 280 OFFCURVE",
"120 387 CURVE SMOOTH",
"107 472 OFFCURVE",
"98 540 OFFCURVE",
"95 591 CURVE",
"93 600 OFFCURVE",
"90 604 OFFCURVE",
"86 604 CURVE SMOOTH",
"79 604 OFFCURVE",
"70 592 OFFCURVE",
"61 569 CURVE",
"131 170 LINE",
"70 47 OFFCURVE",
"34 -46 OFFCURVE",
"21 -108 CURVE",
"20 -129 OFFCURVE",
"25 -140 OFFCURVE",
"37 -140 CURVE SMOOTH"
);
}
);
userData = {
assembly = "NPUSHB[ ]	/* 23 values pushed */\0121 44 44 64 45 42 29 23 13 12 42 21 19 17 13 12 7 6 39 15 1 17 70 \012SROUND[ ]	/* SuperRound */\012MDAP[1]	/* MoveDirectAbsPt */\012SHZ[1]	/* ShiftZoneByLastPoint */\012RTG[ ]	/* RoundToGrid */\012SVTCA[0]	/* SetFreedomAndProjectionVectorToAxis */\012MDAP[1]	/* MoveDirectAbsPt */\012MDAP[1]	/* MoveDirectAbsPt */\012SVTCA[1]	/* SetFreedomAndProjectionVectorToAxis */\012MDAP[0]	/* MoveDirectAbsPt */\012MDAP[0]	/* MoveDirectAbsPt */\012MDAP[0]	/* MoveDirectAbsPt */\012MDAP[0]	/* MoveDirectAbsPt */\012MDAP[0]	/* MoveDirectAbsPt */\012MDAP[0]	/* MoveDirectAbsPt */\012MDAP[0]	/* MoveDirectAbsPt */\012MDAP[0]	/* MoveDirectAbsPt */\012SVTCA[0]	/* SetFreedomAndProjectionVectorToAxis */\012MDAP[0]	/* MoveDirectAbsPt */\012MDAP[0]	/* MoveDirectAbsPt */\012MDAP[0]	/* MoveDirectAbsPt */\012MDAP[0]	/* MoveDirectAbsPt */\012IUP[1]	/* InterpolateUntPts */\012IUP[0]	/* InterpolateUntPts */\012SVTCA[1]	/* SetFreedomAndProjectionVectorToAxis */\012MD[0]	/* MeasureDistance */\012ROUND[00]	/* Round */\012PUSHW[ ]	/* 2 values pushed */\01217 44 \012MD[0]	/* MeasureDistance */\012ROUND[00]	/* Round */\012SUB[ ]	/* Subtract */\012PUSHB[ ]	/* 1 value pushed */\01264 \012GT[ ]	/* GreaterThan */\012IF[ ]	/* If */\012SHPIX[ ]	/* ShiftZoneByPixel */\012SRP1[ ]	/* SetRefPoint1 */\012SHZ[1]	/* ShiftZoneByLastPoint */\012PUSHW[ ]	/* 2 values pushed */\01244 -64 \012SHPIX[ ]	/* ShiftZoneByPixel */\012EIF[ ]	/* EndIf */";
};
width = 340;
}
);
note = Y;
unicode = 0059;
},
{
glyphname = Z;
lastChange = "2022-03-02 02:51:37 +0000";
layers = (
{
layerId = "2018A826-CC5C-461A-95E5-9D849642E9B7";
paths = (
{
closed = 1;
nodes = (
"364 -17 OFFCURVE",
"370 -7 OFFCURVE",
"370 14 CURVE SMOOTH",
"370 22 OFFCURVE",
"368 28 OFFCURVE",
"364 31 CURVE SMOOTH",
"349 41 OFFCURVE",
"338 49 OFFCURVE",
"331 54 CURVE",
"323 57 OFFCURVE",
"315 59 OFFCURVE",
"306 59 CURVE SMOOTH",
"299 59 OFFCURVE",
"290 58 OFFCURVE",
"278 55 CURVE SMOOTH",
"266 52 OFFCURVE",
"257 50 OFFCURVE",
"250 50 CURVE SMOOTH",
"233 50 OFFCURVE",
"143 43 OFFCURVE",
"118 40 CURVE SMOOTH",
"108 38 OFFCURVE",
"99 37 OFFCURVE",
"93 37 CURVE SMOOTH",
"89 37 OFFCURVE",
"86 38 OFFCURVE",
"84 38 CURVE",
"103 77 OFFCURVE",
"120 107 OFFCURVE",
"133 128 CURVE SMOOTH",
"158 162 OFFCURVE",
"177 188 OFFCURVE",
"191 205 CURVE",
"226 258 OFFCURVE",
"250 297 OFFCURVE",
"265 321 CURVE",
"312 387 OFFCURVE",
"349 439 OFFCURVE",
"374 476 CURVE",
"466 584 LINE SMOOTH",
"469 588 OFFCURVE",
"471 594 OFFCURVE",
"471 602 CURVE SMOOTH",
"471 618 OFFCURVE",
"467 626 OFFCURVE",
"458 626 CURVE SMOOTH",
"457 626 LINE SMOOTH",
"445 625 OFFCURVE",
"427 625 OFFCURVE",
"402 625 CURVE SMOOTH",
"329 625 LINE SMOOTH",
"321 625 OFFCURVE",
"310 626 OFFCURVE",
"296 628 CURVE SMOOTH",
"282 630 OFFCURVE",
"270 631 OFFCURVE",
"261 631 CURVE SMOOTH",
"252 631 OFFCURVE",
"242 629 OFFCURVE",
"231 625 CURVE SMOOTH",
"217 619 OFFCURVE",
"207 616 OFFCURVE",
"202 615 CURVE SMOOTH",
"203 615 LINE SMOOTH",
"194 613 OFFCURVE",
"189 605 OFFCURVE",
"189 590 CURVE SMOOTH",
"189 574 OFFCURVE",
"194 566 OFFCURVE",
"204 566 CURVE",
"209 567 OFFCURVE",
"218 571 OFFCURVE",
"233 577 CURVE SMOOTH",
"242 581 OFFCURVE",
"251 583 OFFCURVE",
"258 583 CURVE SMOOTH",
"266 583 OFFCURVE",
"277 582 OFFCURVE",
"291 579 CURVE SMOOTH",
"305 576 OFFCURVE",
"317 575 OFFCURVE",
"326 575 CURVE SMOOTH",
"408 575 LINE",
"379 539 OFFCURVE",
"362 519 OFFCURVE",
"357 516 CURVE",
"242 359 LINE",
"208 306 OFFCURVE",
"184 265 OFFCURVE",
"169 236 CURVE",
"165 230 OFFCURVE",
"156 219 OFFCURVE",
"142 202 CURVE SMOOTH",
"128 185 OFFCURVE",
"117 171 OFFCURVE",
"110 160 CURVE SMOOTH",
"68 92 OFFCURVE",
"42 49 OFFCURVE",
"32 31 CURVE SMOOTH",
"30 27 OFFCURVE",
"29 23 OFFCURVE",
"29 18 CURVE SMOOTH",
"29 0 OFFCURVE",
"34 -9 OFFCURVE",
"45 -9 CURVE SMOOTH",
"63 -10 LINE",
"83 -11 LINE SMOOTH",
"99 -11 OFFCURVE",
"179 -5 OFFCURVE",
"204 -1 CURVE SMOOTH",
"221 2 OFFCURVE",
"234 3 OFFCURVE",
"245 3 CURVE SMOOTH",
"253 3 OFFCURVE",
"263 4 OFFCURVE",
"275 6 CURVE SMOOTH",
"286 8 OFFCURVE",
"294 9 OFFCURVE",
"299 9 CURVE SMOOTH",
"306 9 OFFCURVE",
"313 8 OFFCURVE",
"319 5 CURVE SMOOTH",
"322 4 OFFCURVE",
"327 0 OFFCURVE",
"336 -7 CURVE SMOOTH",
"344 -14 OFFCURVE",
"350 -17 OFFCURVE",
"353 -17 CURVE SMOOTH"
);
}
);
userData = {
assembly = "NPUSHB[ ]	/* 37 values pushed */\0121 87 87 64 88 85 83 81 80 73 72 68 67 63 60 59 32 19 10 85 73 72 70 68 67 59 46 25 10 77 41 1 27 1 1 46 70 \012SROUND[ ]	/* SuperRound */\012MDAP[1]	/* MoveDirectAbsPt */\012SHZ[1]	/* ShiftZoneByLastPoint */\012RTG[ ]	/* RoundToGrid */\012SVTCA[0]	/* SetFreedomAndProjectionVectorToAxis */\012MIAP[1]	/* MoveIndirectAbsPt */\012MIAP[1]	/* MoveIndirectAbsPt */\012MDAP[1]	/* MoveDirectAbsPt */\012SVTCA[1]	/* SetFreedomAndProjectionVectorToAxis */\012MDAP[0]	/* MoveDirectAbsPt */\012MDAP[0]	/* MoveDirectAbsPt */\012MDAP[0]	/* MoveDirectAbsPt */\012MDAP[0]	/* MoveDirectAbsPt */\012MDAP[0]	/* MoveDirectAbsPt */\012MDAP[0]	/* MoveDirectAbsPt */\012MDAP[0]	/* MoveDirectAbsPt */\012MDAP[0]	/* MoveDirectAbsPt */\012MDAP[0]	/* MoveDirectAbsPt */\012MDAP[0]	/* MoveDirectAbsPt */\012SVTCA[0]	/* SetFreedomAndProjectionVectorToAxis */\012MDAP[0]	/* MoveDirectAbsPt */\012MDAP[0]	/* MoveDirectAbsPt */\012MDAP[0]	/* MoveDirectAbsPt */\012MDAP[0]	/* MoveDirectAbsPt */\012MDAP[0]	/* MoveDirectAbsPt */\012MDAP[0]	/* MoveDirectAbsPt */\012MDAP[0]	/* MoveDirectAbsPt */\012MDAP[0]	/* MoveDirectAbsPt */\012MDAP[0]	/* MoveDirectAbsPt */\012MDAP[0]	/* MoveDirectAbsPt */\012MDAP[0]	/* MoveDirectAbsPt */\012MDAP[0]	/* MoveDirectAbsPt */\012MDAP[0]	/* MoveDirectAbsPt */\012IUP[1]	/* InterpolateUntPts */\012IUP[0]	/* InterpolateUntPts */\012SVTCA[1]	/* SetFreedomAndProjectionVectorToAxis */\012MD[0]	/* MeasureDistance */\012ROUND[00]	/* Round */\012PUSHW[ ]	/* 2 values pushed */\01246 87 \012MD[0]	/* MeasureDistance */\012ROUND[00]	/* Round */\012SUB[ ]	/* Subtract */\012PUSHB[ ]	/* 1 value pushed */\01264 \012GT[ ]	/* GreaterThan */\012IF[ ]	/* If */\012SHPIX[ ]	/* ShiftZoneByPixel */\012SRP1[ ]	/* SetRefPoint1 */\012SHZ[1]	/* ShiftZoneByLastPoint */\012PUSHW[ ]	/* 2 values pushed */\01287 -64 \012SHPIX[ ]	/* ShiftZoneByPixel */\012EIF[ ]	/* EndIf */";
};
width = 373;
}
);
note = Z;
unicode = 005A;
},
{
glyphname = a;
lastChange = "2022-03-02 02:51:37 +0000";
layers = (
{
layerId = "2018A826-CC5C-461A-95E5-9D849642E9B7";
paths = (
{
closed = 1;
nodes = (
"293 -12 OFFCURVE",
"308 4 OFFCURVE",
"308 16 CURVE SMOOTH",
"308 19 OFFCURVE",
"307 22 OFFCURVE",
"305 24 CURVE SMOOTH",
"292 41 OFFCURVE",
"285 64 OFFCURVE",
"284 93 CURVE SMOOTH",
"284 112 OFFCURVE",
"292 145 OFFCURVE",
"308 194 CURVE",
"318 210 OFFCURVE",
"323 223 OFFCURVE",
"323 234 CURVE SMOOTH",
"323 247 OFFCURVE",
"317 254 OFFCURVE",
"305 254 CURVE SMOOTH",
"294 254 OFFCURVE",
"287 249 OFFCURVE",
"284 240 CURVE SMOOTH",
"279 226 OFFCURVE",
"273 214 OFFCURVE",
"266 205 CURVE SMOOTH",
"239 169 OFFCURVE",
"191 128 OFFCURVE",
"120 81 CURVE SMOOTH",
"91 62 OFFCURVE",
"71 52 OFFCURVE",
"60 52 CURVE SMOOTH",
"51 52 OFFCURVE",
"47 57 OFFCURVE",
"47 68 CURVE SMOOTH",
"47 71 OFFCURVE",
"47 74 OFFCURVE",
"48 78 CURVE SMOOTH",
"51 98 OFFCURVE",
"66 124 OFFCURVE",
"91 157 CURVE SMOOTH",
"118 192 OFFCURVE",
"147 220 OFFCURVE",
"178 239 CURVE SMOOTH",
"197 251 OFFCURVE",
"211 257 OFFCURVE",
"222 257 CURVE SMOOTH",
"232 257 OFFCURVE",
"243 252 OFFCURVE",
"255 242 CURVE SMOOTH",
"259 239 OFFCURVE",
"263 239 OFFCURVE",
"267 239 CURVE SMOOTH",
"272 239 OFFCURVE",
"275 242 OFFCURVE",
"275 249 CURVE SMOOTH",
"275 269 OFFCURVE",
"261 279 OFFCURVE",
"232 279 CURVE SMOOTH",
"219 279 OFFCURVE",
"206 276 OFFCURVE",
"191 271 CURVE SMOOTH",
"116 243 OFFCURVE",
"19 134 OFFCURVE",
"10 66 CURVE SMOOTH",
"6 42 OFFCURVE",
"26 9 OFFCURVE",
"50 9 CURVE SMOOTH",
"70 9 OFFCURVE",
"87 15 OFFCURVE",
"101 28 CURVE SMOOTH",
"163 79 OFFCURVE",
"208 114 OFFCURVE",
"235 133 CURVE",
"243 136 OFFCURVE",
"248 132 OFFCURVE",
"248 120 CURVE SMOOTH",
"248 117 LINE",
"247 96 LINE SMOOTH",
"246 86 OFFCURVE",
"245 79 OFFCURVE",
"245 74 CURVE SMOOTH",
"246 37 OFFCURVE",
"256 10 OFFCURVE",
"273 -8 CURVE SMOOTH",
"276 -11 OFFCURVE",
"279 -12 OFFCURVE",
"282 -12 CURVE SMOOTH"
);
}
);
userData = {
assembly = "NPUSHB[ ]	/* 30 values pushed */\0121 59 59 64 60 57 55 47 39 37 36 34 22 18 57 45 37 36 32 25 16 13 6 2 30 9 1 1 25 70 \012SROUND[ ]	/* SuperRound */\012MDAP[1]	/* MoveDirectAbsPt */\012SHZ[1]	/* ShiftZoneByLastPoint */\012RTG[ ]	/* RoundToGrid */\012SVTCA[0]	/* SetFreedomAndProjectionVectorToAxis */\012MIAP[1]	/* MoveIndirectAbsPt */\012MDAP[1]	/* MoveDirectAbsPt */\012SVTCA[1]	/* SetFreedomAndProjectionVectorToAxis */\012MDAP[0]	/* MoveDirectAbsPt */\012MDAP[0]	/* MoveDirectAbsPt */\012MDAP[0]	/* MoveDirectAbsPt */\012MDAP[0]	/* MoveDirectAbsPt */\012MDAP[0]	/* MoveDirectAbsPt */\012MDAP[0]	/* MoveDirectAbsPt */\012MDAP[0]	/* MoveDirectAbsPt */\012MDAP[0]	/* MoveDirectAbsPt */\012MDAP[0]	/* MoveDirectAbsPt */\012MDAP[0]	/* MoveDirectAbsPt */\012SVTCA[0]	/* SetFreedomAndProjectionVectorToAxis */\012MDAP[0]	/* MoveDirectAbsPt */\012MDAP[0]	/* MoveDirectAbsPt */\012MDAP[0]	/* MoveDirectAbsPt */\012MDAP[0]	/* MoveDirectAbsPt */\012MDAP[0]	/* MoveDirectAbsPt */\012MDAP[0]	/* MoveDirectAbsPt */\012MDAP[0]	/* MoveDirectAbsPt */\012MDAP[0]	/* MoveDirectAbsPt */\012IUP[1]	/* InterpolateUntPts */\012IUP[0]	/* InterpolateUntPts */\012SVTCA[1]	/* SetFreedomAndProjectionVectorToAxis */\012MD[0]	/* MeasureDistance */\012ROUND[00]	/* Round */\012PUSHW[ ]	/* 2 values pushed */\01225 59 \012MD[0]	/* MeasureDistance */\012ROUND[00]	/* Round */\012SUB[ ]	/* Subtract */\012PUSHB[ ]	/* 1 value pushed */\01264 \012GT[ ]	/* GreaterThan */\012IF[ ]	/* If */\012SHPIX[ ]	/* ShiftZoneByPixel */\012SRP1[ ]	/* SetRefPoint1 */\012SHZ[1]	/* ShiftZoneByLastPoint */\012PUSHW[ ]	/* 2 values pushed */\01259 -64 \012SHPIX[ ]	/* ShiftZoneByPixel */\012EIF[ ]	/* EndIf */";
};
width = 368;
}
);
note = a;
unicode = 0061;
},
{
glyphname = ae;
lastChange = "2022-03-02 02:51:37 +0000";
layers = (
{
background = {
paths = (
{
closed = 1;
nodes = (
"442 248 OFFCURVE",
"431 261 OFFCURVE",
"409 261 CURVE SMOOTH",
"381 261 OFFCURVE",
"349 243 OFFCURVE",
"312 208 CURVE SMOOTH",
"278 175 OFFCURVE",
"258 144 OFFCURVE",
"251 116 CURVE SMOOTH",
"248 102 OFFCURVE",
"246 89 OFFCURVE",
"246 76 CURVE SMOOTH",
"246 15 OFFCURVE",
"286 -24 OFFCURVE",
"345 -24 CURVE SMOOTH",
"370 -24 OFFCURVE",
"392 -18 OFFCURVE",
"411 -5 CURVE SMOOTH",
"417 -2 OFFCURVE",
"420 3 OFFCURVE",
"420 9 CURVE SMOOTH",
"420 18 OFFCURVE",
"416 22 OFFCURVE",
"407 22 CURVE SMOOTH",
"405 22 OFFCURVE",
"403 22 OFFCURVE",
"401 21 CURVE SMOOTH",
"384 14 OFFCURVE",
"369 11 OFFCURVE",
"356 11 CURVE SMOOTH",
"312 10 OFFCURVE",
"289 32 OFFCURVE",
"287 76 CURVE",
"288 76 LINE SMOOTH",
"323 84 OFFCURVE",
"356 101 OFFCURVE",
"387 127 CURVE SMOOTH",
"422 158 OFFCURVE",
"440 190 OFFCURVE",
"441 223 CURVE SMOOTH"
);
},
{
closed = 1;
nodes = (
"405 191 OFFCURVE",
"392 170 OFFCURVE",
"367 149 CURVE SMOOTH",
"353 137 OFFCURVE",
"335 128 OFFCURVE",
"314 123 CURVE",
"303 123 OFFCURVE",
"298 127 OFFCURVE",
"301 136 CURVE",
"312 157 OFFCURVE",
"321 173 OFFCURVE",
"328 182 CURVE SMOOTH",
"351 212 OFFCURVE",
"373 227 OFFCURVE",
"394 227 CURVE",
"397 230 OFFCURVE",
"407 223 OFFCURVE",
"406 212 CURVE SMOOTH"
);
}
);
};
layerId = "2018A826-CC5C-461A-95E5-9D849642E9B7";
paths = (
{
closed = 1;
nodes = (
"370 -14 OFFCURVE",
"392 -8 OFFCURVE",
"411 5 CURVE",
"417 8 OFFCURVE",
"420 13 OFFCURVE",
"420 19 CURVE SMOOTH",
"420 28 OFFCURVE",
"416 32 OFFCURVE",
"407 32 CURVE SMOOTH",
"405 32 OFFCURVE",
"403 32 OFFCURVE",
"401 31 CURVE SMOOTH",
"383 23 OFFCURVE",
"367 21 OFFCURVE",
"353 21 CURVE SMOOTH",
"311 21 OFFCURVE",
"289 43 OFFCURVE",
"287 86 CURVE",
"288 86 LINE SMOOTH",
"323 94 OFFCURVE",
"356 111 OFFCURVE",
"387 137 CURVE SMOOTH",
"423 169 OFFCURVE",
"441 202 OFFCURVE",
"441 236 CURVE SMOOTH",
"441 259 OFFCURVE",
"430 271 OFFCURVE",
"409 271 CURVE SMOOTH",
"384 271 OFFCURVE",
"355 256 OFFCURVE",
"322 228 CURVE",
"323 230 OFFCURVE",
"323 232 OFFCURVE",
"323 234 CURVE SMOOTH",
"323 247 OFFCURVE",
"317 254 OFFCURVE",
"305 254 CURVE SMOOTH",
"294 254 OFFCURVE",
"287 249 OFFCURVE",
"284 240 CURVE SMOOTH",
"279 226 OFFCURVE",
"273 214 OFFCURVE",
"266 205 CURVE SMOOTH",
"239 169 OFFCURVE",
"191 128 OFFCURVE",
"120 81 CURVE SMOOTH",
"91 62 OFFCURVE",
"71 52 OFFCURVE",
"60 52 CURVE SMOOTH",
"51 52 OFFCURVE",
"47 58 OFFCURVE",
"47 68 CURVE SMOOTH",
"47 71 OFFCURVE",
"47 74 OFFCURVE",
"48 78 CURVE SMOOTH",
"51 98 OFFCURVE",
"66 124 OFFCURVE",
"91 157 CURVE SMOOTH",
"118 192 OFFCURVE",
"147 220 OFFCURVE",
"178 239 CURVE SMOOTH",
"197 251 OFFCURVE",
"211 257 OFFCURVE",
"222 257 CURVE SMOOTH",
"232 257 OFFCURVE",
"243 252 OFFCURVE",
"255 242 CURVE SMOOTH",
"259 239 OFFCURVE",
"263 239 OFFCURVE",
"267 239 CURVE SMOOTH",
"272 239 OFFCURVE",
"275 242 OFFCURVE",
"275 249 CURVE SMOOTH",
"275 269 OFFCURVE",
"261 279 OFFCURVE",
"232 279 CURVE SMOOTH",
"219 279 OFFCURVE",
"206 276 OFFCURVE",
"191 271 CURVE SMOOTH",
"116 243 OFFCURVE",
"19 134 OFFCURVE",
"10 66 CURVE SMOOTH",
"6 42 OFFCURVE",
"26 9 OFFCURVE",
"50 9 CURVE SMOOTH",
"70 9 OFFCURVE",
"87 15 OFFCURVE",
"101 28 CURVE SMOOTH",
"163 79 OFFCURVE",
"208 114 OFFCURVE",
"235 133 CURVE",
"243 136 OFFCURVE",
"248 132 OFFCURVE",
"248 120 CURVE SMOOTH",
"248 117 LINE",
"248 107 LINE SMOOTH",
"247 100 OFFCURVE",
"246 93 OFFCURVE",
"246 86 CURVE SMOOTH",
"246 25 OFFCURVE",
"286 -14 OFFCURVE",
"345 -14 CURVE SMOOTH"
);
},
{
closed = 1;
nodes = (
"305 133 OFFCURVE",
"300 136 OFFCURVE",
"300 141 CURVE SMOOTH",
"300 143 OFFCURVE",
"300 144 OFFCURVE",
"301 146 CURVE SMOOTH",
"312 167 OFFCURVE",
"321 183 OFFCURVE",
"328 192 CURVE SMOOTH",
"351 222 OFFCURVE",
"373 237 OFFCURVE",
"394 237 CURVE",
"397 240 OFFCURVE",
"406 234 OFFCURVE",
"406 224 CURVE SMOOTH",
"406 222 LINE SMOOTH",
"405 201 OFFCURVE",
"392 180 OFFCURVE",
"367 159 CURVE SMOOTH",
"353 147 OFFCURVE",
"335 138 OFFCURVE",
"314 133 CURVE"
);
}
);
width = 455;
}
);
unicode = 00E6;
},
{
glyphname = b;
lastChange = "2022-03-02 02:51:37 +0000";
layers = (
{
layerId = "2018A826-CC5C-461A-95E5-9D849642E9B7";
paths = (
{
closed = 1;
nodes = (
"60 -3 OFFCURVE",
"65 -2 OFFCURVE",
"70 0 CURVE SMOOTH",
"109 13 OFFCURVE",
"162 39 OFFCURVE",
"229 80 CURVE SMOOTH",
"312 130 OFFCURVE",
"354 169 OFFCURVE",
"354 198 CURVE SMOOTH",
"354 231 OFFCURVE",
"332 256 OFFCURVE",
"287 272 CURVE SMOOTH",
"256 283 OFFCURVE",
"220 288 OFFCURVE",
"181 288 CURVE SMOOTH",
"167 288 OFFCURVE",
"152 287 OFFCURVE",
"135 284 CURVE SMOOTH",
"116 281 OFFCURVE",
"106 293 OFFCURVE",
"106 320 CURVE SMOOTH",
"106 327 OFFCURVE",
"107 334 OFFCURVE",
"108 343 CURVE SMOOTH",
"127 500 OFFCURVE",
"149 603 OFFCURVE",
"175 654 CURVE SMOOTH",
"176 657 OFFCURVE",
"177 659 OFFCURVE",
"177 662 CURVE SMOOTH",
"177 670 OFFCURVE",
"173 674 OFFCURVE",
"166 674 CURVE SMOOTH",
"161 674 OFFCURVE",
"157 671 OFFCURVE",
"154 665 CURVE SMOOTH",
"121 600 OFFCURVE",
"88 464 OFFCURVE",
"57 257 CURVE",
"39 248 OFFCURVE",
"20 238 OFFCURVE",
"0 226 CURVE SMOOTH",
"-5 223 OFFCURVE",
"-7 220 OFFCURVE",
"-7 215 CURVE SMOOTH",
"-7 208 OFFCURVE",
"-3 204 OFFCURVE",
"5 204 CURVE",
"53 223 LINE",
"39 129 OFFCURVE",
"32 62 OFFCURVE",
"32 21 CURVE SMOOTH",
"32 5 OFFCURVE",
"40 -3 OFFCURVE",
"55 -3 CURVE SMOOTH"
);
},
{
closed = 1;
nodes = (
"88 53 OFFCURVE",
"80 64 OFFCURVE",
"81 87 CURVE SMOOTH",
"83 127 LINE SMOOTH",
"85 159 OFFCURVE",
"89 184 OFFCURVE",
"90 201 CURVE SMOOTH",
"93 221 OFFCURVE",
"110 245 OFFCURVE",
"131 249 CURVE SMOOTH",
"157 252 OFFCURVE",
"175 252 OFFCURVE",
"185 252 CURVE SMOOTH",
"212 252 OFFCURVE",
"237 249 OFFCURVE",
"261 242 CURVE SMOOTH",
"297 233 OFFCURVE",
"315 217 OFFCURVE",
"315 196 CURVE SMOOTH",
"315 172 OFFCURVE",
"285 143 OFFCURVE",
"224 108 CURVE SMOOTH",
"171 77 OFFCURVE",
"130 59 OFFCURVE",
"102 55 CURVE SMOOTH"
);
}
);
userData = {
assembly = "NPUSHB[ ]	/* 28 values pushed */\0121 58 58 64 59 0 54 42 34 32 12 52 50 49 38 30 24 14 10 8 0 22 6 10 2 1 14 70 \012SROUND[ ]	/* SuperRound */\012MDAP[1]	/* MoveDirectAbsPt */\012SHZ[1]	/* ShiftZoneByLastPoint */\012RTG[ ]	/* RoundToGrid */\012SVTCA[0]	/* SetFreedomAndProjectionVectorToAxis */\012MIAP[1]	/* MoveIndirectAbsPt */\012MDAP[1]	/* MoveDirectAbsPt */\012MDAP[1]	/* MoveDirectAbsPt */\012SVTCA[1]	/* SetFreedomAndProjectionVectorToAxis */\012MDAP[0]	/* MoveDirectAbsPt */\012MDAP[0]	/* MoveDirectAbsPt */\012MDAP[0]	/* MoveDirectAbsPt */\012MDAP[0]	/* MoveDirectAbsPt */\012MDAP[0]	/* MoveDirectAbsPt */\012MDAP[0]	/* MoveDirectAbsPt */\012MDAP[0]	/* MoveDirectAbsPt */\012MDAP[0]	/* MoveDirectAbsPt */\012MDAP[0]	/* MoveDirectAbsPt */\012MDAP[0]	/* MoveDirectAbsPt */\012SVTCA[0]	/* SetFreedomAndProjectionVectorToAxis */\012MDAP[0]	/* MoveDirectAbsPt */\012MDAP[0]	/* MoveDirectAbsPt */\012MDAP[0]	/* MoveDirectAbsPt */\012MDAP[0]	/* MoveDirectAbsPt */\012MDAP[0]	/* MoveDirectAbsPt */\012IUP[1]	/* InterpolateUntPts */\012IUP[0]	/* InterpolateUntPts */\012SVTCA[1]	/* SetFreedomAndProjectionVectorToAxis */\012MD[0]	/* MeasureDistance */\012ROUND[00]	/* Round */\012PUSHW[ ]	/* 2 values pushed */\01214 58 \012MD[0]	/* MeasureDistance */\012ROUND[00]	/* Round */\012SUB[ ]	/* Subtract */\012PUSHB[ ]	/* 1 value pushed */\01264 \012GT[ ]	/* GreaterThan */\012IF[ ]	/* If */\012SHPIX[ ]	/* ShiftZoneByPixel */\012SRP1[ ]	/* SetRefPoint1 */\012SHZ[1]	/* ShiftZoneByLastPoint */\012PUSHW[ ]	/* 2 values pushed */\01258 -64 \012SHPIX[ ]	/* ShiftZoneByPixel */\012EIF[ ]	/* EndIf */";
};
width = 356;
}
);
note = b;
unicode = 0062;
},
{
glyphname = c;
lastChange = "2022-03-02 02:51:37 +0000";
layers = (
{
layerId = "2018A826-CC5C-461A-95E5-9D849642E9B7";
paths = (
{
closed = 1;
nodes = (
"138 -9 OFFCURVE",
"174 6 OFFCURVE",
"199 35 CURVE SMOOTH",
"203 39 OFFCURVE",
"205 44 OFFCURVE",
"205 49 CURVE SMOOTH",
"205 57 OFFCURVE",
"202 61 OFFCURVE",
"195 61 CURVE SMOOTH",
"192 61 OFFCURVE",
"188 60 OFFCURVE",
"185 57 CURVE SMOOTH",
"160 37 OFFCURVE",
"133 26 OFFCURVE",
"102 26 CURVE SMOOTH",
"85 26 OFFCURVE",
"71 34 OFFCURVE",
"61 49 CURVE SMOOTH",
"52 62 OFFCURVE",
"47 78 OFFCURVE",
"47 96 CURVE SMOOTH",
"47 131 OFFCURVE",
"56 166 OFFCURVE",
"75 199 CURVE SMOOTH",
"96 237 OFFCURVE",
"122 256 OFFCURVE",
"151 256 CURVE SMOOTH",
"166 256 OFFCURVE",
"181 243 OFFCURVE",
"181 228 CURVE SMOOTH",
"181 223 OFFCURVE",
"180 219 OFFCURVE",
"177 215 CURVE",
"178 215 LINE",
"176 212 OFFCURVE",
"175 210 OFFCURVE",
"175 207 CURVE SMOOTH",
"175 202 OFFCURVE",
"177 200 OFFCURVE",
"182 200 CURVE SMOOTH",
"193 200 OFFCURVE",
"200 210 OFFCURVE",
"203 229 CURVE SMOOTH",
"207 253 OFFCURVE",
"186 280 OFFCURVE",
"157 280 CURVE SMOOTH",
"115 280 OFFCURVE",
"80 260 OFFCURVE",
"52 220 CURVE SMOOTH",
"27 182 OFFCURVE",
"12 139 OFFCURVE",
"12 90 CURVE SMOOTH",
"12 68 OFFCURVE",
"18 47 OFFCURVE",
"31 27 CURVE SMOOTH",
"47 2 OFFCURVE",
"67 -9 OFFCURVE",
"92 -9 CURVE SMOOTH"
);
}
);
userData = {
assembly = "NPUSHB[ ]	/* 27 values pushed */\0121 41 41 64 42 26 24 20 12 2 34 26 16 9 7 6 4 0 38 30 1 7 6 2 1 34 70 \012SROUND[ ]	/* SuperRound */\012MDAP[1]	/* MoveDirectAbsPt */\012SHZ[1]	/* ShiftZoneByLastPoint */\012RTG[ ]	/* RoundToGrid */\012SVTCA[0]	/* SetFreedomAndProjectionVectorToAxis */\012MIAP[1]	/* MoveIndirectAbsPt */\012ALIGNRP[ ]	/* AlignRelativePt */\012MIAP[1]	/* MoveIndirectAbsPt */\012MDAP[1]	/* MoveDirectAbsPt */\012SVTCA[1]	/* SetFreedomAndProjectionVectorToAxis */\012MDAP[0]	/* MoveDirectAbsPt */\012MDAP[0]	/* MoveDirectAbsPt */\012MDAP[0]	/* MoveDirectAbsPt */\012MDAP[0]	/* MoveDirectAbsPt */\012MDAP[0]	/* MoveDirectAbsPt */\012MDAP[0]	/* MoveDirectAbsPt */\012MDAP[0]	/* MoveDirectAbsPt */\012MDAP[0]	/* MoveDirectAbsPt */\012SVTCA[0]	/* SetFreedomAndProjectionVectorToAxis */\012MDAP[0]	/* MoveDirectAbsPt */\012MDAP[0]	/* MoveDirectAbsPt */\012MDAP[0]	/* MoveDirectAbsPt */\012MDAP[0]	/* MoveDirectAbsPt */\012IUP[1]	/* InterpolateUntPts */\012IUP[0]	/* InterpolateUntPts */\012SVTCA[1]	/* SetFreedomAndProjectionVectorToAxis */\012MD[0]	/* MeasureDistance */\012ROUND[00]	/* Round */\012PUSHW[ ]	/* 2 values pushed */\01234 41 \012MD[0]	/* MeasureDistance */\012ROUND[00]	/* Round */\012SUB[ ]	/* Subtract */\012PUSHB[ ]	/* 1 value pushed */\01264 \012GT[ ]	/* GreaterThan */\012IF[ ]	/* If */\012SHPIX[ ]	/* ShiftZoneByPixel */\012SRP1[ ]	/* SetRefPoint1 */\012SHZ[1]	/* ShiftZoneByLastPoint */\012PUSHW[ ]	/* 2 values pushed */\01241 -64 \012SHPIX[ ]	/* ShiftZoneByPixel */\012EIF[ ]	/* EndIf */";
};
width = 199;
}
);
note = c;
unicode = 0063;
},
{
glyphname = d;
lastChange = "2022-03-02 02:51:37 +0000";
layers = (
{
layerId = "2018A826-CC5C-461A-95E5-9D849642E9B7";
paths = (
{
closed = 1;
nodes = (
"251 -90 OFFCURVE",
"268 -63 OFFCURVE",
"268 -31 CURVE SMOOTH",
"268 -29 OFFCURVE",
"253 54 OFFCURVE",
"251 82 CURVE SMOOTH",
"248 127 OFFCURVE",
"247 160 OFFCURVE",
"248 183 CURVE",
"344 375 LINE",
"369 433 OFFCURVE",
"381 488 OFFCURVE",
"381 539 CURVE SMOOTH",
"381 546 OFFCURVE",
"381 553 OFFCURVE",
"380 560 CURVE SMOOTH",
"377 609 OFFCURVE",
"361 634 OFFCURVE",
"332 634 CURVE SMOOTH",
"313 634 OFFCURVE",
"298 621 OFFCURVE",
"287 594 CURVE SMOOTH",
"268 544 OFFCURVE",
"255 503 OFFCURVE",
"249 471 CURVE SMOOTH",
"231 373 OFFCURVE",
"220 291 OFFCURVE",
"215 225 CURVE SMOOTH",
"215 221 OFFCURVE",
"214 219 OFFCURVE",
"212 219 CURVE SMOOTH",
"211 219 OFFCURVE",
"208 221 OFFCURVE",
"204 224 CURVE SMOOTH",
"200 227 OFFCURVE",
"197 230 OFFCURVE",
"194 231 CURVE SMOOTH",
"179 238 OFFCURVE",
"165 241 OFFCURVE",
"152 241 CURVE SMOOTH",
"134 241 OFFCURVE",
"112 231 OFFCURVE",
"86 211 CURVE SMOOTH",
"67 196 OFFCURVE",
"49 172 OFFCURVE",
"32 139 CURVE SMOOTH",
"14 104 OFFCURVE",
"5 73 OFFCURVE",
"5 45 CURVE SMOOTH",
"5 6 OFFCURVE",
"19 -13 OFFCURVE",
"48 -13 CURVE SMOOTH",
"75 -13 OFFCURVE",
"126 19 OFFCURVE",
"199 84 CURVE",
"203 79 OFFCURVE",
"204 62 OFFCURVE",
"203 33 CURVE SMOOTH",
"200 -23 LINE",
"203 -68 OFFCURVE",
"213 -90 OFFCURVE",
"232 -90 CURVE SMOOTH"
);
},
{
closed = 1;
nodes = (
"35 29 OFFCURVE",
"30 36 OFFCURVE",
"30 49 CURVE SMOOTH",
"30 68 OFFCURVE",
"38 92 OFFCURVE",
"54 123 CURVE SMOOTH",
"65 145 OFFCURVE",
"79 165 OFFCURVE",
"96 183 CURVE SMOOTH",
"119 207 OFFCURVE",
"140 219 OFFCURVE",
"160 219 CURVE SMOOTH",
"187 219 OFFCURVE",
"200 201 OFFCURVE",
"200 164 CURVE SMOOTH",
"200 155 OFFCURVE",
"199 146 OFFCURVE",
"197 137 CURVE",
"196 137 LINE",
"173 98 OFFCURVE",
"147 68 OFFCURVE",
"117 49 CURVE SMOOTH",
"91 33 OFFCURVE",
"67 26 OFFCURVE",
"44 28 CURVE SMOOTH"
);
},
{
closed = 1;
nodes = (
"266 350 OFFCURVE",
"274 416 OFFCURVE",
"280 459 CURVE",
"281 460 LINE",
"286 497 OFFCURVE",
"294 531 OFFCURVE",
"306 562 CURVE SMOOTH",
"317 592 OFFCURVE",
"328 607 OFFCURVE",
"337 607 CURVE SMOOTH",
"347 607 OFFCURVE",
"353 589 OFFCURVE",
"355 552 CURVE SMOOTH",
"358 507 OFFCURVE",
"347 457 OFFCURVE",
"324 402 CURVE SMOOTH",
"257 261 LINE"
);
}
);
userData = {
assembly = "NPUSHB[ ]	/* 33 values pushed */\0121 71 71 64 72 0 70 66 58 54 50 44 27 17 64 56 50 42 21 15 13 8 4 0 40 11 32 2 19 1 1 21 70 \012SROUND[ ]	/* SuperRound */\012MDAP[1]	/* MoveDirectAbsPt */\012SHZ[1]	/* ShiftZoneByLastPoint */\012RTG[ ]	/* RoundToGrid */\012SVTCA[0]	/* SetFreedomAndProjectionVectorToAxis */\012MIAP[1]	/* MoveIndirectAbsPt */\012MIAP[1]	/* MoveIndirectAbsPt */\012MDAP[1]	/* MoveDirectAbsPt */\012MDAP[1]	/* MoveDirectAbsPt */\012SVTCA[1]	/* SetFreedomAndProjectionVectorToAxis */\012MDAP[0]	/* MoveDirectAbsPt */\012MDAP[0]	/* MoveDirectAbsPt */\012MDAP[0]	/* MoveDirectAbsPt */\012MDAP[0]	/* MoveDirectAbsPt */\012MDAP[0]	/* MoveDirectAbsPt */\012MDAP[0]	/* MoveDirectAbsPt */\012MDAP[0]	/* MoveDirectAbsPt */\012MDAP[0]	/* MoveDirectAbsPt */\012MDAP[0]	/* MoveDirectAbsPt */\012MDAP[0]	/* MoveDirectAbsPt */\012SVTCA[0]	/* SetFreedomAndProjectionVectorToAxis */\012MDAP[0]	/* MoveDirectAbsPt */\012MDAP[0]	/* MoveDirectAbsPt */\012MDAP[0]	/* MoveDirectAbsPt */\012MDAP[0]	/* MoveDirectAbsPt */\012MDAP[0]	/* MoveDirectAbsPt */\012MDAP[0]	/* MoveDirectAbsPt */\012MDAP[0]	/* MoveDirectAbsPt */\012MDAP[0]	/* MoveDirectAbsPt */\012IUP[1]	/* InterpolateUntPts */\012IUP[0]	/* InterpolateUntPts */\012SVTCA[1]	/* SetFreedomAndProjectionVectorToAxis */\012MD[0]	/* MeasureDistance */\012ROUND[00]	/* Round */\012PUSHW[ ]	/* 2 values pushed */\01221 71 \012MD[0]	/* MeasureDistance */\012ROUND[00]	/* Round */\012SUB[ ]	/* Subtract */\012PUSHB[ ]	/* 1 value pushed */\01264 \012GT[ ]	/* GreaterThan */\012IF[ ]	/* If */\012SHPIX[ ]	/* ShiftZoneByPixel */\012SRP1[ ]	/* SetRefPoint1 */\012SHZ[1]	/* ShiftZoneByLastPoint */\012PUSHW[ ]	/* 2 values pushed */\01271 -64 \012SHPIX[ ]	/* ShiftZoneByPixel */\012EIF[ ]	/* EndIf */";
};
width = 334;
}
);
note = d;
unicode = 0064;
},
{
glyphname = eth;
lastChange = "2022-03-02 02:51:37 +0000";
layers = (
{
layerId = "2018A826-CC5C-461A-95E5-9D849642E9B7";
paths = (
{
closed = 1;
nodes = (
"170 -15 OFFCURVE",
"245 46 OFFCURVE",
"245 140 CURVE SMOOTH",
"245 202 OFFCURVE",
"232 322 OFFCURVE",
"152 409 CURVE",
"173 424 OFFCURVE",
"193 439 OFFCURVE",
"206 447 CURVE SMOOTH",
"212 451 OFFCURVE",
"217 455 OFFCURVE",
"217 461 CURVE SMOOTH",
"217 463 OFFCURVE",
"217 466 OFFCURVE",
"215 469 CURVE SMOOTH",
"213 474 OFFCURVE",
"210 476 OFFCURVE",
"207 476 CURVE SMOOTH",
"203 476 OFFCURVE",
"199 473 OFFCURVE",
"193 470 CURVE SMOOTH",
"175 460 OFFCURVE",
"152 446 OFFCURVE",
"129 431 CURVE",
"110 448 OFFCURVE",
"87 463 OFFCURVE",
"60 475 CURVE",
"42 475 OFFCURVE",
"35 467 OFFCURVE",
"35 460 CURVE SMOOTH",
"35 455 OFFCURVE",
"37 451 OFFCURVE",
"42 449 CURVE SMOOTH",
"65 440 OFFCURVE",
"85 427 OFFCURVE",
"102 412 CURVE",
"76 395 OFFCURVE",
"53 379 OFFCURVE",
"41 370 CURVE SMOOTH",
"35 365 OFFCURVE",
"32 360 OFFCURVE",
"32 355 CURVE SMOOTH",
"32 352 OFFCURVE",
"33 350 OFFCURVE",
"34 348 CURVE SMOOTH",
"36 344 OFFCURVE",
"40 342 OFFCURVE",
"46 342 CURVE SMOOTH",
"51 342 OFFCURVE",
"58 344 OFFCURVE",
"66 349 CURVE SMOOTH",
"81 358 OFFCURVE",
"102 373 OFFCURVE",
"124 389 CURVE",
"159 347 OFFCURVE",
"176 297 OFFCURVE",
"184 266 CURVE",
"145 260 OFFCURVE",
"111 234 OFFCURVE",
"66 177 CURVE SMOOTH",
"33 136 OFFCURVE",
"17 97 OFFCURVE",
"17 62 CURVE SMOOTH",
"17 42 OFFCURVE",
"24 25 OFFCURVE",
"37 10 CURVE SMOOTH",
"52 -7 OFFCURVE",
"70 -15 OFFCURVE",
"91 -15 CURVE SMOOTH"
);
},
{
closed = 1;
nodes = (
"71 16 OFFCURVE",
"60 31 OFFCURVE",
"60 60 CURVE SMOOTH",
"60 87 OFFCURVE",
"73 118 OFFCURVE",
"99 152 CURVE SMOOTH",
"121 180 OFFCURVE",
"146 213 OFFCURVE",
"189 234 CURVE",
"196 221 OFFCURVE",
"207 171 OFFCURVE",
"207 137 CURVE SMOOTH",
"207 61 OFFCURVE",
"141 17 OFFCURVE",
"92 16 CURVE SMOOTH"
);
}
);
width = 260;
}
);
unicode = 00F0;
},
{
glyphname = e;
lastChange = "2022-03-02 02:51:37 +0000";
layers = (
{
layerId = "2018A826-CC5C-461A-95E5-9D849642E9B7";
paths = (
{
closed = 1;
nodes = (
"150 -21 OFFCURVE",
"172 -15 OFFCURVE",
"191 -2 CURVE SMOOTH",
"197 1 OFFCURVE",
"200 6 OFFCURVE",
"200 12 CURVE SMOOTH",
"200 21 OFFCURVE",
"196 25 OFFCURVE",
"187 25 CURVE SMOOTH",
"185 25 OFFCURVE",
"183 25 OFFCURVE",
"181 24 CURVE SMOOTH",
"163 17 OFFCURVE",
"147 14 OFFCURVE",
"134 14 CURVE SMOOTH",
"91 14 OFFCURVE",
"69 36 OFFCURVE",
"67 79 CURVE",
"68 79 LINE SMOOTH",
"103 87 OFFCURVE",
"136 104 OFFCURVE",
"167 130 CURVE SMOOTH",
"202 161 OFFCURVE",
"220 193 OFFCURVE",
"221 226 CURVE SMOOTH",
"222 251 OFFCURVE",
"211 264 OFFCURVE",
"189 264 CURVE SMOOTH",
"161 264 OFFCURVE",
"129 246 OFFCURVE",
"92 211 CURVE SMOOTH",
"58 178 OFFCURVE",
"38 147 OFFCURVE",
"31 119 CURVE SMOOTH",
"28 105 OFFCURVE",
"26 92 OFFCURVE",
"26 79 CURVE SMOOTH",
"26 18 OFFCURVE",
"66 -21 OFFCURVE",
"125 -21 CURVE SMOOTH"
);
},
{
closed = 1;
nodes = (
"85 126 OFFCURVE",
"80 129 OFFCURVE",
"80 135 CURVE SMOOTH",
"80 136 OFFCURVE",
"80 137 OFFCURVE",
"81 139 CURVE SMOOTH",
"92 160 OFFCURVE",
"101 176 OFFCURVE",
"108 185 CURVE SMOOTH",
"131 215 OFFCURVE",
"153 230 OFFCURVE",
"174 230 CURVE",
"177 233 OFFCURVE",
"186 226 OFFCURVE",
"186 217 CURVE SMOOTH",
"186 215 LINE SMOOTH",
"185 194 OFFCURVE",
"172 173 OFFCURVE",
"147 152 CURVE SMOOTH",
"133 140 OFFCURVE",
"115 131 OFFCURVE",
"94 126 CURVE"
);
}
);
userData = {
assembly = "NPUSHB[ ]	/* 24 values pushed */\0121 41 41 64 42 0 37 31 11 7 5 4 35 28 20 13 5 0 26 17 1 1 20 70 \012SROUND[ ]	/* SuperRound */\012MDAP[1]	/* MoveDirectAbsPt */\012SHZ[1]	/* ShiftZoneByLastPoint */\012RTG[ ]	/* RoundToGrid */\012SVTCA[0]	/* SetFreedomAndProjectionVectorToAxis */\012MIAP[1]	/* MoveIndirectAbsPt */\012MDAP[1]	/* MoveDirectAbsPt */\012SVTCA[1]	/* SetFreedomAndProjectionVectorToAxis */\012MDAP[0]	/* MoveDirectAbsPt */\012MDAP[0]	/* MoveDirectAbsPt */\012MDAP[0]	/* MoveDirectAbsPt */\012MDAP[0]	/* MoveDirectAbsPt */\012MDAP[0]	/* MoveDirectAbsPt */\012MDAP[0]	/* MoveDirectAbsPt */\012SVTCA[0]	/* SetFreedomAndProjectionVectorToAxis */\012MDAP[0]	/* MoveDirectAbsPt */\012MDAP[0]	/* MoveDirectAbsPt */\012MDAP[0]	/* MoveDirectAbsPt */\012MDAP[0]	/* MoveDirectAbsPt */\012MDAP[0]	/* MoveDirectAbsPt */\012MDAP[0]	/* MoveDirectAbsPt */\012IUP[1]	/* InterpolateUntPts */\012IUP[0]	/* InterpolateUntPts */\012SVTCA[1]	/* SetFreedomAndProjectionVectorToAxis */\012MD[0]	/* MeasureDistance */\012ROUND[00]	/* Round */\012PUSHW[ ]	/* 2 values pushed */\01220 41 \012MD[0]	/* MeasureDistance */\012ROUND[00]	/* Round */\012SUB[ ]	/* Subtract */\012PUSHB[ ]	/* 1 value pushed */\01264 \012GT[ ]	/* GreaterThan */\012IF[ ]	/* If */\012SHPIX[ ]	/* ShiftZoneByPixel */\012SRP1[ ]	/* SetRefPoint1 */\012SHZ[1]	/* ShiftZoneByLastPoint */\012PUSHW[ ]	/* 2 values pushed */\01241 -64 \012SHPIX[ ]	/* ShiftZoneByPixel */\012EIF[ ]	/* EndIf */";
};
width = 235;
}
);
note = e;
unicode = 0065;
},
{
glyphname = schwa;
lastChange = "2022-03-02 02:51:37 +0000";
layers = (
{
layerId = "2018A826-CC5C-461A-95E5-9D849642E9B7";
paths = (
{
closed = 1;
nodes = (
"91 -4 OFFCURVE",
"123 14 OFFCURVE",
"160 49 CURVE SMOOTH",
"194 82 OFFCURVE",
"214 113 OFFCURVE",
"221 141 CURVE SMOOTH",
"224 155 OFFCURVE",
"226 168 OFFCURVE",
"226 181 CURVE SMOOTH",
"226 242 OFFCURVE",
"186 281 OFFCURVE",
"127 281 CURVE SMOOTH",
"102 281 OFFCURVE",
"80 275 OFFCURVE",
"61 262 CURVE",
"55 259 OFFCURVE",
"52 254 OFFCURVE",
"52 248 CURVE SMOOTH",
"52 239 OFFCURVE",
"56 235 OFFCURVE",
"65 235 CURVE SMOOTH",
"67 235 OFFCURVE",
"69 235 OFFCURVE",
"71 236 CURVE SMOOTH",
"89 244 OFFCURVE",
"105 246 OFFCURVE",
"119 246 CURVE SMOOTH",
"161 246 OFFCURVE",
"183 224 OFFCURVE",
"185 181 CURVE",
"184 181 LINE SMOOTH",
"149 173 OFFCURVE",
"116 156 OFFCURVE",
"85 130 CURVE SMOOTH",
"50 99 OFFCURVE",
"32 67 OFFCURVE",
"31 34 CURVE SMOOTH",
"30 9 OFFCURVE",
"41 -4 OFFCURVE",
"63 -4 CURVE SMOOTH"
);
},
{
closed = 1;
nodes = (
"75 27 OFFCURVE",
"66 33 OFFCURVE",
"66 43 CURVE SMOOTH",
"66 45 LINE SMOOTH",
"67 66 OFFCURVE",
"80 87 OFFCURVE",
"105 108 CURVE SMOOTH",
"119 120 OFFCURVE",
"137 129 OFFCURVE",
"158 134 CURVE",
"167 134 OFFCURVE",
"172 131 OFFCURVE",
"172 126 CURVE SMOOTH",
"172 124 OFFCURVE",
"172 123 OFFCURVE",
"171 121 CURVE SMOOTH",
"160 100 OFFCURVE",
"151 84 OFFCURVE",
"144 75 CURVE SMOOTH",
"121 45 OFFCURVE",
"99 30 OFFCURVE",
"78 30 CURVE"
);
}
);
width = 235;
}
);
unicode = 0259;
},
{
glyphname = f;
lastChange = "2022-03-02 02:59:03 +0000";
layers = (
{
layerId = "2018A826-CC5C-461A-95E5-9D849642E9B7";
paths = (
{
closed = 1;
nodes = (
"126 -90 OFFCURVE",
"130 -87 OFFCURVE",
"133 -82 CURVE SMOOTH",
"147 -60 OFFCURVE",
"164 28 OFFCURVE",
"184 183 CURVE",
"205 196 OFFCURVE",
"230 204 OFFCURVE",
"258 206 CURVE",
"336 206 LINE SMOOTH",
"347 206 OFFCURVE",
"352 212 OFFCURVE",
"352 223 CURVE SMOOTH",
"352 236 OFFCURVE",
"342 242 OFFCURVE",
"322 243 CURVE SMOOTH",
"258 241 LINE SMOOTH",
"234 241 OFFCURVE",
"213 244 OFFCURVE",
"194 250 CURVE",
"196 277 LINE",
"197 294 LINE SMOOTH",
"208 385 OFFCURVE",
"228 457 OFFCURVE",
"255 511 CURVE SMOOTH",
"288 577 OFFCURVE",
"320 610 OFFCURVE",
"350 610 CURVE SMOOTH",
"363 610 OFFCURVE",
"374 604 OFFCURVE",
"385 591 CURVE SMOOTH",
"388 587 OFFCURVE",
"392 585 OFFCURVE",
"397 585 CURVE SMOOTH",
"405 585 OFFCURVE",
"409 589 OFFCURVE",
"409 596 CURVE SMOOTH",
"409 599 OFFCURVE",
"408 602 OFFCURVE",
"405 605 CURVE SMOOTH",
"388 626 OFFCURVE",
"368 636 OFFCURVE",
"347 636 CURVE SMOOTH",
"321 636 OFFCURVE",
"296 621 OFFCURVE",
"271 592 CURVE SMOOTH",
"241 556 OFFCURVE",
"215 508 OFFCURVE",
"193 449 CURVE SMOOTH",
"172 394 OFFCURVE",
"160 341 OFFCURVE",
"155 292 CURVE SMOOTH",
"149 241 LINE",
"131 229 OFFCURVE",
"108 220 OFFCURVE",
"80 213 CURVE SMOOTH",
"43 204 OFFCURVE",
"18 197 OFFCURVE",
"7 192 CURVE",
"8 193 LINE",
"-1 189 OFFCURVE",
"-5 182 OFFCURVE",
"-5 173 CURVE SMOOTH",
"-5 165 OFFCURVE",
"-2 161 OFFCURVE",
"5 161 CURVE",
"7 160 OFFCURVE",
"8 161 OFFCURVE",
"10 161 CURVE",
"75 174 OFFCURVE",
"109 181 OFFCURVE",
"114 181 CURVE SMOOTH",
"125 181 OFFCURVE",
"132 176 OFFCURVE",
"135 167 CURVE",
"130 121 OFFCURVE",
"126 87 OFFCURVE",
"124 64 CURVE",
"117 65 OFFCURVE",
"112 61 OFFCURVE",
"109 52 CURVE SMOOTH",
"98 19 OFFCURVE",
"92 -11 OFFCURVE",
"91 -36 CURVE SMOOTH",
"91 -53 OFFCURVE",
"107 -90 OFFCURVE",
"122 -90 CURVE SMOOTH"
);
}
);
userData = {
assembly = "NPUSHB[ ]	/* 29 values pushed */\0121 64 64 64 65 2 50 49 45 43 26 24 20 18 8 4 50 49 47 41 35 22 16 2 62 32 1 47 70 \012SROUND[ ]	/* SuperRound */\012MDAP[1]	/* MoveDirectAbsPt */\012SHZ[1]	/* ShiftZoneByLastPoint */\012RTG[ ]	/* RoundToGrid */\012SVTCA[0]	/* SetFreedomAndProjectionVectorToAxis */\012MDAP[1]	/* MoveDirectAbsPt */\012MDAP[1]	/* MoveDirectAbsPt */\012SVTCA[1]	/* SetFreedomAndProjectionVectorToAxis */\012MDAP[0]	/* MoveDirectAbsPt */\012MDAP[0]	/* MoveDirectAbsPt */\012MDAP[0]	/* MoveDirectAbsPt */\012MDAP[0]	/* MoveDirectAbsPt */\012MDAP[0]	/* MoveDirectAbsPt */\012MDAP[0]	/* MoveDirectAbsPt */\012MDAP[0]	/* MoveDirectAbsPt */\012MDAP[0]	/* MoveDirectAbsPt */\012SVTCA[0]	/* SetFreedomAndProjectionVectorToAxis */\012MDAP[0]	/* MoveDirectAbsPt */\012MDAP[0]	/* MoveDirectAbsPt */\012MDAP[0]	/* MoveDirectAbsPt */\012MDAP[0]	/* MoveDirectAbsPt */\012MDAP[0]	/* MoveDirectAbsPt */\012MDAP[0]	/* MoveDirectAbsPt */\012MDAP[0]	/* MoveDirectAbsPt */\012MDAP[0]	/* MoveDirectAbsPt */\012MDAP[0]	/* MoveDirectAbsPt */\012MDAP[0]	/* MoveDirectAbsPt */\012IUP[1]	/* InterpolateUntPts */\012IUP[0]	/* InterpolateUntPts */\012SVTCA[1]	/* SetFreedomAndProjectionVectorToAxis */\012MD[0]	/* MeasureDistance */\012ROUND[00]	/* Round */\012PUSHW[ ]	/* 2 values pushed */\01247 64 \012MD[0]	/* MeasureDistance */\012ROUND[00]	/* Round */\012SUB[ ]	/* Subtract */\012PUSHB[ ]	/* 1 value pushed */\01264 \012GT[ ]	/* GreaterThan */\012IF[ ]	/* If */\012SHPIX[ ]	/* ShiftZoneByPixel */\012SRP1[ ]	/* SetRefPoint1 */\012SHZ[1]	/* ShiftZoneByLastPoint */\012PUSHW[ ]	/* 2 values pushed */\01264 -64 \012SHPIX[ ]	/* ShiftZoneByPixel */\012EIF[ ]	/* EndIf */";
};
width = 343;
}
);
note = f;
unicode = 0066;
},
{
glyphname = g;
lastChange = "2022-03-02 02:51:37 +0000";
layers = (
{
layerId = "2018A826-CC5C-461A-95E5-9D849642E9B7";
paths = (
{
closed = 1;
nodes = (
"67 -393 OFFCURVE",
"109 -361 OFFCURVE",
"144 -297 CURVE SMOOTH",
"170 -250 OFFCURVE",
"189 -192 OFFCURVE",
"201 -124 CURVE SMOOTH",
"207 -90 OFFCURVE",
"213 -39 OFFCURVE",
"220 30 CURVE",
"247 53 OFFCURVE",
"270 70 OFFCURVE",
"289 79 CURVE SMOOTH",
"296 82 OFFCURVE",
"299 87 OFFCURVE",
"299 94 CURVE SMOOTH",
"299 102 OFFCURVE",
"296 106 OFFCURVE",
"291 106 CURVE SMOOTH",
"287 106 OFFCURVE",
"281 104 OFFCURVE",
"274 99 CURVE SMOOTH",
"261 90 OFFCURVE",
"252 84 OFFCURVE",
"245 80 CURVE SMOOTH",
"242 77 OFFCURVE",
"238 76 OFFCURVE",
"235 76 CURVE SMOOTH",
"228 76 OFFCURVE",
"225 80 OFFCURVE",
"225 88 CURVE SMOOTH",
"225 93 LINE SMOOTH",
"232 156 OFFCURVE",
"238 200 OFFCURVE",
"245 223 CURVE SMOOTH",
"246 227 OFFCURVE",
"247 230 OFFCURVE",
"247 233 CURVE SMOOTH",
"247 240 OFFCURVE",
"242 244 OFFCURVE",
"234 244 CURVE SMOOTH",
"225 244 OFFCURVE",
"219 239 OFFCURVE",
"217 230 CURVE SMOOTH",
"202 145 OFFCURVE",
"162 92 OFFCURVE",
"97 72 CURVE SMOOTH",
"92 70 OFFCURVE",
"87 69 OFFCURVE",
"82 69 CURVE SMOOTH",
"62 69 OFFCURVE",
"52 81 OFFCURVE",
"52 106 CURVE SMOOTH",
"52 113 OFFCURVE",
"53 119 OFFCURVE",
"56 126 CURVE SMOOTH",
"71 167 OFFCURVE",
"92 201 OFFCURVE",
"118 228 CURVE SMOOTH",
"148 259 OFFCURVE",
"180 274 OFFCURVE",
"215 274 CURVE SMOOTH",
"214 274 LINE SMOOTH",
"224 273 OFFCURVE",
"229 278 OFFCURVE",
"229 290 CURVE SMOOTH",
"229 301 OFFCURVE",
"224 306 OFFCURVE",
"214 306 CURVE SMOOTH",
"172 306 OFFCURVE",
"130 281 OFFCURVE",
"88 232 CURVE SMOOTH",
"45 183 OFFCURVE",
"21 136 OFFCURVE",
"21 91 CURVE SMOOTH",
"21 60 OFFCURVE",
"39 35 OFFCURVE",
"68 35 CURVE SMOOTH",
"89 35 OFFCURVE",
"112 41 OFFCURVE",
"139 54 CURVE SMOOTH",
"161 65 OFFCURVE",
"177 75 OFFCURVE",
"186 85 CURVE",
"186 76 OFFCURVE",
"185 58 OFFCURVE",
"184 30 CURVE",
"76 -74 LINE SMOOTH",
"43 -105 OFFCURVE",
"16 -140 OFFCURVE",
"-6 -177 CURVE SMOOTH",
"-33 -222 OFFCURVE",
"-46 -263 OFFCURVE",
"-46 -301 CURVE SMOOTH",
"-46 -362 OFFCURVE",
"-25 -393 OFFCURVE",
"18 -393 CURVE SMOOTH"
);
},
{
closed = 1;
nodes = (
"-14 -361 OFFCURVE",
"-26 -341 OFFCURVE",
"-26 -302 CURVE SMOOTH",
"-26 -268 OFFCURVE",
"-12 -228 OFFCURVE",
"17 -182 CURVE SMOOTH",
"40 -143 OFFCURVE",
"68 -108 OFFCURVE",
"101 -77 CURVE SMOOTH",
"122 -57 OFFCURVE",
"139 -42 OFFCURVE",
"150 -32 CURVE SMOOTH",
"149 -33 LINE SMOOTH",
"157 -25 OFFCURVE",
"163 -21 OFFCURVE",
"168 -21 CURVE SMOOTH",
"174 -21 OFFCURVE",
"177 -27 OFFCURVE",
"177 -40 CURVE SMOOTH",
"177 -43 OFFCURVE",
"176 -47 OFFCURVE",
"176 -51 CURVE SMOOTH",
"153 -258 OFFCURVE",
"98 -361 OFFCURVE",
"10 -361 CURVE SMOOTH"
);
}
);
userData = {
assembly = "NPUSHB[ ]	/* 39 values pushed */\0121 77 77 64 78 60 75 58 54 48 42 34 33 22 18 73 67 66 62 60 52 50 40 34 33 31 25 18 10 29 8 67 66 1 64 1 1 10 70 \012SROUND[ ]	/* SuperRound */\012MDAP[1]	/* MoveDirectAbsPt */\012SHZ[1]	/* ShiftZoneByLastPoint */\012RTG[ ]	/* RoundToGrid */\012SVTCA[0]	/* SetFreedomAndProjectionVectorToAxis */\012MIAP[1]	/* MoveIndirectAbsPt */\012MIAP[1]	/* MoveIndirectAbsPt */\012ALIGNRP[ ]	/* AlignRelativePt */\012MDAP[1]	/* MoveDirectAbsPt */\012MDAP[1]	/* MoveDirectAbsPt */\012SVTCA[1]	/* SetFreedomAndProjectionVectorToAxis */\012MDAP[0]	/* MoveDirectAbsPt */\012MDAP[0]	/* MoveDirectAbsPt */\012MDAP[0]	/* MoveDirectAbsPt */\012MDAP[0]	/* MoveDirectAbsPt */\012MDAP[0]	/* MoveDirectAbsPt */\012MDAP[0]	/* MoveDirectAbsPt */\012MDAP[0]	/* MoveDirectAbsPt */\012MDAP[0]	/* MoveDirectAbsPt */\012MDAP[0]	/* MoveDirectAbsPt */\012MDAP[0]	/* MoveDirectAbsPt */\012MDAP[0]	/* MoveDirectAbsPt */\012MDAP[0]	/* MoveDirectAbsPt */\012MDAP[0]	/* MoveDirectAbsPt */\012MDAP[0]	/* MoveDirectAbsPt */\012SVTCA[0]	/* SetFreedomAndProjectionVectorToAxis */\012MDAP[0]	/* MoveDirectAbsPt */\012MDAP[0]	/* MoveDirectAbsPt */\012MDAP[0]	/* MoveDirectAbsPt */\012MDAP[0]	/* MoveDirectAbsPt */\012MDAP[0]	/* MoveDirectAbsPt */\012MDAP[0]	/* MoveDirectAbsPt */\012MDAP[0]	/* MoveDirectAbsPt */\012MDAP[0]	/* MoveDirectAbsPt */\012MDAP[0]	/* MoveDirectAbsPt */\012IUP[1]	/* InterpolateUntPts */\012IUP[0]	/* InterpolateUntPts */\012SVTCA[1]	/* SetFreedomAndProjectionVectorToAxis */\012MD[0]	/* MeasureDistance */\012ROUND[00]	/* Round */\012PUSHW[ ]	/* 2 values pushed */\01210 77 \012MD[0]	/* MeasureDistance */\012ROUND[00]	/* Round */\012SUB[ ]	/* Subtract */\012PUSHB[ ]	/* 1 value pushed */\01264 \012GT[ ]	/* GreaterThan */\012IF[ ]	/* If */\012SHPIX[ ]	/* ShiftZoneByPixel */\012SRP1[ ]	/* SetRefPoint1 */\012SHZ[1]	/* ShiftZoneByLastPoint */\012PUSHW[ ]	/* 2 values pushed */\01277 -64 \012SHPIX[ ]	/* ShiftZoneByPixel */\012EIF[ ]	/* EndIf */";
};
width = 281;
}
);
note = g;
unicode = 0067;
},
{
glyphname = h;
lastChange = "2022-03-02 02:51:37 +0000";
layers = (
{
layerId = "2018A826-CC5C-461A-95E5-9D849642E9B7";
paths = (
{
closed = 1;
nodes = (
"69 -8 OFFCURVE",
"79 -1 OFFCURVE",
"85 13 CURVE SMOOTH",
"98 44 OFFCURVE",
"108 65 OFFCURVE",
"115 75 CURVE SMOOTH",
"129 96 OFFCURVE",
"149 112 OFFCURVE",
"175 123 CURVE",
"188 125 OFFCURVE",
"197 111 OFFCURVE",
"204 80 CURVE SMOOTH",
"212 45 OFFCURVE",
"223 24 OFFCURVE",
"236 16 CURVE",
"238 16 LINE",
"242 14 OFFCURVE",
"247 13 OFFCURVE",
"253 13 CURVE SMOOTH",
"269 13 OFFCURVE",
"291 21 OFFCURVE",
"318 37 CURVE SMOOTH",
"341 51 OFFCURVE",
"357 63 OFFCURVE",
"365 73 CURVE SMOOTH",
"369 78 OFFCURVE",
"371 83 OFFCURVE",
"371 88 CURVE SMOOTH",
"371 94 OFFCURVE",
"369 98 OFFCURVE",
"365 98 CURVE SMOOTH",
"361 98 OFFCURVE",
"358 96 OFFCURVE",
"354 91 CURVE SMOOTH",
"337 69 OFFCURVE",
"311 58 OFFCURVE",
"277 58 CURVE SMOOTH",
"271 58 OFFCURVE",
"266 58 OFFCURVE",
"261 59 CURVE SMOOTH",
"238 62 OFFCURVE",
"227 95 OFFCURVE",
"227 159 CURVE SMOOTH",
"227 186 OFFCURVE",
"221 200 OFFCURVE",
"206 200 CURVE SMOOTH",
"198 200 OFFCURVE",
"180 189 OFFCURVE",
"153 167 CURVE SMOOTH",
"101 124 LINE SMOOTH",
"95 119 OFFCURVE",
"90 117 OFFCURVE",
"85 117 CURVE SMOOTH",
"76 117 OFFCURVE",
"71 126 OFFCURVE",
"69 144 CURVE SMOOTH",
"68 153 OFFCURVE",
"68 162 OFFCURVE",
"68 171 CURVE SMOOTH",
"68 192 OFFCURVE",
"70 215 OFFCURVE",
"75 239 CURVE SMOOTH",
"89 298 LINE SMOOTH",
"94 313 OFFCURVE",
"115 348 OFFCURVE",
"154 402 CURVE SMOOTH",
"193 456 OFFCURVE",
"216 497 OFFCURVE",
"225 525 CURVE SMOOTH",
"231 544 OFFCURVE",
"234 563 OFFCURVE",
"234 581 CURVE SMOOTH",
"234 636 OFFCURVE",
"204 674 OFFCURVE",
"172 674 CURVE SMOOTH",
"161 674 OFFCURVE",
"152 670 OFFCURVE",
"144 662 CURVE SMOOTH",
"125 644 OFFCURVE",
"109 610 OFFCURVE",
"96 561 CURVE SMOOTH",
"92 546 OFFCURVE",
"82 498 OFFCURVE",
"65 419 CURVE SMOOTH",
"38 288 OFFCURVE",
"24 176 OFFCURVE",
"24 81 CURVE SMOOTH",
"24 56 OFFCURVE",
"25 34 OFFCURVE",
"28 15 CURVE SMOOTH",
"30 0 OFFCURVE",
"39 -8 OFFCURVE",
"56 -8 CURVE SMOOTH"
);
},
{
closed = 1;
nodes = (
"118 528 LINE",
"129 595 OFFCURVE",
"145 633 OFFCURVE",
"166 640 CURVE SMOOTH",
"187 647 OFFCURVE",
"212 614 OFFCURVE",
"212 577 CURVE SMOOTH",
"212 566 OFFCURVE",
"210 555 OFFCURVE",
"206 545 CURVE SMOOTH",
"193 508 OFFCURVE",
"181 481 OFFCURVE",
"172 464 CURVE SMOOTH",
"155 434 OFFCURVE",
"133 407 OFFCURVE",
"104 384 CURVE",
"104 383 LINE"
);
}
);
userData = {
assembly = "NPUSHB[ ]	/* 29 values pushed */\0121 79 79 64 80 63 74 70 61 57 51 45 11 7 6 4 75 74 67 63 41 32 21 29 17 1 1 21 70 \012SROUND[ ]	/* SuperRound */\012MDAP[1]	/* MoveDirectAbsPt */\012SHZ[1]	/* ShiftZoneByLastPoint */\012RTG[ ]	/* RoundToGrid */\012SVTCA[0]	/* SetFreedomAndProjectionVectorToAxis */\012MIAP[1]	/* MoveIndirectAbsPt */\012MDAP[1]	/* MoveDirectAbsPt */\012SVTCA[1]	/* SetFreedomAndProjectionVectorToAxis */\012MDAP[0]	/* MoveDirectAbsPt */\012MDAP[0]	/* MoveDirectAbsPt */\012MDAP[0]	/* MoveDirectAbsPt */\012MDAP[0]	/* MoveDirectAbsPt */\012MDAP[0]	/* MoveDirectAbsPt */\012MDAP[0]	/* MoveDirectAbsPt */\012MDAP[0]	/* MoveDirectAbsPt */\012SVTCA[0]	/* SetFreedomAndProjectionVectorToAxis */\012MDAP[0]	/* MoveDirectAbsPt */\012MDAP[0]	/* MoveDirectAbsPt */\012MDAP[0]	/* MoveDirectAbsPt */\012MDAP[0]	/* MoveDirectAbsPt */\012MDAP[0]	/* MoveDirectAbsPt */\012MDAP[0]	/* MoveDirectAbsPt */\012MDAP[0]	/* MoveDirectAbsPt */\012MDAP[0]	/* MoveDirectAbsPt */\012MDAP[0]	/* MoveDirectAbsPt */\012MDAP[0]	/* MoveDirectAbsPt */\012IUP[1]	/* InterpolateUntPts */\012IUP[0]	/* InterpolateUntPts */\012SVTCA[1]	/* SetFreedomAndProjectionVectorToAxis */\012MD[0]	/* MeasureDistance */\012ROUND[00]	/* Round */\012PUSHW[ ]	/* 2 values pushed */\01221 79 \012MD[0]	/* MeasureDistance */\012ROUND[00]	/* Round */\012SUB[ ]	/* Subtract */\012PUSHB[ ]	/* 1 value pushed */\01264 \012GT[ ]	/* GreaterThan */\012IF[ ]	/* If */\012SHPIX[ ]	/* ShiftZoneByPixel */\012SRP1[ ]	/* SetRefPoint1 */\012SHZ[1]	/* ShiftZoneByLastPoint */\012PUSHW[ ]	/* 2 values pushed */\01279 -64 \012SHPIX[ ]	/* ShiftZoneByPixel */\012EIF[ ]	/* EndIf */";
};
width = 325;
}
);
note = h;
unicode = 0068;
},
{
glyphname = i;
lastChange = "2022-03-02 02:51:37 +0000";
layers = (
{
layerId = "2018A826-CC5C-461A-95E5-9D849642E9B7";
paths = (
{
closed = 1;
nodes = (
"54 16 OFFCURVE",
"70 30 OFFCURVE",
"66 43 CURVE SMOOTH",
"65 45 OFFCURVE",
"65 62 OFFCURVE",
"65 94 CURVE SMOOTH",
"65 112 OFFCURVE",
"69 136 OFFCURVE",
"76 167 CURVE SMOOTH",
"80 184 OFFCURVE",
"84 202 OFFCURVE",
"89 219 CURVE SMOOTH",
"93 230 OFFCURVE",
"89 236 OFFCURVE",
"76 236 CURVE SMOOTH",
"69 236 OFFCURVE",
"65 233 OFFCURVE",
"62 226 CURVE SMOOTH",
"39 164 OFFCURVE",
"26 118 OFFCURVE",
"24 87 CURVE SMOOTH",
"23 60 OFFCURVE",
"24 39 OFFCURVE",
"29 24 CURVE SMOOTH",
"31 19 OFFCURVE",
"35 16 OFFCURVE",
"41 16 CURVE SMOOTH"
);
},
{
closed = 1;
nodes = (
"97 331 OFFCURVE",
"103 360 OFFCURVE",
"105 379 CURVE SMOOTH",
"108 392 OFFCURVE",
"101 398 OFFCURVE",
"86 398 CURVE SMOOTH",
"79 398 OFFCURVE",
"74 394 OFFCURVE",
"72 387 CURVE SMOOTH",
"62 349 LINE",
"61 337 OFFCURVE",
"65 331 OFFCURVE",
"76 331 CURVE SMOOTH"
);
}
);
userData = {
assembly = "NPUSHB[ ]	/* 19 values pushed */\0121 31 31 64 32 0 29 4 25 18 16 12 6 0 10 21 1 25 70 \012SROUND[ ]	/* SuperRound */\012MDAP[1]	/* MoveDirectAbsPt */\012SHZ[1]	/* ShiftZoneByLastPoint */\012RTG[ ]	/* RoundToGrid */\012SVTCA[0]	/* SetFreedomAndProjectionVectorToAxis */\012MDAP[1]	/* MoveDirectAbsPt */\012MDAP[1]	/* MoveDirectAbsPt */\012SVTCA[1]	/* SetFreedomAndProjectionVectorToAxis */\012MDAP[0]	/* MoveDirectAbsPt */\012MDAP[0]	/* MoveDirectAbsPt */\012MDAP[0]	/* MoveDirectAbsPt */\012MDAP[0]	/* MoveDirectAbsPt */\012MDAP[0]	/* MoveDirectAbsPt */\012MDAP[0]	/* MoveDirectAbsPt */\012SVTCA[0]	/* SetFreedomAndProjectionVectorToAxis */\012MDAP[0]	/* MoveDirectAbsPt */\012MDAP[0]	/* MoveDirectAbsPt */\012IUP[1]	/* InterpolateUntPts */\012IUP[0]	/* InterpolateUntPts */\012SVTCA[1]	/* SetFreedomAndProjectionVectorToAxis */\012MD[0]	/* MeasureDistance */\012ROUND[00]	/* Round */\012PUSHW[ ]	/* 2 values pushed */\01225 31 \012MD[0]	/* MeasureDistance */\012ROUND[00]	/* Round */\012SUB[ ]	/* Subtract */\012PUSHB[ ]	/* 1 value pushed */\01264 \012GT[ ]	/* GreaterThan */\012IF[ ]	/* If */\012SHPIX[ ]	/* ShiftZoneByPixel */\012SRP1[ ]	/* SetRefPoint1 */\012SHZ[1]	/* ShiftZoneByLastPoint */\012PUSHW[ ]	/* 2 values pushed */\01231 -64 \012SHPIX[ ]	/* ShiftZoneByPixel */\012EIF[ ]	/* EndIf */";
};
width = 130;
}
);
note = i;
unicode = 0069;
},
{
color = 11;
glyphname = idotless;
lastChange = "2022-03-02 02:51:37 +0000";
layers = (
{
layerId = "2018A826-CC5C-461A-95E5-9D849642E9B7";
paths = (
{
closed = 1;
nodes = (
"54 16 OFFCURVE",
"70 30 OFFCURVE",
"66 43 CURVE SMOOTH",
"65 45 OFFCURVE",
"65 62 OFFCURVE",
"65 94 CURVE SMOOTH",
"65 112 OFFCURVE",
"69 136 OFFCURVE",
"76 167 CURVE SMOOTH",
"80 184 OFFCURVE",
"84 202 OFFCURVE",
"89 219 CURVE SMOOTH",
"93 230 OFFCURVE",
"89 236 OFFCURVE",
"76 236 CURVE SMOOTH",
"69 236 OFFCURVE",
"65 233 OFFCURVE",
"62 226 CURVE SMOOTH",
"39 164 OFFCURVE",
"26 118 OFFCURVE",
"24 87 CURVE SMOOTH",
"23 60 OFFCURVE",
"24 39 OFFCURVE",
"29 24 CURVE SMOOTH",
"31 19 OFFCURVE",
"35 16 OFFCURVE",
"41 16 CURVE SMOOTH"
);
}
);
width = 130;
}
);
unicode = 0131;
},
{
glyphname = j;
lastChange = "2022-03-02 02:51:37 +0000";
layers = (
{
layerId = "2018A826-CC5C-461A-95E5-9D849642E9B7";
paths = (
{
closed = 1;
nodes = (
"-116 -409 OFFCURVE",
"-73 -381 OFFCURVE",
"-34 -326 CURVE SMOOTH",
"-2 -281 OFFCURVE",
"22 -225 OFFCURVE",
"38 -160 CURVE SMOOTH",
"43 -137 OFFCURVE",
"49 -104 OFFCURVE",
"54 -60 CURVE",
"116 -42 LINE SMOOTH",
"123 -41 OFFCURVE",
"126 -37 OFFCURVE",
"126 -30 CURVE SMOOTH",
"126 -20 OFFCURVE",
"121 -15 OFFCURVE",
"112 -15 CURVE",
"57 -33 LINE",
"70 81 OFFCURVE",
"87 159 OFFCURVE",
"108 200 CURVE",
"107 201 OFFCURVE",
"107 203 OFFCURVE",
"107 204 CURVE",
"108 206 LINE SMOOTH",
"112 217 OFFCURVE",
"102 232 OFFCURVE",
"89 232 CURVE SMOOTH",
"78 232 OFFCURVE",
"69 223 OFFCURVE",
"61 205 CURVE",
"55 180 OFFCURVE",
"52 162 OFFCURVE",
"51 150 CURVE",
"50 150 LINE",
"35 63 OFFCURVE",
"24 -2 OFFCURVE",
"19 -46 CURVE",
"14 -51 OFFCURVE",
"10 -54 OFFCURVE",
"7 -55 CURVE SMOOTH",
"-150 -162 OFFCURVE",
"-228 -255 OFFCURVE",
"-228 -336 CURVE SMOOTH",
"-228 -385 OFFCURVE",
"-207 -409 OFFCURVE",
"-164 -409 CURVE SMOOTH"
);
},
{
closed = 1;
nodes = (
"-187 -381 OFFCURVE",
"-199 -366 OFFCURVE",
"-199 -337 CURVE SMOOTH",
"-199 -264 OFFCURVE",
"-141 -188 OFFCURVE",
"-25 -109 CURVE",
"-24 -110 LINE",
"-21 -108 OFFCURVE",
"-18 -107 OFFCURVE",
"-15 -107 CURVE SMOOTH",
"-4 -107 OFFCURVE",
"0 -126 OFFCURVE",
"0 -142 CURVE SMOOTH",
"0 -146 OFFCURVE",
"0 -150 OFFCURVE",
"-1 -154 CURVE SMOOTH",
"-10 -205 OFFCURVE",
"-30 -254 OFFCURVE",
"-59 -301 CURVE SMOOTH",
"-93 -354 OFFCURVE",
"-128 -381 OFFCURVE",
"-163 -381 CURVE SMOOTH"
);
},
{
closed = 1;
nodes = (
"104 335 OFFCURVE",
"110 338 OFFCURVE",
"115 344 CURVE",
"124 362 OFFCURVE",
"128 375 OFFCURVE",
"128 383 CURVE",
"131 396 OFFCURVE",
"125 402 OFFCURVE",
"110 402 CURVE SMOOTH",
"103 402 OFFCURVE",
"98 398 OFFCURVE",
"96 391 CURVE SMOOTH",
"86 352 LINE SMOOTH",
"84 341 OFFCURVE",
"88 335 OFFCURVE",
"98 335 CURVE SMOOTH"
);
}
);
userData = {
assembly = "NPUSHB[ ]	/* 32 values pushed */\0121 62 62 64 63 0 58 54 53 51 44 33 29 28 4 56 48 46 42 40 38 36 22 6 0 10 20 42 1 1 22 70 \012SROUND[ ]	/* SuperRound */\012MDAP[1]	/* MoveDirectAbsPt */\012SHZ[1]	/* ShiftZoneByLastPoint */\012RTG[ ]	/* RoundToGrid */\012SVTCA[0]	/* SetFreedomAndProjectionVectorToAxis */\012MIAP[1]	/* MoveIndirectAbsPt */\012MDAP[1]	/* MoveDirectAbsPt */\012MDAP[1]	/* MoveDirectAbsPt */\012SVTCA[1]	/* SetFreedomAndProjectionVectorToAxis */\012MDAP[0]	/* MoveDirectAbsPt */\012MDAP[0]	/* MoveDirectAbsPt */\012MDAP[0]	/* MoveDirectAbsPt */\012MDAP[0]	/* MoveDirectAbsPt */\012MDAP[0]	/* MoveDirectAbsPt */\012MDAP[0]	/* MoveDirectAbsPt */\012MDAP[0]	/* MoveDirectAbsPt */\012MDAP[0]	/* MoveDirectAbsPt */\012MDAP[0]	/* MoveDirectAbsPt */\012MDAP[0]	/* MoveDirectAbsPt */\012SVTCA[0]	/* SetFreedomAndProjectionVectorToAxis */\012MDAP[0]	/* MoveDirectAbsPt */\012MDAP[0]	/* MoveDirectAbsPt */\012MDAP[0]	/* MoveDirectAbsPt */\012MDAP[0]	/* MoveDirectAbsPt */\012MDAP[0]	/* MoveDirectAbsPt */\012MDAP[0]	/* MoveDirectAbsPt */\012MDAP[0]	/* MoveDirectAbsPt */\012MDAP[0]	/* MoveDirectAbsPt */\012MDAP[0]	/* MoveDirectAbsPt */\012IUP[1]	/* InterpolateUntPts */\012IUP[0]	/* InterpolateUntPts */\012SVTCA[1]	/* SetFreedomAndProjectionVectorToAxis */\012MD[0]	/* MeasureDistance */\012ROUND[00]	/* Round */\012PUSHW[ ]	/* 2 values pushed */\01222 62 \012MD[0]	/* MeasureDistance */\012ROUND[00]	/* Round */\012SUB[ ]	/* Subtract */\012PUSHB[ ]	/* 1 value pushed */\01264 \012GT[ ]	/* GreaterThan */\012IF[ ]	/* If */\012SHPIX[ ]	/* ShiftZoneByPixel */\012SRP1[ ]	/* SetRefPoint1 */\012SHZ[1]	/* ShiftZoneByLastPoint */\012PUSHW[ ]	/* 2 values pushed */\01262 -64 \012SHPIX[ ]	/* ShiftZoneByPixel */\012EIF[ ]	/* EndIf */";
};
width = 126;
}
);
note = j;
unicode = 006A;
},
{
color = 11;
glyphname = jdotless;
lastChange = "2022-03-02 02:51:37 +0000";
layers = (
{
layerId = "2018A826-CC5C-461A-95E5-9D849642E9B7";
paths = (
{
closed = 1;
nodes = (
"-116 -409 OFFCURVE",
"-73 -381 OFFCURVE",
"-34 -326 CURVE SMOOTH",
"-2 -281 OFFCURVE",
"22 -225 OFFCURVE",
"38 -160 CURVE SMOOTH",
"43 -137 OFFCURVE",
"49 -104 OFFCURVE",
"54 -60 CURVE",
"116 -42 LINE",
"123 -41 OFFCURVE",
"126 -37 OFFCURVE",
"126 -30 CURVE SMOOTH",
"126 -20 OFFCURVE",
"121 -15 OFFCURVE",
"112 -15 CURVE",
"57 -33 LINE",
"70 81 OFFCURVE",
"87 159 OFFCURVE",
"108 200 CURVE",
"107 201 OFFCURVE",
"107 203 OFFCURVE",
"107 204 CURVE",
"108 206 LINE SMOOTH",
"112 217 OFFCURVE",
"102 232 OFFCURVE",
"89 232 CURVE SMOOTH",
"78 232 OFFCURVE",
"69 223 OFFCURVE",
"61 205 CURVE",
"55 180 OFFCURVE",
"52 162 OFFCURVE",
"51 150 CURVE",
"50 150 LINE",
"35 63 OFFCURVE",
"24 -2 OFFCURVE",
"19 -46 CURVE",
"14 -51 OFFCURVE",
"10 -54 OFFCURVE",
"7 -55 CURVE",
"-150 -162 OFFCURVE",
"-228 -255 OFFCURVE",
"-228 -336 CURVE SMOOTH",
"-228 -385 OFFCURVE",
"-207 -409 OFFCURVE",
"-164 -409 CURVE SMOOTH"
);
},
{
closed = 1;
nodes = (
"-187 -381 OFFCURVE",
"-199 -366 OFFCURVE",
"-199 -337 CURVE SMOOTH",
"-199 -264 OFFCURVE",
"-141 -188 OFFCURVE",
"-25 -109 CURVE",
"-24 -110 LINE",
"-21 -108 OFFCURVE",
"-18 -107 OFFCURVE",
"-15 -107 CURVE SMOOTH",
"-5 -107 OFFCURVE",
"0 -126 OFFCURVE",
"0 -142 CURVE SMOOTH",
"0 -146 OFFCURVE",
"0 -150 OFFCURVE",
"-1 -154 CURVE SMOOTH",
"-10 -205 OFFCURVE",
"-30 -254 OFFCURVE",
"-59 -301 CURVE SMOOTH",
"-93 -354 OFFCURVE",
"-128 -381 OFFCURVE",
"-163 -381 CURVE SMOOTH"
);
}
);
width = 126;
}
);
unicode = 0237;
},
{
glyphname = k;
lastChange = "2022-03-02 02:51:37 +0000";
layers = (
{
layerId = "2018A826-CC5C-461A-95E5-9D849642E9B7";
paths = (
{
closed = 1;
nodes = (
"44 -69 OFFCURVE",
"50 -63 OFFCURVE",
"51 -51 CURVE SMOOTH",
"56 -10 OFFCURVE",
"62 37 OFFCURVE",
"70 90 CURVE",
"83 96 OFFCURVE",
"92 99 OFFCURVE",
"99 100 CURVE",
"138 46 OFFCURVE",
"181 3 OFFCURVE",
"226 -29 CURVE SMOOTH",
"228 -30 OFFCURVE",
"230 -31 OFFCURVE",
"233 -31 CURVE SMOOTH",
"245 -31 OFFCURVE",
"257 -18 OFFCURVE",
"257 -6 CURVE SMOOTH",
"257 -2 OFFCURVE",
"255 1 OFFCURVE",
"252 4 CURVE SMOOTH",
"247 8 OFFCURVE",
"239 11 OFFCURVE",
"230 14 CURVE SMOOTH",
"220 17 OFFCURVE",
"212 20 OFFCURVE",
"207 25 CURVE SMOOTH",
"166 62 OFFCURVE",
"145 89 OFFCURVE",
"144 105 CURVE",
"147 109 OFFCURVE",
"171 130 OFFCURVE",
"215 169 CURVE SMOOTH",
"246 197 OFFCURVE",
"264 222 OFFCURVE",
"271 245 CURVE SMOOTH",
"275 261 OFFCURVE",
"265 280 OFFCURVE",
"249 280 CURVE SMOOTH",
"240 279 LINE",
"191 267 OFFCURVE",
"140 232 OFFCURVE",
"87 175 CURVE",
"95 210 OFFCURVE",
"107 256 OFFCURVE",
"123 315 CURVE SMOOTH",
"153 424 OFFCURVE",
"177 495 OFFCURVE",
"196 530 CURVE SMOOTH",
"197 533 OFFCURVE",
"198 535 OFFCURVE",
"198 538 CURVE SMOOTH",
"198 547 OFFCURVE",
"194 552 OFFCURVE",
"185 552 CURVE SMOOTH",
"180 552 OFFCURVE",
"177 550 OFFCURVE",
"175 545 CURVE SMOOTH",
"136 458 OFFCURVE",
"106 382 OFFCURVE",
"85 317 CURVE SMOOTH",
"40 174 OFFCURVE",
"14 53 OFFCURVE",
"7 -45 CURVE SMOOTH",
"6 -57 OFFCURVE",
"22 -69 OFFCURVE",
"34 -69 CURVE SMOOTH"
);
},
{
closed = 1;
nodes = (
"103 145 LINE",
"164 207 OFFCURVE",
"202 238 OFFCURVE",
"219 238 CURVE SMOOTH",
"224 238 OFFCURVE",
"227 236 OFFCURVE",
"228 232 CURVE",
"228 221 OFFCURVE",
"215 205 OFFCURVE",
"190 184 CURVE SMOOTH",
"158 158 OFFCURVE",
"130 145 OFFCURVE",
"105 145 CURVE",
"104 144 OFFCURVE",
"102 144 OFFCURVE",
"101 144 CURVE"
);
}
);
userData = {
assembly = "NPUSHB[ ]	/* 26 values pushed */\0121 59 59 64 60 0 53 50 45 41 18 53 48 41 35 27 11 4 0 33 24 14 1 1 27 70 \012SROUND[ ]	/* SuperRound */\012MDAP[1]	/* MoveDirectAbsPt */\012SHZ[1]	/* ShiftZoneByLastPoint */\012RTG[ ]	/* RoundToGrid */\012SVTCA[0]	/* SetFreedomAndProjectionVectorToAxis */\012MIAP[1]	/* MoveIndirectAbsPt */\012MDAP[1]	/* MoveDirectAbsPt */\012MDAP[1]	/* MoveDirectAbsPt */\012SVTCA[1]	/* SetFreedomAndProjectionVectorToAxis */\012MDAP[0]	/* MoveDirectAbsPt */\012MDAP[0]	/* MoveDirectAbsPt */\012MDAP[0]	/* MoveDirectAbsPt */\012MDAP[0]	/* MoveDirectAbsPt */\012MDAP[0]	/* MoveDirectAbsPt */\012MDAP[0]	/* MoveDirectAbsPt */\012MDAP[0]	/* MoveDirectAbsPt */\012MDAP[0]	/* MoveDirectAbsPt */\012SVTCA[0]	/* SetFreedomAndProjectionVectorToAxis */\012MDAP[0]	/* MoveDirectAbsPt */\012MDAP[0]	/* MoveDirectAbsPt */\012MDAP[0]	/* MoveDirectAbsPt */\012MDAP[0]	/* MoveDirectAbsPt */\012MDAP[0]	/* MoveDirectAbsPt */\012IUP[1]	/* InterpolateUntPts */\012IUP[0]	/* InterpolateUntPts */\012SVTCA[1]	/* SetFreedomAndProjectionVectorToAxis */\012MD[0]	/* MeasureDistance */\012ROUND[00]	/* Round */\012PUSHW[ ]	/* 2 values pushed */\01227 59 \012MD[0]	/* MeasureDistance */\012ROUND[00]	/* Round */\012SUB[ ]	/* Subtract */\012PUSHB[ ]	/* 1 value pushed */\01264 \012GT[ ]	/* GreaterThan */\012IF[ ]	/* If */\012SHPIX[ ]	/* ShiftZoneByPixel */\012SRP1[ ]	/* SetRefPoint1 */\012SHZ[1]	/* ShiftZoneByLastPoint */\012PUSHW[ ]	/* 2 values pushed */\01259 -64 \012SHPIX[ ]	/* ShiftZoneByPixel */\012EIF[ ]	/* EndIf */";
};
width = 281;
}
);
note = k;
unicode = 006B;
},
{
glyphname = kgreenlandic;
lastChange = "2022-03-02 02:51:37 +0000";
layers = (
{
layerId = "2018A826-CC5C-461A-95E5-9D849642E9B7";
paths = (
{
closed = 1;
nodes = (
"36 -15 OFFCURVE",
"38 -14 OFFCURVE",
"41 -11 CURVE SMOOTH",
"58 5 LINE SMOOTH",
"64 11 OFFCURVE",
"70 19 OFFCURVE",
"76 28 CURVE SMOOTH",
"85 42 OFFCURVE",
"92 59 OFFCURVE",
"97 79 CURVE SMOOTH",
"109 129 LINE SMOOTH",
"121 179 OFFCURVE",
"124 218 OFFCURVE",
"126 243 CURVE SMOOTH",
"132 311 OFFCURVE",
"136 360 OFFCURVE",
"138 389 CURVE SMOOTH",
"141 416 OFFCURVE",
"145 437 OFFCURVE",
"148 460 CURVE SMOOTH",
"150 479 OFFCURVE",
"144 487 OFFCURVE",
"132 487 CURVE SMOOTH",
"121 487 OFFCURVE",
"110 478 OFFCURVE",
"108 461 CURVE SMOOTH",
"101 391 LINE SMOOTH",
"95 322 OFFCURVE",
"91 273 OFFCURVE",
"90 244 CURVE",
"82 195 OFFCURVE",
"80 161 OFFCURVE",
"75 141 CURVE SMOOTH",
"68 109 OFFCURVE",
"63 77 OFFCURVE",
"51 57 CURVE",
"41 45 OFFCURVE",
"33 36 OFFCURVE",
"27 31 CURVE SMOOTH",
"21 25 OFFCURVE",
"18 18 OFFCURVE",
"18 9 CURVE SMOOTH",
"18 -7 OFFCURVE",
"23 -15 OFFCURVE",
"33 -15 CURVE SMOOTH"
);
},
{
closed = 1;
nodes = (
"299 2 OFFCURVE",
"307 12 OFFCURVE",
"307 22 CURVE",
"295 35 OFFCURVE",
"272 59 OFFCURVE",
"260 74 CURVE SMOOTH",
"245 92 OFFCURVE",
"232 104 OFFCURVE",
"229 110 CURVE SMOOTH",
"221 123 OFFCURVE",
"211 135 OFFCURVE",
"205 145 CURVE",
"192 161 LINE SMOOTH",
"189 165 OFFCURVE",
"187 170 OFFCURVE",
"187 176 CURVE SMOOTH",
"187 183 OFFCURVE",
"190 191 OFFCURVE",
"197 199 CURVE SMOOTH",
"206 210 OFFCURVE",
"225 223 OFFCURVE",
"275 258 CURVE SMOOTH",
"300 275 OFFCURVE",
"315 286 OFFCURVE",
"321 292 CURVE",
"327 296 OFFCURVE",
"333 303 OFFCURVE",
"339 312 CURVE",
"339 318 OFFCURVE",
"334 338 OFFCURVE",
"319 338 CURVE SMOOTH",
"314 338 OFFCURVE",
"308 336 OFFCURVE",
"301 330 CURVE SMOOTH",
"280 314 OFFCURVE",
"264 302 OFFCURVE",
"254 296 CURVE SMOOTH",
"221 273 OFFCURVE",
"194 252 OFFCURVE",
"172 234 CURVE SMOOTH",
"153 218 OFFCURVE",
"145 200 OFFCURVE",
"145 185 CURVE SMOOTH",
"145 174 OFFCURVE",
"148 165 OFFCURVE",
"155 158 CURVE",
"185 106 OFFCURVE",
"201 91 OFFCURVE",
"204 88 CURVE SMOOTH",
"218 72 OFFCURVE",
"229 61 OFFCURVE",
"234 53 CURVE",
"283 4 LINE",
"285 3 OFFCURVE",
"288 2 OFFCURVE",
"290 2 CURVE SMOOTH"
);
}
);
width = 351;
}
);
unicode = 0138;
},
